<svg width="231" height="224" viewBox="0 0 231 224" fill="none" xmlns="http://www.w3.org/2000/svg">
<path d="M138 114.8C138 123.6 134.7 132 128.6 138.4L62.8 208L37.6 185.5C36.2 184.4 36.1 182.3 37.3 181L91.4999 119.4L91.8 112.2L138 114.8Z" fill="#05082E"/>
<path d="M125.3 113.8L182.3 179.5L157.1 202.1C155.9 203.3 153.8 203.2 152.6 201.9L93 134.8L125.3 113.8Z" fill="#05082E"/>
<path d="M146.5 114.9L83.5001 115.6V96.9C83.1001 97.1 64.3002 104.9 54.3002 96C48.1002 90.5 46.3002 79.4 47.8002 65.7C49.1002 54.2 51.8 49.7 56.4 45.9C59.7 43.2 72.5001 45.6 74.2001 46.3C77.8667 47.6334 80.0334 52.2 80.7001 60C89.1001 47 106.5 43.7 116.7 44C136.1 44.6 139.9 45.3 144.8 53.1C148 58.1 148.567 78.7 146.5 114.9Z" fill="#05082E"/>
<path d="M94.7 32.5002L35.8999 35.4002V29.3002V27.2002V21.2002L94.7 24.0002V32.5002Z" fill="#ED7966"/>
<path d="M129.5 20.6002C130.4 30.3002 123.2 38.9002 113.5 39.8002C103.8 40.7002 95.1001 33.5002 94.3001 23.8002C93.4001 14.1002 100.5 5.50016 110.3 4.60016C120 3.70016 128.6 10.9002 129.5 20.6002Z" fill="#05082E"/>
<path d="M110.1 52.2002C103.2 52.4002 103.4 47.0002 103.4 46.7002L102.6 44.1002C94.7 45.0002 94.2999 39.3002 94.1999 35.7002C90.9332 33.5668 89.2665 31.9668 89.1999 30.9002C89.0999 29.0002 93.6 27.3002 94.8 26.4002C94.9 24.3002 95 18.5002 95.3 17.7002C95.5 17.2002 96.1 17.0002 96.6 17.2002C98.5 18.4002 103.6 18.1002 106.1 17.9002C106.8 17.8002 107.4 18.4002 107.4 19.1002C107.5 23.5002 108.6 37.3002 120.5 37.5002C120.7 37.6002 120.8 37.7002 120.9 37.6002C121.233 40.3335 121.567 42.9668 121.9 45.5002C122.4 45.5002 117.9 52.0002 110.1 52.2002Z" fill="#FEF8F6"/>
<path fill-rule="evenodd" clip-rule="evenodd" d="M109.8 53.1C103.3 53.1 102.5 48.4 102.5 46.9L102 45.1C99.4001 45.2334 97.3667 44.7 95.9 43.5C93.7 41.6 93.4002 38.4 93.3002 36.2C91.6002 35 88.4002 32.7 88.3002 30.9C88.2002 28.9 90.8001 27.5 93.0001 26.4C93.3001 26.2 93.7 26 93.9 25.9C93.9667 25.5 94.0001 25.0667 94.0001 24.6C94.1001 20.2 94.2001 18 94.5001 17.4C94.6001 16.9 95.0001 16.5 95.5001 16.3C96.0001 16.2 96.6001 16.2 97.0001 16.5C98.2001 17.2 101.6 17.4 106 17C106.6 17 107.2 17.2 107.6 17.5C108 17.9 108.3 18.5 108.3 19.1C108.4 23.1 109.4 36.4 120.5 36.7C120.7 36.7 120.867 36.7 121 36.7C121.133 36.7667 121.267 36.8334 121.4 36.9C121.6 37 121.8 37.3 121.8 37.5C122.2 41 122.6 44.4 122.7 45.2C122.767 45.3334 122.8 45.4667 122.8 45.6C122.8 46.8 117.8 52.9 110.1 53.1C110.034 53.1 109.933 53.1 109.8 53.1ZM102.6 43.2C103 43.2 103.4 43.5 103.5 43.9L104.2 46.5C104.2 46.7 104.3 46.7 104.3 46.8C104.3 48.5 105.2 51.5 110.1 51.3C116.5 51.2 120.4 46.5 121 45.5C120.9 44.9 120.5 41.8 120.1 38.4C107.8 37.9 106.6 23.5 106.5 19.1C106.5 18.9667 106.467 18.9 106.4 18.9C106.4 18.8 106.3 18.8 106.2 18.8C102.7 19.1 98.1002 19.2 96.1002 18C96.0002 18.6 95.8002 22.7 95.8002 24.6C95.7002 25.3 95.7001 26 95.7001 26.4C95.7001 26.7 95.6002 26.9 95.3002 27.1C95.0002 27.4 94.4002 27.7 93.8002 28C92.7002 28.6 90.0002 30 90.1002 30.8C90.1002 31.5 92.3001 33.4 94.7001 35C94.9001 35.1 95.1002 35.4 95.1002 35.7C95.2002 37.5 95.3002 40.6 97.1002 42.1C98.3002 43.1667 100.1 43.5667 102.5 43.3C102.567 43.2334 102.6 43.2 102.6 43.2Z" fill="#05082E"/>
<path d="M98.3998 28.1001C97.7998 28.0001 97.3999 27.5001 97.4999 27.0001C97.4999 26.9001 97.7 25.8001 98.3 25.0001C98.9 24.3001 99.9999 23.6001 101.7 24.4001C102.7 24.9001 103.3 26.3001 103.4 26.6001C103.6 27.1001 103.4 27.6001 102.9 27.8001C102.4 27.9001 101.9 27.7001 101.7 27.2001C101.6 26.8001 101.2 26.2001 100.9 26.1001C100.2 25.7001 99.8999 25.9001 99.6999 26.2001C99.4999 26.4001 99.3 27.0001 99.3 27.3001C99.2 27.8001 98.7998 28.1001 98.3998 28.1001Z" fill="#05082E"/>
<path d="M115.2 28.1001C115.4 30.5001 113.6 32.6001 111.3 32.8001C108.9 33.0001 106.8 31.3001 106.6 28.9001C106.3 26.5001 108.1 24.4001 110.5 24.2001C112.9 24.0001 115 25.7001 115.2 28.1001Z" fill="#FEF8F6"/>
<path d="M108.5 28.9002C108.433 28.9002 108.367 28.8669 108.3 28.8002C107.8 28.7002 107.5 28.2002 107.7 27.8002C107.9 26.8002 108.5 26.0002 109.3 25.5002C110.2 25.0002 111.2 24.8002 112.1 25.1002C112.6 25.2002 112.9 25.7002 112.8 26.2002C112.7 26.6002 112.2 26.9002 111.7 26.8002C110.7 26.6002 109.6 27.2002 109.4 28.2002C109.3 28.6002 108.9 28.9002 108.5 28.9002Z" fill="#05082E"/>
<path d="M102.6 45.0001C102.2 45.0001 101.8 44.7001 101.7 44.2001C101.7 43.7001 102.1 43.3001 102.5 43.2001C105.7 43.0001 108.9 41.2001 108.9 41.2001C109.4 41.0001 109.9 41.1001 110.2 41.6001C110.4 42.0001 110.2 42.5001 109.8 42.8001C109.7 42.9001 106.2 44.7001 102.7 45.0001C102.7 45.0001 102.667 45.0001 102.6 45.0001Z" fill="#05082E"/>
<path d="M94.3 13.3C95.3 4.89999 103.7 1.79999 110.9 1.69999C118 1.49999 125.9 3.49999 128.2 9.59999C129.4 12.8667 129.7 17.4 129.1 23.2H107.5L94.3 13.3Z" fill="#FEF8F6"/>
<path d="M129.1 24.1001H107.5C107 24.1001 106.6 23.7001 106.6 23.2001C106.6 22.7001 107 22.3001 107.5 22.3001H128.3C128.5 20.1001 128.8 13.7001 127.4 10.0001C124.7 2.90011 114.1 2.50011 110.9 2.60011C103.9 2.70011 96.2 5.60011 95.2 13.4001C95.2 13.9001 94.7 14.3001 94.2 14.2001C93.7 14.1001 93.3999 13.7001 93.3999 13.2001C94.4999 4.20011 103.5 0.900111 110.9 0.800111C120.1 0.600111 126.9 3.80011 129 9.30011C130.9 14.3001 130.1 23.0001 130 23.3001C130 23.8001 129.6 24.1001 129.1 24.1001Z" fill="#05082E"/>
<path d="M107.5 23.2002L79.6 20.6002C78.1 20.6002 76.9 19.7002 76.3 18.4002C75.4 16.3002 76.8999 13.9002 79.1999 13.6002L94.3 13.3002C98.4333 12.2335 102.833 15.5335 107.5 23.2002Z" fill="#FEF8F6"/>
<path fill-rule="evenodd" clip-rule="evenodd" d="M107.5 24.1001C107.433 24.1001 98.1 23.2335 79.5 21.5001C77.8 21.5001 76.2 20.4001 75.5 18.8001C75 17.5001 75.1 16.1001 75.8 14.9001C76.5 13.7001 77.7001 12.9001 79.1001 12.7001C79.1667 12.7001 84.1999 12.6001 94.1999 12.4001C95.1999 12.2001 101.4 11.5001 108.2 22.8001C108.4 23.1001 108.4 23.4001 108.2 23.7001C108.1 24.0001 107.8 24.1001 107.5 24.1001ZM79.1999 14.5001C78.3999 14.6001 77.7 15.1001 77.3 15.8001C76.9 16.5001 76.7999 17.3001 77.1999 18.1001C77.5999 19.1001 78.5001 19.7001 79.6001 19.7001C79.6001 19.7001 88.2999 20.5335 105.7 22.2001C99.6999 13.1001 94.6 14.2001 94.5 14.2001C94.4333 14.2001 94.3667 14.2001 94.3 14.2001L79.1999 14.5001Z" fill="#05082E"/>
<path d="M94.7 40.8001C94.3 40.8001 93.9 40.4001 93.8 40.0001C93.8 39.5001 94.2 39.1001 94.7 39.0001C95.2 38.9001 96.6001 36.7001 97.6001 34.3001C97.7001 33.9001 98.3 33.7001 98.7 33.8001C99.2 34.0001 99.4 34.6001 99.2 35.0001C98.5 36.7001 96.7 40.7001 94.8 40.8001C94.8 40.8001 94.7666 40.8001 94.7 40.8001Z" fill="#05082E"/>
<path d="M44.6001 37.2H36.3999C35.2999 37.2 34.3 36.3 34.3 35.1V21.4C34.3 20.3 35.2999 19.3 36.3999 19.3H44.6001C45.8001 19.3 46.7 20.3 46.7 21.4V35.1C46.7 36.3 45.8001 37.2 44.6001 37.2Z" fill="#ED7966"/>
<path d="M46.7 36C46.2 36 45.8 35.6 45.8 35.1V21.4C45.8 20.9 46.2 20.5 46.7 20.5C47.2 20.5 47.6001 20.9 47.6001 21.4V35.1C47.6001 35.6 47.2 36 46.7 36Z" fill="#05082E"/>
<path d="M74.4 23.5001C74.2 25.2001 73.0002 26.6001 71.3002 26.9001C70.1002 27.1001 69.3002 26.6001 68.6002 25.9001C68.0002 26.9001 66.9001 27.7001 65.5001 27.6001C64.6001 27.5001 63.8002 27.0001 63.3002 26.3001C62.7002 27.1001 61.9002 27.6001 60.8002 27.5001C59.7002 27.4001 59.1002 26.8001 58.6002 26.1001C57.9002 27.1001 57.0002 27.8001 55.6002 27.6001C53.9002 27.4001 52.7001 25.4001 52.5001 23.9001C52.2001 22.3001 52.6001 20.6001 53.5001 19.4001C54.6001 17.7001 57.0002 16.9001 58.6002 18.0001C60.0002 16.5001 62.3001 16.5001 63.7001 17.9001C65.3001 16.5001 67.7 16.8001 68.9 18.5001C69.7 18.0001 70.8002 17.9001 71.8002 18.4001C73.5002 19.3001 74.5 21.6001 74.4 23.5001Z" fill="#FEF8F6"/>
<path fill-rule="evenodd" clip-rule="evenodd" d="M56 28.5001C55.8667 28.5001 55.7 28.5001 55.5 28.5001C53.4 28.3001 51.9001 26.1001 51.6001 24.0001C51.3001 22.3001 51.7 20.3001 52.7 18.8001C53.5 17.7001 54.8001 16.9001 56.1001 16.7001C57.0001 16.5001 57.8 16.6001 58.5 16.9001C59.2 16.3001 60.1001 16.0001 61.1001 16.0001C62.1001 15.9001 63 16.2001 63.7 16.7001C64.6 16.2001 65.7 16.0001 66.7 16.2001C67.6 16.3001 68.5 16.7001 69.2 17.4001C70.1 17.1001 71.2 17.1001 72.2 17.6001C74.2 18.6001 75.5001 21.1001 75.3001 23.5001C75.1001 25.7001 73.4999 27.5001 71.3999 27.8001C70.3999 27.9335 69.5 27.7334 68.7 27.2001C67.9 28.1001 66.7 28.6001 65.5 28.5001C64.7 28.4001 63.9001 28.1001 63.3001 27.6001C62.5668 28.2001 61.7 28.4668 60.7 28.4001C59.9 28.3335 59.2001 28.0335 58.6001 27.5001C57.7001 28.3001 56.8 28.5001 56 28.5001ZM56.8999 18.4001C56.6999 18.4001 56.5333 18.4001 56.3999 18.4001C55.5999 18.6001 54.7 19.1001 54.2 19.9001C53.4 21.0001 53.1001 22.4001 53.3001 23.7001C53.6001 25.1001 54.5 26.6001 55.7 26.7001C56.3 26.8001 57.0999 26.7001 57.8999 25.6001C57.9999 25.3001 58.3001 25.2001 58.6001 25.2001C59.0001 25.2001 59.1999 25.4001 59.3999 25.6001C59.6999 26.2001 60.2001 26.5001 60.8001 26.6001C61.5334 26.6668 62.1335 26.4001 62.6001 25.8001C62.8001 25.6001 63.0001 25.5001 63.3001 25.5001C63.6001 25.5001 63.8 25.6001 64 25.8001C64.4 26.3001 65.0001 26.6001 65.6001 26.7001C66.8001 26.8001 67.5001 25.9001 67.8001 25.4001C68.0001 25.2001 68.2 25.0001 68.5 25.0001C68.8 25.0001 69.1 25.1001 69.2 25.3001C69.8 25.9001 70.4001 26.1001 71.1001 26.0001C72.4001 25.8001 73.4 24.7001 73.5 23.4001C73.6 21.9001 72.7999 20.0001 71.3999 19.2001C70.6999 18.9001 69.9001 18.9001 69.3001 19.2001C68.9001 19.5001 68.4 19.4001 68.2 19.0001C67.8 18.4001 67.1999 18.0001 66.3999 17.9001C65.6999 17.8001 64.9001 18.0001 64.3001 18.5001C63.9001 18.8001 63.4001 18.8001 63.1001 18.5001C62.6001 18.0001 61.9 17.7001 61.2 17.8001C60.4 17.8001 59.8001 18.1001 59.3001 18.6001C59.0001 19.0001 58.5001 19.0001 58.1001 18.8001C57.7001 18.5001 57.2999 18.4001 56.8999 18.4001Z" fill="#05082E"/>
<path d="M58.6001 27.0001C58.1001 27.0001 57.7 26.6001 57.7 26.1001V18.0001C57.7 17.5001 58.1001 17.1001 58.6001 17.1001C59.1001 17.1001 59.5 17.5001 59.5 18.0001V26.1001C59.5 26.6001 59.1001 27.0001 58.6001 27.0001Z" fill="#05082E"/>
<path d="M63.3 27.2C62.8 27.2 62.3999 26.8 62.3999 26.3L62.8 17.8C62.8 17.3 63.2 16.9 63.7 17C64.2 17 64.6001 17.4 64.6001 17.9L64.2 26.4C64.2 26.9 63.8 27.2 63.3 27.2Z" fill="#05082E"/>
<path d="M68.6001 26.8001C68.1001 26.8001 67.7 26.4001 67.7 25.9001L68 18.4001C68 17.9001 68.3999 17.6001 68.8999 17.6001C69.3999 17.6001 69.8 18.0001 69.8 18.5001L69.5 25.9001C69.5 26.4001 69.1001 26.8001 68.6001 26.8001Z" fill="#05082E"/>
<path d="M73.8999 48C73.0999 52.6 69.2 56 64.6 56.2C59.2 56.3 54.6999 52.2 54.3999 46.8C54.3332 44.0667 54.3332 39.9667 54.3999 34.5C56.3999 34.5 58.3 32.4 59 30.5C59.3 29.7 59.8 29 60.5 28.6C63.3 27 66.5999 28.7 67.3999 27.9C68.1999 27.2 71.6999 21.6 74.8999 22.8C78.0999 24.1 78.0999 26 74.8999 29.9C74.0999 30.8 74.4999 44.5 73.8999 48Z" fill="#FEF8F6"/>
<path fill-rule="evenodd" clip-rule="evenodd" d="M64.2 57.1001C58.5 57.1001 53.8 52.5 53.5 46.8C53.4 42.8 53.5 34.5 53.5 34.4C53.5 34.2 53.6001 34 53.8001 33.8C53.9334 33.6667 54.1332 33.6 54.3999 33.6C55.8999 33.6 57.6 31.8 58.2 30.2C58.6 29.0667 59.2 28.2667 60 27.8C62 26.7 64 27 65.5 27.1C66 27.2 66.6001 27.3 66.8001 27.2C66.9001 27.1 67.1001 26.9 67.3001 26.7C68.8001 24.7 72.0001 20.7 75.3001 22C76.9001 22.6 77.8001 23.5 78.1001 24.6C78.5001 26.1 77.7001 27.9 75.6001 30.4C75.3001 31.3 75.2 35.7 75.2 39C75.1 42.9 75 46.5 74.7 48.2C73.9 53.1 69.6001 56.9001 64.6001 57.1001C64.4668 57.1001 64.3333 57.1001 64.2 57.1001ZM55.3001 35.3C55.2001 37.5 55.2001 43.5 55.3001 46.7C55.5001 51.6 59.7 55.4 64.5 55.3C68.7 55.1 72.3 52 73 47.9C73.2 46.3 73.2999 42.6 73.3999 39C73.4999 31.5 73.7 29.9 74.2 29.3C75.8666 27.3 76.5999 25.9 76.3999 25.1C76.2666 24.5667 75.6668 24.1 74.6001 23.7C72.6001 22.9 69.8 26.3 68.7 27.8C68.4333 28.1334 68.2 28.4 68 28.6C67.4 29.2 66.5001 29.1 65.3001 28.9C64.0001 28.8 62.2999 28.6 60.8999 29.4C60.4332 29.6 60.0999 30.0667 59.8999 30.8C59.1999 32.8 57.4001 34.8 55.3001 35.3Z" fill="#05082E"/>
<path d="M18 48.3C17.7333 48.3 17.5332 48.2 17.3999 48C16.9999 47.6 16.9999 47.1 17.3999 46.7L22 42.1C22.3 41.8 22.8999 41.8 23.1999 42.1C23.5999 42.5 23.5999 43.1 23.1999 43.4L18.6 48C18.4667 48.2 18.2666 48.3 18 48.3Z" fill="#ED7966"/>
<path d="M8.80005 31.2001C8.30005 31.2001 7.8999 30.8001 7.8999 30.3001C7.8999 29.8001 8.19995 29.4001 8.69995 29.4001L18.5 28.6001C19 28.5001 19.5 28.9001 19.5 29.4001C19.5 29.9001 19.2 30.3001 18.7 30.4001L8.8999 31.2001C8.83324 31.2001 8.80005 31.2001 8.80005 31.2001Z" fill="#ED7966"/>
<path d="M21.6 17.8001C21.4 17.8001 21.1999 17.7334 20.9999 17.6001L15.6998 13.5001C15.2998 13.2001 15.1999 12.6001 15.4999 12.2001C15.7999 11.8001 16.3999 11.8001 16.7999 12.1001L22.1 16.2001C22.5 16.5001 22.5999 17.0001 22.2999 17.4001C22.0999 17.7001 21.8 17.8001 21.6 17.8001Z" fill="#ED7966"/>
<path d="M173.1 94L135.5 108.9L152 78.6L129.4 58.7L158.2 56L162 24.2L179.7 45.8L205.4 32.4L199.6 64L230.6 77.2L195.6 90.6L201.7 122.3L173.1 94Z" fill="#303179"/>
<path fill-rule="evenodd" clip-rule="evenodd" d="M180.7 35.7C180.7 35.7 180.667 35.7 180.6 35.7C180.2 35.6 180 35.3 179.9 35L175.4 16.4C175.3 16.1 175.4 15.8 175.6 15.6C175.8 15.4 176.1 15.3 176.4 15.3L191.4 18.6C191.7 18.7 191.9 18.9 192.1 19.2C192.2 19.4 192.1 19.8 192 20L181.5 35.3C181.3 35.5 181 35.7 180.7 35.7ZM177.4 17.4L181.1 32.6L189.7 20.1L177.4 17.4Z" fill="#303179"/>
<path fill-rule="evenodd" clip-rule="evenodd" d="M220 112.1C219.8 112.1 219.5 111.9 219.3 111.7L205.7 94.3C205.5 94 205.4 93.6 205.6 93.3C205.8 93 206.2 92.8 206.5 92.9L229.6 96.4C229.9 96.4 230.2 96.6 230.3 96.9C230.4 97.2 230.4 97.5 230.2 97.8L220.8 111.7C220.6 111.9 220.4 112 220.1 112.1C220.1 112.1 220.067 112.1 220 112.1ZM208.5 95L220 109.6L227.9 97.9L208.5 95Z" fill="#303179"/>
<path d="M170.9 170.4H23.8999C17.9999 170.4 13.2 165.6 13.2 159.7V72.2C13.2 66.2 17.9999 61.5 23.8999 61.5H170.9C176.8 61.5 181.6 66.2 181.6 72.2V159.7C181.6 165.6 176.8 170.4 170.9 170.4Z" fill="#CCD0DF"/>
<path d="M13.2 82.4V72.2C13.2 66.2 17.9999 61.5 23.8999 61.5H170.9C176.8 61.5 181.6 66.2 181.6 72.2V82.4H13.2Z" fill="#FEF8F6"/>
<path fill-rule="evenodd" clip-rule="evenodd" d="M170.9 171.3H23.8999C17.4999 171.3 12.3 166.1 12.3 159.7V72.2001C12.3 65.8001 17.4999 60.6001 23.8999 60.6001H170.9C177.3 60.6001 182.5 65.8001 182.5 72.2001V159.7C182.5 166.1 177.3 171.3 170.9 171.3ZM23.8999 62.3001C18.4999 62.3001 14.1001 66.8001 14.1001 72.2001V159.7C14.1001 165.1 18.4999 169.5 23.8999 169.5H170.9C176.3 169.5 180.7 165.1 180.7 159.7V72.2001C180.7 66.8001 176.3 62.3001 170.9 62.3001H23.8999Z" fill="#CCD0DF"/>
<path d="M36.1001 174.5L2.19994 122.6C-1.40006 117.1 0.199937 109.8 5.69994 106.2L57.6001 72.3C63.1001 68.7 70.5 70.3 74 75.8L107.9 127.7C111.5 133.2 109.9 140.6 104.4 144.1L52.5 178C47 181.6 39.7001 180 36.1001 174.5Z" fill="#ED7966"/>
<path d="M144.3 101.5C130.6 112.2 123 116.7 111.8 117.2L101.1 101C105.9 91.4001 113.333 83.5334 123.4 77.4001L116.3 59.7001L144.9 53.1001C149.233 59.5668 152.167 68.1001 153.7 78.7001C155.8 93.0001 148.9 97.8001 144.3 101.5Z" fill="#05082E"/>
<path fill-rule="evenodd" clip-rule="evenodd" d="M46.6001 144.8C47.2668 145.733 47.1001 146.533 46.1001 147.2C45.0334 147.933 44 147.533 43 146C42.8667 145.8 42.7 145.533 42.5 145.2C42.3 144.8 42.1333 144.533 42 144.4L39.7 140.9L32.7 145.3C31.2333 146.233 30.2001 146.833 29.6001 147.1C28.5334 147.567 27.7999 147.5 27.3999 146.9C27.1332 146.433 27.0334 145.633 27.1001 144.5L27.3999 142.1L27.7 125.7C27.7666 124.3 28.3332 123.233 29.3999 122.5C30.5999 121.767 31.5333 121.9 32.2 122.9L40.8 135.9C40.9334 135.767 41.1332 135.633 41.3999 135.5C43.3332 134.233 44.6334 134.1 45.3 135.1C45.8334 135.9 45.7668 136.633 45.1001 137.3C44.7668 137.633 44 138.2 42.8 139L46.6001 144.8ZM37.7 137.9L31 127.7C31.1333 133.967 31.1333 138.733 31 142L37.7 137.9Z" fill="#FEF8F6"/>
<path fill-rule="evenodd" clip-rule="evenodd" d="M61.3999 117.3C64.4666 121.967 66.0335 125.967 66.1001 129.3C66.1668 132.567 64.7334 135.2 61.8001 137.2C58.6001 139.267 55.2999 139.333 51.8999 137.4C49.3666 135.867 46.9 133.333 44.5 129.8C42.5 126.733 41.5 123.6 41.5 120.4C41.4334 116.667 42.8667 113.833 45.8001 111.9C48.5334 110.1 51.4334 109.833 54.5 111.1C57.1667 112.3 59.4666 114.367 61.3999 117.3ZM62 127.2C61.5334 125 60.4333 122.567 58.7 119.9C56.8333 117.033 54.9668 115.2 53.1001 114.4C51.3001 113.6 49.5334 113.767 47.8001 114.9C45.8667 116.167 44.9668 118.167 45.1001 120.9C45.2335 123.167 45.9999 125.367 47.3999 127.5C49.6666 130.967 51.8333 133.233 53.8999 134.3C55.9666 135.433 57.9334 135.4 59.8001 134.2C62.0001 132.733 62.7334 130.4 62 127.2Z" fill="#FEF8F6"/>
<path fill-rule="evenodd" clip-rule="evenodd" d="M85.3 121.4C84.2334 122.133 83.1999 121.733 82.1999 120.2C82.0666 120 81.8999 119.733 81.6999 119.4C81.4999 119 81.3333 118.767 81.1999 118.7L78.8999 115.1L71.8999 119.5C70.4332 120.433 69.4 121.033 68.8 121.3C67.7334 121.767 67.0001 121.7 66.6001 121.1C66.3334 120.633 66.2334 119.867 66.3 118.8L66.6001 116.3L66.8999 100C66.9665 98.5333 67.5334 97.4333 68.6001 96.7C69.8001 95.9667 70.7332 96.1 71.3999 97.1L80 110.1C80.1333 109.967 80.3334 109.833 80.6001 109.7C82.5334 108.433 83.8333 108.333 84.5 109.4C85.0333 110.133 84.9667 110.867 84.3 111.6C83.9667 111.933 83.2 112.467 82 113.2L85.8 119C86.4667 119.933 86.3 120.733 85.3 121.4ZM76.8999 112.1L70.1999 101.9C70.3333 108.233 70.3667 113 70.3 116.2L76.8999 112.1Z" fill="#FEF8F6"/>
<path d="M116.2 114.5C110.1 119.1 102.1 125.1 98.6002 128.3C97.1002 129.6 93.3001 132.4 91.8001 129.6C91.6001 129.2 91.5001 128.833 91.5001 128.5C91.1667 128.767 90.8 129.067 90.4 129.4C88.9 130.6 86.4001 131.8 85.0001 129.7C84.4001 129 84.4002 128.1 84.6002 127.4C83.3002 128 82.0001 128.3 81.0001 126.9C79.4001 124.6 82.2 122.3 83.7 120.9C85.1 119.433 86.5 118 87.9 116.6C86.2333 117.4 84.6001 118.167 83.0001 118.9C81.3001 119.6 78.7001 119.9 78.0001 117.7C77.2001 115.4 80.4001 113.3 82.0001 112.3C84.1001 111 86.2001 109.9 88.3001 108.7C87.2334 108.367 86.2334 107.967 85.3001 107.5C84.1001 106.9 82.8 106.2 82.2 105.1C80.7 102.5 83.9002 100.9 86.1002 100.9C87.7002 100.9 89.4002 101.3 91.1002 101.4C93.1002 101.533 95.1002 101.467 97.1002 101.2C98.9002 101 102.8 99.3999 106.3 97.7999C110.5 95.8999 115.5 97.1999 118.2 100.9C121.4 105.2 120.5 111.3 116.2 114.5Z" fill="#FEF8F6"/>
<path fill-rule="evenodd" clip-rule="evenodd" d="M86.9999 131.7C86.8666 131.7 86.6999 131.7 86.4999 131.7C85.5999 131.6 84.7999 131.1 84.1999 130.2C83.8666 129.733 83.6667 129.233 83.6 128.7C81.9 129.1 80.9 128.3 80.3 127.4C78.4 124.7 80.9999 122.2 82.4999 120.7C82.6999 120.567 82.8666 120.4 82.9999 120.2L83.6999 119.5C83.5666 119.567 83.4665 119.633 83.3998 119.7C82.6998 120 80.5998 120.8 78.8998 120C77.9998 119.6 77.4 118.9 77.1 118C76.1 114.9 80.0999 112.4 81.4999 111.5C83.0999 110.6 84.6 109.7 86.1 108.9C85.7 108.7 85.2667 108.5 84.8 108.3C83.6 107.6 82.1998 106.9 81.3998 105.5C80.7998 104.4 80.8 103.3 81.3 102.3C82.2 100.8 84.3999 100 85.9999 100C87.0999 100 87.9999 100.2 88.9999 100.3C89.6999 100.4 90.4 100.5 91.1 100.5C93.0334 100.633 94.9999 100.567 96.9999 100.3C97.9999 100.2 100.3 99.5 105.9 97C110.5 94.9 116 96.3 119 100.4C122.4 105.1 121.4 111.8 116.7 115.3C110.6 119.8 102.7 125.8 99.1999 128.9C98.3999 129.7 95.4999 132 93.1999 131.6C92.1999 131.5 91.4999 130.9 90.9999 130C90.2999 130.6 88.6999 131.7 86.9999 131.7ZM84.6 126.5C84.8 126.5 84.9999 126.567 85.1999 126.7C85.4999 126.9 85.5999 127.3 85.4999 127.6C85.2999 128.2 85.3999 128.7 85.6999 129.2C85.9666 129.6 86.3333 129.833 86.8 129.9C87.7 130.1 89 129.4 89.8 128.7C90.1333 128.5 90.4332 128.267 90.6999 128L90.8998 127.8C91.1998 127.6 91.5998 127.5 91.8998 127.6C92.1998 127.8 92.3998 128.1 92.3998 128.5C92.3998 128.7 92.4667 128.9 92.6 129.1C92.9 129.7 93.1999 129.8 93.4999 129.9C94.5999 130.1 96.5999 128.9 97.9999 127.6C101.5 124.4 109.5 118.4 115.7 113.8C119.6 110.9 120.4 105.4 117.5 101.4C115 98 110.5 96.9 106.7 98.6C102 100.7 98.7999 101.9 97.1999 102.1C95.1332 102.367 93.0666 102.433 90.9999 102.3C90.2666 102.233 89.5333 102.167 88.8 102.1C87.8 101.9 86.8999 101.8 85.9999 101.8C84.8999 101.8 83.3998 102.3 82.8998 103.2C82.6998 103.5 82.5999 103.9 82.9999 104.7C83.4999 105.5 84.6 106.1 85.6 106.6C86.6 107.1 87.5 107.5 88.6 107.8C88.9 107.9 89.1999 108.2 89.1999 108.6C89.2999 109 89.1 109.3 88.8 109.5L88.3998 109.7C86.3998 110.8 84.3999 111.9 82.4999 113C81.3999 113.7 78.2 115.7 78.8 117.4C79 117.867 79.2667 118.2 79.6 118.4C80.5 118.7 81.8 118.4 82.6 118.1C84.4 117.3 85.9999 116.5 87.4999 115.8C87.8999 115.6 88.3 115.7 88.6 116.1C88.8 116.4 88.7999 116.9 88.4999 117.2L84.3 121.5C84.1667 121.633 84 121.8 83.8 122C82.1 123.7 80.8 125.1 81.8 126.4C82.1 126.9 82.6999 127.3 84.1999 126.6C84.3332 126.533 84.4667 126.5 84.6 126.5Z" fill="#05082E"/>
<path d="M87.8998 117.5C87.5998 117.5 87.3 117.4 87.1 117.1C86.8 116.7 86.8999 116.2 87.2999 115.9L90.9999 113.2C91.3999 112.9 91.9999 113 92.2999 113.4C92.5999 113.8 92.5 114.4 92.1 114.7L88.3998 117.3C88.1998 117.433 88.0331 117.5 87.8998 117.5Z" fill="#05082E"/>
<path d="M84.6 128.3C84.4 128.3 84.0999 128.2 83.9999 128C83.5999 127.6 83.6999 127 83.9999 126.7L94.9999 116.9C95.3999 116.5 95.9 116.6 96.3 116.9C96.6 117.3 96.5999 117.9 96.1999 118.2L85.1999 128C85.0665 128.2 84.8667 128.3 84.6 128.3Z" fill="#05082E"/>
<path d="M91.5 129.4C91.3 129.4 91.0001 129.3 90.8001 129C90.5001 128.7 90.5999 128.1 90.8999 127.8L98.5 121.2C98.9 120.9 99.4 120.9 99.7 121.3C100.1 121.6 100 122.2 99.7 122.5L92.1001 129.1C91.9001 129.3 91.7 129.4 91.5 129.4Z" fill="#05082E"/>
<path fill-rule="evenodd" clip-rule="evenodd" d="M164.1 158.9H150.2C148.2 158.9 146.6 157.3 146.6 155.4V141.5C146.6 139.5 148.2 137.9 150.2 137.9H164.1C166 137.9 167.6 139.5 167.6 141.5V155.4C167.6 157.3 166 158.9 164.1 158.9ZM150.2 139.7C149.2 139.7 148.4 140.5 148.4 141.5V155.4C148.4 156.3 149.2 157.1 150.2 157.1H164.1C165.1 157.1 165.8 156.3 165.8 155.4V141.5C165.8 140.5 165.1 139.7 164.1 139.7H150.2Z" fill="#FEF8F6"/>
<path d="M63.6001 205.9L47.6999 222.5C47.1999 223.1 46.3001 223.2 45.6001 222.8L10.1001 199.7C9.20005 199.1 9.09991 198 9.69991 197.2C15.0332 188.934 22.6333 188.234 32.5 195.1L41.6001 186.7L63.6001 205.9Z" fill="#303179"/>
<path d="M22.8 207.9L10.1001 199.7C9.20005 199.1 9.09991 198 9.69991 197.2C13.6999 191 19.4001 190.5 24.1001 191.5L28.3 193.3C27.7 198.2 25.8999 203.2 22.8999 207.8C22.8332 207.867 22.8 207.9 22.8 207.9Z" fill="#FEF8F6"/>
<path d="M54.2 215.7L47.7 222.5C47.2 223.1 46.3001 223.2 45.6001 222.8L35.8999 216.4C41.4999 213.5 48.2 213.2 54.2 215.7Z" fill="#FEF8F6"/>
<path fill-rule="evenodd" clip-rule="evenodd" d="M46.4999 223.9C46.0332 223.9 45.5998 223.767 45.1998 223.5L9.6 200.4C8.9 200 8.5999 199.4 8.4999 198.7C8.3999 198 8.5998 197.3 8.8998 196.7C11.1998 193.3 14.0998 191.2 17.6998 190.5C24.0998 189.2 30.4999 192.8 32.4999 194L40.9999 186C41.3999 185.7 41.8998 185.7 42.1998 186L64.1998 205.2C64.3998 205.4 64.4999 205.633 64.4999 205.9C64.4999 206.1 64.3998 206.3 64.1998 206.5L48.3998 223.1C47.8998 223.6 47.1999 223.9 46.4999 223.9ZM20.4999 192C19.6999 192 18.8666 192.067 17.9999 192.2C14.9999 192.8 12.3998 194.7 10.3998 197.7C10.2998 197.9 10.1998 198.2 10.1998 198.4C10.2665 198.6 10.3666 198.767 10.4999 198.9L46.1 222C46.4 222.2 46.8 222.2 47.1 221.9L62.2999 206L41.6998 187.9L33.1999 195.8C32.7999 196.1 32.3999 196.1 31.9999 195.9C31.9999 195.8 26.3999 192 20.4999 192Z" fill="#05082E"/>
<path d="M35.5 197.9C35.3 197.9 35.1334 197.867 35 197.8L32.1001 195.9C31.6001 195.6 31.5001 195 31.8001 194.6C32.1001 194.2 32.6 194.1 33 194.4L35.8999 196.3C36.3999 196.5 36.5 197.1 36.2 197.5C36 197.8 35.8 197.9 35.5 197.9Z" fill="#05082E"/>
<path d="M195.8 197L179 223H153.9C152.9 223 152.2 222.2 152.2 221.2C152.2 210.9 161 208 166.3 207.3L159.6 199.2L179.8 178.2L195.6 194.9C196.2 195.5 196.2 196.4 195.8 197Z" fill="#303179"/>
<path d="M166.1 207.3C168 211.6 169.1 217.6 169.1 223H153.9C152.9 223 152.2 222.2 152.2 221.2C152.2 211 160.8 208.1 166.1 207.3Z" fill="#FEF8F6"/>
<path d="M195.8 197L188.7 207.9C186.4 202.2 186.4 193.8 189.2 188.1L195.6 194.9C196.2 195.5 196.2 196.4 195.8 197Z" fill="#FEF8F6"/>
<path d="M169.6 208.1H166.3C165.8 208.1 165.4 207.7 165.4 207.3C165.4 206.8 165.8 206.4 166.3 206.4H169.6C170.1 206.4 170.5 206.8 170.5 207.3C170.5 207.7 170.1 208.1 169.6 208.1Z" fill="#05082E"/>
<path fill-rule="evenodd" clip-rule="evenodd" d="M153.9 223.9C153.1 223.9 152.5 223.6 152 223C151.6 222.5 151.3 221.9 151.3 221.2C151.3 211.1 159.1 207.8 164.6 206.6L158.9 199.8C158.6 199.4 158.6 198.9 158.9 198.6L179.2 177.6C179.4 177.4 179.6 177.3 179.8 177.3C180.067 177.3 180.3 177.4 180.5 177.6L196.3 194.3C197.1 195.2 197.2 196.5 196.5 197.5L179.7 223.5C179.6 223.8 179.3 223.9 179 223.9H153.9ZM160.8 199.2L167 206.7C167.2 206.9 167.3 207.3 167.2 207.6C167 207.9 166.8 208.1 166.5 208.1C161.5 208.9 153.1 211.5 153.1 221.2C153.1 221.4 153.2 221.7 153.4 221.9C153.467 222.033 153.633 222.1 153.9 222.1C153.9 222.1 162.1 222.1 178.5 222.1L195 196.5C195.3 196.2 195.2 195.8 195 195.5L179.8 179.5L160.8 199.2Z" fill="#05082E"/>
</svg>
