<svg xmlns="http://www.w3.org/2000/svg" height="1200" width="1600" version="1.1" xmlns:xlink="http://www.w3.org/1999/xlink" xmlns:svgjs="http://svgjs.com/svgjs"><rect fill="transparent" width="1600" height="1200"></rect><g><path d="M975.8 1011.3V653.4C975.8 631.1 993.9 612.9 1016.3 612.9H1285.8C1308.1 612.9 1326.3 631 1326.3 653.4V1011.3C1326.3 1033.6 1308.2 1051.8 1285.8 1051.8H1016.3C993.9 1051.7 975.8 1033.6 975.8 1011.3Z" fill="#f5cac2" opacity="1" stroke-width="4" stroke="#000000"></path></g><g><path d="M1225.3 452.7V610.9" stroke="#000000" stroke-width="4" stroke-linecap="round" stroke-linejoin="round" opacity="1" fill="none"></path><path d="M1225.8 593.4C1232.48 593.4 1237.9 587.98 1237.9 581.3 1237.9 574.62 1232.48 569.2 1225.8 569.2 1219.12 569.2 1213.7 574.62 1213.7 581.3 1213.7 587.98 1219.12 593.4 1225.8 593.4Z" fill="#f5cac2" opacity="1" stroke-width="4" stroke="#000000"></path></g><g><path d="M708.9 872.9H1002" stroke="#000000" stroke-width="4" stroke-linecap="round" stroke-linejoin="round" opacity="1" fill="none"></path><path d="M977.3 909.8C997.96 909.8 1014.7 893.05 1014.7 872.4 1014.7 851.75 997.96 835 977.3 835 956.65 835 939.9 851.75 939.9 872.4 939.9 893.05 956.65 909.8 977.3 909.8Z" fill="#f0b7db" opacity="1" stroke-width="4" stroke="#000000"></path></g><g><path d="M792.1 872.9V951.1C792.1 966.8 804.8 979.5 820.5 979.5H975" stroke="#000000" stroke-width="4" stroke-linecap="round" stroke-linejoin="round" opacity="1" fill="none"></path><path d="M792.6 884.5C799.28 884.5 804.7 879.08 804.7 872.4 804.7 865.72 799.28 860.3 792.6 860.3 785.92 860.3 780.5 865.72 780.5 872.4 780.5 879.08 785.92 884.5 792.6 884.5Z" fill="#f5cac2" opacity="1" stroke-width="4" stroke="#000000"></path></g><g><path d="M1185 434.2V533.7C1185 549.4 1172.3 562.1 1156.6 562.1H1002" stroke="#000000" stroke-width="4" stroke-linecap="round" stroke-linejoin="round" opacity="1" fill="none"></path></g><g><path d="M619.1 877.8V977.3C619.1 993 606.4 1005.7 590.7 1005.7H436.1" stroke="#000000" stroke-width="4" stroke-linecap="round" stroke-linejoin="round" opacity="1" fill="none"></path></g><g><path d="M355.5 632.2V731.7C355.5 747.4 368.2 760.1 383.9 760.1H538.4" stroke="#000000" stroke-width="4" stroke-linecap="round" stroke-linejoin="round" opacity="1" fill="none"></path></g><g><path d="M452.4 632.2H666.1C688.4 632.2 706.6 650.3 706.6 672.7V886.4C706.6 908.7 688.5 926.9 666.1 926.9H452.4C430.1 926.9 411.9 908.8 411.9 886.4V672.6C411.9 650.3 430 632.2 452.4 632.2Z" fill="#f5cac2" opacity="1" stroke-width="4" stroke="#000000"></path></g><g><path d="M1250.91 812.44H1183.93C1177.34 812.44 1172.06 807.17 1172.06 800.58 1172.06 799.26 1172.33 797.67 1172.86 796.36L1205.03 709.33C1207.4 703.27 1204.24 696.41 1197.91 694.04 1193.42 692.46 1188.68 693.51 1185.25 696.68L1043.9 838.02C1039.16 842.77 1039.16 850.15 1043.9 854.9 1046.01 857.01 1049.18 858.33 1052.34 858.33H1119.32C1125.92 858.33 1131.19 863.6 1131.19 870.19 1131.19 871.51 1130.93 873.09 1130.4 874.41L1098.23 961.43C1095.85 967.5 1099.02 974.36 1105.35 976.73 1109.83 978.31 1114.58 977.26 1118.01 974.09L1259.35 832.75C1264.1 828 1264.1 820.62 1259.35 815.87 1256.98 813.76 1254.08 812.44 1250.91 812.44Z" fill="#ffffff" opacity="1" stroke-width="4" stroke="#000000"></path></g><g><path d="M605.77 829.22L624.88 719.28 514.94 738.39 540.48 763.93 494.13 810.11 534.05 850.03 580.23 803.85 605.77 829.22Z" fill="#ffffff" opacity="1" stroke-width="4" stroke="#000000"></path></g><g><path d="M1293.7 685.2H1401.5C1423.8 685.2 1423.1 703.6 1423.1 726L1442 810.6V833.5C1442 855.8 1423.9 874 1401.5 874H1293.7C1271.4 874 1253.2 855.9 1253.2 833.5V810.6L1263.6 723.1C1263.7 700.8 1271.4 685.2 1293.7 685.2Z" fill="#f0b7db" opacity="1" stroke-width="4" stroke="#000000"></path><path d="M1293.7 662.3H1401.5C1423.8 662.3 1442 680.4 1442 702.8V810.6C1442 832.9 1423.9 851.1 1401.5 851.1H1293.7C1271.4 851.1 1253.2 833 1253.2 810.6V702.7C1253.3 680.4 1271.4 662.3 1293.7 662.3Z" fill="#303179" opacity="1" stroke-width="4" stroke="#000000"></path></g><g><path d="M581.7 498.2H696.3" stroke="#000000" stroke-width="4" stroke-linecap="round" stroke-linejoin="round" opacity="1" fill="none"></path></g><g><path d="M1286.31 747.33C1308.45 747.33 1300.49 802.94 1319.55 802.94 1334.01 802.94 1328.87 762.43 1347.92 762.43 1384.26 762.43 1371.84 716.77 1409.54 716.77" stroke="#000000" stroke-width="4" stroke-linecap="round" opacity="1" fill="none"></path><path d="M1286.08 754.88C1290.25 754.88 1293.63 751.5 1293.63 747.33 1293.63 743.16 1290.25 739.78 1286.08 739.78 1281.91 739.78 1278.53 743.16 1278.53 747.33 1278.53 751.5 1281.91 754.88 1286.08 754.88Z" fill="#ffffff" opacity="1" stroke-width="4" stroke="#000000"></path><path d="M1347.88 769.93C1352.05 769.93 1355.43 766.55 1355.43 762.38 1355.43 758.21 1352.05 754.83 1347.88 754.83 1343.71 754.83 1340.33 758.21 1340.33 762.38 1340.33 766.55 1343.71 769.93 1347.88 769.93Z" fill="#ffffff" opacity="1" stroke-width="4" stroke="#000000"></path><path d="M1409.49 724.27C1413.66 724.27 1417.04 720.9 1417.04 716.73 1417.04 712.56 1413.66 709.18 1409.49 709.18 1405.32 709.18 1401.95 712.56 1401.95 716.73 1401.95 720.9 1405.32 724.27 1409.49 724.27Z" fill="#ffffff" opacity="1" stroke-width="4" stroke="#000000"></path></g><g><path d="M706.68 226.57L764.98 226.57C771.08 226.57 775.99 231.48 775.99 237.57L775.99 410.42C775.99 416.52 771.08 421.43 764.98 421.43L673.23 421.43" stroke="#000000" stroke-width="4" stroke-linecap="round" stroke-linejoin="round" opacity="1" fill="none"></path><path d="M698.53 226.35C698.53 235.41 705.87 242.75 714.92 242.75 723.98 242.75 731.32 235.41 731.32 226.35 731.32 217.29 723.98 209.96 714.92 209.96 705.87 209.96 698.53 217.29 698.53 226.35Z" fill="#f0b7db" opacity="1" stroke-width="4" stroke="#000000"></path><path d="M770.46 373.16C770.46 376.09 772.84 378.47 775.77 378.47 778.7 378.47 781.07 376.09 781.07 373.16 781.07 370.23 778.7 367.86 775.77 367.86 772.84 367.86 770.46 370.23 770.46 373.16Z" fill="#f0b7db" opacity="1" stroke-width="4" stroke="#000000"></path></g><g><path d="M291.8 927.9H244.6C232.8 927.9 223.2 918.3 223.2 906.5V827.8L239.6 817.6 206.8 797.2 239.6 776.8 206.8 756.4 223.2 746.2V671" stroke="#000000" stroke-width="4" stroke-linecap="round" stroke-linejoin="round" opacity="1" fill="none"></path><path d="M270.9 939.9C277.58 939.9 283 934.48 283 927.8 283 921.12 277.58 915.7 270.9 915.7 264.22 915.7 258.8 921.12 258.8 927.8 258.8 934.48 264.22 939.9 270.9 939.9Z" fill="#f0b7db" opacity="1" stroke-width="4" stroke="#000000"></path></g><g><path d="M707 424.4H1005.6C1027.9 424.4 1016.1 443.7 1016.1 466.1L1046.1 739.2V763.5C1046.1 785.8 1028 804 1005.6 804H707C684.7 804 666.5 785.9 666.5 763.5V743.1L683.8 465.4C683.8 443 684.6 424.4 707 424.4Z" fill="#f0b7db" opacity="1" stroke-width="4" stroke="#000000"></path><path d="M707 400.1H1005.6C1027.9 400.1 1046.1 418.2 1046.1 440.6V739.2C1046.1 761.5 1028 779.7 1005.6 779.7H707C684.7 779.7 666.5 761.6 666.5 739.2V440.5C666.5 418.2 684.6 400.1 707 400.1Z" fill="#ffffff" opacity="1" stroke-width="4" stroke="#000000"></path></g><g><path d="M292.97 666.13C276.14 590.65 290.83 499.83 321.55 496.18 350.7 492.67 360.37 565.8 351.56 584.85 344.9 599.24 332.15 584.56 344.97 554.05 356.72 526.19 391.09 469.11 423.32 470.54 455.55 471.97 427.69 529.91 427.69 529.91L554.46 483" stroke="#000000" stroke-width="4" stroke-linecap="round" stroke-linejoin="round" opacity="1" fill="none"></path></g><g><path d="M1112.7 294H990.3L976.3 271.6 948.5 316.5 920.6 271.6 892.7 316.5 878.7 294H775.8" stroke="#000000" stroke-width="4" stroke-linecap="round" stroke-linejoin="round" opacity="1" fill="none"></path></g><g><path d="M1190.11 479.43C1211.84 479.43 1229.47 461.8 1229.47 440.08 1229.47 418.35 1211.84 400.72 1190.11 400.72 1168.39 400.72 1150.76 418.35 1150.76 440.08 1150.76 461.8 1168.39 479.43 1190.11 479.43Z" fill="#3235ff" opacity="1" stroke-width="4" stroke="#000000"></path></g><g><path d="M206.7 357.5H564.6C586.9 357.5 539.6 378.7 539.6 401.1L605.1 643.2V667.5C605.1 689.8 587 708 564.6 708H206.7C184.4 708 166.2 689.9 166.2 667.5V647.6L199.7 401.1C199.7 378.8 184.4 357.5 206.7 357.5Z" fill="#f0b7db" opacity="1" stroke-width="4" stroke="#000000"></path><path d="M206.7 333.2H564.6C586.9 333.2 605.1 351.3 605.1 373.7V643.2C605.1 665.5 587 683.7 564.6 683.7H206.7C184.4 683.7 166.2 665.6 166.2 643.2V373.7C166.2 351.3 184.4 333.2 206.7 333.2Z" fill="#3235ff" opacity="1" stroke-width="4" stroke="#000000"></path></g><g><path d="M1139.6 218.7H1371.3C1393.6 218.7 1382.1 235.8 1382.1 258.2L1411.8 466.6V490.9C1411.8 513.2 1393.7 531.4 1371.3 531.4H1139.6C1117.3 531.4 1099.1 513.3 1099.1 490.9V466.6L1142.5 271.7C1142.5 249.3 1117.2 218.7 1139.6 218.7Z" fill="#f0b7db" opacity="1" stroke-width="4" stroke="#000000"></path><path d="M1139.1 194.4H1370.8C1393.1 194.4 1411.3 212.5 1411.3 234.9V466.6C1411.3 488.9 1393.2 507.1 1370.8 507.1H1139.1C1116.8 507.1 1098.6 489 1098.6 466.6V234.8C1098.7 212.5 1116.8 194.4 1139.1 194.4Z" fill="#3235ff" opacity="1" stroke-width="4" stroke="#000000"></path></g><g><path d="M282.1 413.94L236.16 532.94 353.59 646.59 512.75 549.66 500.45 484.37 436.22 426.13 282.1 413.94Z" stroke="#000000" stroke-width="4" opacity="1" fill="none"></path><path d="M286.31 418.46L341.29 501.72 353.59 641.22" stroke="#000000" stroke-width="4" opacity="1" fill="none"></path><path d="M236.16 532.94L341.29 501.72 493.2 484.37" stroke="#000000" stroke-width="4" opacity="1" fill="none"></path><path d="M431.17 428.97L343.6 497.2" stroke="#000000" stroke-width="4" opacity="1" fill="none"></path><path d="M348.33 505.93L507.5 546.61" stroke="#000000" stroke-width="4" stroke-linecap="round" stroke-linejoin="round" opacity="1" fill="none"></path><path d="M236.16 545.56C242.9 545.56 248.36 540.1 248.36 533.36 248.36 526.63 242.9 521.17 236.16 521.17 229.43 521.17 223.97 526.63 223.97 533.36 223.97 540.1 229.43 545.56 236.16 545.56Z" fill="#ffffff" opacity="1" stroke-width="4" stroke="#000000"></path><path d="M341.29 513.92C348.03 513.92 353.49 508.46 353.49 501.72 353.49 494.98 348.03 489.53 341.29 489.53 334.55 489.53 329.1 494.98 329.1 501.72 329.1 508.46 334.55 513.92 341.29 513.92Z" fill="#ffffff" opacity="1" stroke-width="4" stroke="#000000"></path><path d="M517.44 560.93C523.67 558.35 526.62 551.21 524.04 544.99 521.46 538.78 514.33 535.81 508.11 538.4 501.88 540.98 498.93 548.1 501.5 554.33 504.08 560.55 511.22 563.5 517.44 560.93Z" fill="#ffffff" opacity="1" stroke-width="4" stroke="#000000"></path><path d="M353.59 658.78C360.33 658.78 365.79 653.32 365.79 646.59 365.79 639.85 360.33 634.39 353.59 634.39 346.85 634.39 341.4 639.85 341.4 646.59 341.4 653.32 346.85 658.78 353.59 658.78Z" fill="#ffffff" opacity="1" stroke-width="4" stroke="#000000"></path><path d="M500.45 496.57C507.19 496.57 512.65 491.11 512.65 484.37 512.65 477.64 507.19 472.18 500.45 472.18 493.71 472.18 488.26 477.64 488.26 484.37 488.26 491.11 493.71 496.57 500.45 496.57Z" fill="#ffffff" opacity="1" stroke-width="4" stroke="#000000"></path><path d="M282.1 426.13C288.84 426.13 294.3 420.68 294.3 413.94 294.3 407.2 288.84 401.74 282.1 401.74 275.37 401.74 269.91 407.2 269.91 413.94 269.91 420.68 275.37 426.13 282.1 426.13Z" fill="#ffffff" opacity="1" stroke-width="4" stroke="#000000"></path><path d="M436.22 438.33C442.96 438.33 448.42 432.87 448.42 426.13 448.42 419.4 442.96 413.94 436.22 413.94 429.48 413.94 424.03 419.4 424.03 426.13 424.03 432.87 429.48 438.33 436.22 438.33Z" fill="#ffffff" opacity="1" stroke-width="4" stroke="#000000"></path></g><g><path d="M1253.2 249.3C1213.5 250.3 1182.2 283.2 1183.1 322.8 1183.6 344.4 1193.9 364.7 1211 377.9 1222.1 386.4 1228.6 399.5 1228.7 413.4L1232.5 421.4H1274.9L1281.2 413.4C1281.2 399.6 1287.6 386.5 1298.6 378.1 1330.1 354 1336.2 309 1312.1 277.4 1298.1 259.2 1276.2 248.7 1253.2 249.3Z" fill="#ffffff" opacity="1" stroke-width="4" stroke="#000000"></path><path d="M1228.7 413.5V431.8C1228.7 446.3 1240.4 458 1254.9 458 1269.4 458 1281.1 446.3 1281.1 431.8V413.5H1228.7Z" fill="#ff7a61" opacity="1" stroke-width="4" stroke="#000000"></path><path d="M1228.7 413.4H1281.2" stroke="#000000" stroke-width="4" stroke-linecap="round" stroke-linejoin="round" opacity="1" fill="none"></path><path d="M1228.7 427.9H1281.1" stroke="#000000" stroke-width="4" stroke-linecap="round" stroke-linejoin="round" opacity="1" fill="none"></path><path d="M1246.1 413.4V392.5C1246.1 378.5 1240.6 365 1230.7 355.1 1223.2 347.6 1219.1 337.5 1219.1 326.9 1219.1 319.4 1225.2 313.4 1232.6 313.4 1240.1 313.4 1246.1 319.5 1246.1 326.9V334.7C1246.1 339.5 1250 343.4 1254.8 343.4 1259.6 343.4 1263.5 339.5 1263.5 334.7V326.9C1263.5 319.4 1269.6 313.4 1277 313.4H1277.2C1284.7 313.4 1290.7 319.5 1290.7 326.9 1290.7 337.5 1286.5 347.7 1279 355.2 1269.1 365.2 1263.5 378.6 1263.5 392.7L1263.6 413.5" stroke="#000000" stroke-width="4" stroke-linecap="round" stroke-linejoin="round" opacity="1" fill="none"></path></g><g><path d="M315.41 295.32V194.08C315.41 183.5 323.93 174.98 334.51 174.98H634.65C645.23 174.98 653.76 183.5 653.76 194.08V353.4" stroke="#000000" stroke-width="4" stroke-linecap="round" stroke-linejoin="round" opacity="1" fill="none"></path><path d="M315.02 309.48C330.75 309.48 343.49 296.74 343.49 281.01 343.49 265.29 330.75 252.54 315.02 252.54 299.3 252.54 286.56 265.29 286.56 281.01 286.56 296.74 299.3 309.48 315.02 309.48Z" fill="#f0b7db" opacity="1" stroke-width="4" stroke="#000000"></path><path d="M569.95 184.57C575.03 184.57 579.16 180.44 579.16 175.36 579.16 170.27 575.03 166.15 569.95 166.15 564.86 166.15 560.74 170.27 560.74 175.36 560.74 180.44 564.86 184.57 569.95 184.57Z" fill="#f0b7db" opacity="1" stroke-width="4" stroke="#000000"></path></g><g><path d="M852.99 589.98V479.09C791.77 479.09 742.11 528.75 742.11 589.9L852.99 589.98Z" fill="#ff7a61" opacity="1" stroke-width="4" stroke="#000000"></path><path d="M852.99 589.98L943.68 653.67C956.86 635.01 963.88 612.72 963.88 589.9L852.99 589.98Z" fill="#303179" opacity="1" stroke-width="4" stroke="#000000"></path><path d="M867.57 732.79C903.66 732.79 937.51 715.21 958.25 685.67L867.57 621.98V732.79Z" fill="#cecece" opacity="1" stroke-width="4" stroke="#000000"></path><path d="M903.89 491.5C887.85 483.64 870.65 479.01 852.99 479.09V589.98L903.89 491.5Z" fill="#ff7a61" opacity="1" stroke-width="4" stroke="#000000"></path><path d="M963.88 589.98C963.88 548.41 941.36 509.01 903.58 491.35L852.92 589.98H963.88Z" fill="#303179" opacity="1" stroke-width="4" stroke="#000000"></path><path d="M852.99 589.98L742.11 589.82C742.11 651.05 791.84 700.79 853.07 700.79L852.99 589.98Z" fill="#f5cac2" opacity="1" stroke-width="4" stroke="#000000"></path></g><g><path d="M453.3 137.9H625.8C648.1 137.9 622 162.9 622 185.3L666 325.4C666 347.7 657.5 391.3 635.1 391.3H436.4C414.1 391.3 412.8 353.1 412.8 330.7L438.7 183.1C438.7 161 430.9 137.9 453.3 137.9Z" fill="#f0b7db" opacity="1" stroke-width="4" stroke="#000000"></path><path d="M453.3 113.6H625.8C648.1 113.6 666.3 131.7 666.3 154.1V326.6C666.3 348.9 648.2 367.1 625.8 367.1H453.3C431 367.1 412.8 349 412.8 326.6V154.1C412.8 131.7 430.9 113.6 453.3 113.6Z" fill="#303179" opacity="1" stroke-width="4" stroke="#000000"></path></g><g><path d="M491.16 216.67C499.28 216.67 505.87 210.08 505.87 201.96 505.87 193.84 499.28 187.25 491.16 187.25 483.04 187.25 476.45 193.84 476.45 201.96 476.45 210.08 483.04 216.67 491.16 216.67Z" stroke="#000000" stroke-width="4" stroke-linecap="round" stroke-linejoin="round" opacity="1" fill="none"></path><path d="M580.2 305.71C588.32 305.71 594.91 299.12 594.91 291 594.91 282.88 588.32 276.28 580.2 276.28 572.08 276.28 565.48 282.88 565.48 291 565.48 299.12 572.08 305.71 580.2 305.71Z" stroke="#000000" stroke-width="4" stroke-linecap="round" stroke-linejoin="round" opacity="1" fill="none"></path><path d="M594.91 187.25L476.45 305.71" stroke="#000000" stroke-width="4" stroke-linecap="round" stroke-linejoin="round" opacity="1" fill="none"></path></g><g><path d="M334.8 835.4H507.3C529.6 835.4 533.2 848.7 533.2 871.1L547.8 1024.2V1048.4C547.8 1070.7 529.7 1088.9 507.3 1088.9H334.8C312.5 1088.9 294.3 1070.8 294.3 1048.4V1024.2L319.1 876.6C319.1 854.2 312.4 835.4 334.8 835.4Z" fill="#f0b7db" opacity="1" stroke-width="4" stroke="#000000"></path><path d="M334.8 811.2H507.3C529.6 811.2 547.8 829.3 547.8 851.7V1024.2C547.8 1046.5 529.7 1064.7 507.3 1064.7H334.8C312.5 1064.7 294.3 1046.6 294.3 1024.2V851.6C294.3 829.3 312.4 811.2 334.8 811.2Z" fill="#303179" opacity="1" stroke-width="4" stroke="#000000"></path></g><g><path d="M395.15 984.86C400.23 987.77 403.56 992.96 404.28 998.78 404.7 1003.03 408.02 1006.46 412.17 1007.08L412.49 1007.19C416.64 1007.71 420.69 1005.32 422.14 1001.27 423.08 998.98 424.32 996.8 426.09 994.93 430.76 990.05 437.72 988.08 444.26 989.95 446.65 990.68 448.93 991.82 450.91 993.38 454.33 996.08 458.9 996.08 462.33 993.38L462.54 993.27C465.96 990.57 467.11 986 465.34 982.06 461.29 972.82 465.44 961.81 474.69 957.76 476.35 957.03 478.11 956.51 479.98 956.31 484.24 955.89 487.67 952.57 488.29 948.41L488.39 948.1C488.91 943.95 486.52 939.9 482.47 938.44 480.19 937.51 478.01 936.26 476.14 934.5 471.26 929.83 469.29 922.87 471.15 916.33 471.88 913.94 473.02 911.65 474.58 909.68 477.18 906.25 477.18 901.69 474.58 898.26 474.58 898.26 474.48 898.16 474.48 898.05 471.78 894.62 467.21 893.48 463.26 895.25 454.02 899.3 443.01 895.25 438.97 885.9 438.13 884.24 437.72 882.37 437.41 880.61 436.99 876.35 433.67 872.92 429.52 872.3L429.2 872.2C425.05 871.68 421 874.06 419.55 878.11 418.61 880.4 417.37 882.58 415.6 884.45 410.93 889.33 403.97 891.3 397.43 889.43 395.04 888.71 392.76 887.56 390.78 886.01 387.36 883.31 382.79 883.31 379.36 886.01L379.15 886.11C375.73 888.81 374.69 893.38 376.45 897.22 380.5 906.46 376.45 917.47 367.11 921.52 365.45 922.35 363.58 922.77 361.81 923.08 357.56 923.49 354.13 926.81 353.51 930.97L353.4 931.28C352.88 935.43 355.27 939.48 359.32 940.94 361.61 941.87 363.79 943.12 365.65 944.88 370.64 949.56 372.61 956.51 370.74 963.16 370.02 965.55 368.87 967.83 367.32 969.8 364.62 973.23 364.62 977.8 367.32 981.23L367.42 981.43C370.12 984.86 374.59 985.9 378.53 984.24 383.83 981.64 389.95 981.95 395.15 984.86ZM401.58 936.06C405.01 919.75 424.53 914.46 435.85 926.61 439.9 931.07 441.56 937.2 440.42 943.12 436.99 959.42 417.37 964.72 406.15 952.57 402 948.1 400.23 941.98 401.58 936.06Z" fill="#ffffff" opacity="1" stroke-width="4" stroke="#000000"></path></g></svg>