<svg xmlns="http://www.w3.org/2000/svg" height="1296" width="1546" version="1.1" xmlns:xlink="http://www.w3.org/1999/xlink" xmlns:svgjs="http://svgjs.com/svgjs"><rect fill="transparent" width="1546" height="1296"></rect><g><path d="M1379 1005.4L1328.9 999.61 1336.2 956.31C1336.4 955.31 1335.8 954.41 1334.9 954.11 1334 953.81 1333 954.21 1332.5 955.01L1312.5 990.61 1279.2 954.51C1278.5 953.81 1277.4 953.61 1276.6 954.21 1275.8 954.81 1275.5 955.81 1275.9 956.71L1296.8 1000.5 1261.3 1008.5C1260.4 1008.7 1259.7 1009.5 1259.7 1010.5 1259.7 1011.5 1260.4 1012.3 1261.3 1012.4L1297.4 1018.9 1282.9 1073.7C1282.6 1074.7 1283.1 1075.7 1284.1 1076.1 1284.3 1076.2 1284.6 1076.3 1284.9 1076.3 1285.6 1076.3 1286.3 1075.9 1286.6 1075.3L1313.9 1028.2 1338.4 1054.8C1339 1055.5 1340.1 1055.7 1340.9 1055.2 1341.7 1054.7 1342.1 1053.7 1341.7 1052.8L1329.4 1018.4 1379 1009.3C1380 1009.1 1380.7 1008.3 1380.6 1007.3 1380.5 1006.3 1380 1005.5 1379 1005.4Z" fill="#ed7966" opacity="1" stroke-width="4" stroke="#000000"></path></g><g><path d="M1121.7 230.4C1129.6 230.4 1136 224 1136 216.1 1136 208.2 1129.6 201.8 1121.7 201.8 1113.8 201.8 1107.4 208.2 1107.4 216.1 1107.4 224 1113.8 230.4 1121.7 230.4Z" fill="#fef8f6" opacity="1" stroke-width="4" stroke="#000000"></path></g><g><path d="M1174.8 802.4C1204.5 823.9 1271.5 798.6 1312.9 773.8 1358.9 746.2 1361 716.5 1342.6 716.5 1317 716.5 1253.6 795.3 1290.4 812.6 1320.8 827 1376.3 801.4 1390.6 817.7 1404.9 834 1411.1 869.9 1450.9 888.3" stroke="#000000" stroke-width="4" stroke-linecap="round" stroke-linejoin="round" opacity="1" fill="none"></path></g><g><path d="M303.4 1036.4C312.46 1036.4 319.8 1029.06 319.8 1020 319.8 1010.94 312.46 1003.6 303.4 1003.6 294.34 1003.6 287 1010.94 287 1020 287 1029.06 294.34 1036.4 303.4 1036.4Z" fill="#303179" opacity="1" stroke-width="4" stroke="#000000"></path></g><g><path d="M1150.8 1118.2C1160.68 1118.2 1168.7 1110.19 1168.7 1100.3 1168.7 1090.41 1160.68 1082.4 1150.8 1082.4 1140.91 1082.4 1132.9 1090.41 1132.9 1100.3 1132.9 1110.19 1140.91 1118.2 1150.8 1118.2Z" fill="#61ccff" opacity="1" stroke-width="4" stroke="#000000"></path></g><g><path d="M162.36 513.6C172.8 513.6 181.26 505.14 181.26 494.7 181.26 484.26 172.8 475.8 162.36 475.8 151.92 475.8 143.46 484.26 143.46 494.7 143.46 505.14 151.92 513.6 162.36 513.6Z" fill="#61ccff" opacity="1" stroke-width="4" stroke="#000000"></path></g><g><path d="M248.1 642.93C259.07 635.02 261.56 619.71 253.65 608.74 245.73 597.76 230.42 595.27 219.45 603.19 208.47 611.1 205.99 626.41 213.9 637.39 221.81 648.36 237.12 650.85 248.1 642.93Z" fill="#ffa0dc" opacity="1" stroke-width="4" stroke="#000000"></path></g><g><path d="M107 856.3C146.5 821.5 219.7 774.5 281 814.4 281 814.4 220.7 735.6 251.4 698.8 291.5 650.6 409.5 781.6 391.8 804.1 373.6 827.1 332.9 724.2 354.2 667 371 622 451.2 689.5 464.1 729.4" stroke="#000000" stroke-width="4" stroke-linecap="round" stroke-linejoin="round" opacity="1" fill="none"></path></g><g><path d="M1183 322.4H1099.1C1099.1 322.4 1089.4 372 1118.6 398.3H1202.5C1173.3 372 1183 322.4 1183 322.4Z" fill="#ffa0dc" opacity="1" stroke-width="4" stroke="#000000"></path><path d="M1065.4 279.5H981.5C981.5 279.5 971.8 329.1 1001 355.4H1084.9C1055.6 329.1 1065.4 279.5 1065.4 279.5Z" fill="#f5cac2" opacity="1" stroke-width="4" stroke="#000000"></path></g><g><path d="M858.5 161.5H945C964.9 161.5 981 177.6 981 197.5V199.1C981 219 964.9 235.1 945 235.1H858.5C838.6 235.1 822.5 219 822.5 199.1V197.5C822.5 177.6 838.6 161.5 858.5 161.5Z" fill="#ed7966" opacity="1" stroke-width="4" stroke="#000000"></path><path d="M874.3 203.1C880.21 203.1 885 198.31 885 192.4 885 186.49 880.21 181.7 874.3 181.7 868.39 181.7 863.6 186.49 863.6 192.4 863.6 198.31 868.39 203.1 874.3 203.1Z" stroke="#000000" stroke-width="4" stroke-linecap="round" stroke-linejoin="round" opacity="1" fill="none"></path><path d="M882.9 198.9L870 215" stroke="#000000" stroke-width="4" stroke-linecap="round" stroke-linejoin="round" opacity="1" fill="none"></path><path d="M907.6 203.1C913.51 203.1 918.3 198.31 918.3 192.4 918.3 186.49 913.51 181.7 907.6 181.7 901.69 181.7 896.9 186.49 896.9 192.4 896.9 198.31 901.69 203.1 907.6 203.1Z" stroke="#000000" stroke-width="4" stroke-linecap="round" stroke-linejoin="round" opacity="1" fill="none"></path><path d="M916.2 198.9L903.3 215" stroke="#000000" stroke-width="4" stroke-linecap="round" stroke-linejoin="round" opacity="1" fill="none"></path><path d="M936.6 190.8V205.9" stroke="#000000" stroke-width="4" stroke-linecap="round" stroke-linejoin="round" opacity="1" fill="none"></path><path d="M944.1 198.4H929.1" stroke="#000000" stroke-width="4" stroke-linecap="round" stroke-linejoin="round" opacity="1" fill="none"></path></g><g><path d="M1063.8 527H925.8C918.2 527 912 520.8 912 513.2V416.1C912 408.5 918.2 402.3 925.8 402.3H963.1C968 402.3 972.5 404.9 975 409.1L979.3 416.4C981.8 420.6 986.3 423.2 991.2 423.2H1063.9C1071.5 423.2 1077.7 429.4 1077.7 437V513.2C1077.7 520.8 1071.5 527 1063.8 527 1063.9 527 1063.9 527 1063.8 527Z" fill="#61ccff" opacity="1" stroke-width="4" stroke="#000000"></path></g><g><path d="M488.7 757.1H725.7C742.7 757.1 756.6 770.9 756.6 788V1025C756.6 1042 742.8 1055.9 725.7 1055.9H488.7C471.7 1055.9 457.8 1042.1 457.8 1025V788C457.8 770.9 471.6 757.1 488.7 757.1Z" fill="#61ccff" opacity="1" stroke-width="4" stroke="#000000"></path><path d="M496.7 998.5H717.6" stroke="#000000" stroke-width="4" stroke-linecap="round" stroke-linejoin="round" opacity="1" fill="none"></path><path d="M496.7 998.5V822.6" stroke="#000000" stroke-width="4" stroke-linecap="round" stroke-linejoin="round" opacity="1" fill="none"></path><path d="M486.5 901.3C525.4 901.3 522.3 954.5 549.9 954.5 590.8 954.5 598 841 644 841 690 841 683.9 905.4 715.6 905.4" stroke="#000000" stroke-width="4" stroke-linecap="round" stroke-linejoin="round" opacity="1" fill="none"></path><path d="M606.1 889.1C615.16 889.1 622.5 881.76 622.5 872.7 622.5 863.64 615.16 856.3 606.1 856.3 597.04 856.3 589.7 863.64 589.7 872.7 589.7 881.76 597.04 889.1 606.1 889.1Z" fill="#fef8f6" opacity="1" stroke-width="4" stroke="#000000"></path><path d="M537.6 997.5V988.3" stroke="#000000" stroke-width="4" stroke-linecap="round" stroke-linejoin="round" opacity="1" fill="none"></path><path d="M578.5 997.5V988.3" stroke="#000000" stroke-width="4" stroke-linecap="round" stroke-linejoin="round" opacity="1" fill="none"></path><path d="M619.4 997.5V988.3" stroke="#000000" stroke-width="4" stroke-linecap="round" stroke-linejoin="round" opacity="1" fill="none"></path><path d="M660.3 997.5V988.3" stroke="#000000" stroke-width="4" stroke-linecap="round" stroke-linejoin="round" opacity="1" fill="none"></path><path d="M701.3 997.5V988.3" stroke="#000000" stroke-width="4" stroke-linecap="round" stroke-linejoin="round" opacity="1" fill="none"></path></g><g><path d="M328.49 599.45C319.61 599.44 311.09 595.91 304.81 589.63 298.53 583.35 295 574.83 294.99 565.96V248.49C295 239.62 298.53 231.1 304.81 224.82 311.09 218.54 319.61 215.01 328.49 215H740.36C749.24 215.01 757.75 218.54 764.03 224.82 770.31 231.1 773.84 239.62 773.86 248.49V565.96C773.84 574.83 770.31 583.35 764.03 589.63 757.75 595.91 749.24 599.44 740.36 599.45H328.49Z" fill="#cecece" opacity="1" stroke-width="4" stroke="#000000"></path><path d="M295.01 286.96H775.33" stroke="#000000" stroke-width="4" opacity="1" fill="none"></path><path d="M330.23 262.98C337.27 262.98 342.97 257.28 342.97 250.24 342.97 243.2 337.27 237.5 330.23 237.5 323.2 237.5 317.49 243.2 317.49 250.24 317.49 257.28 323.2 262.98 330.23 262.98Z" fill="#e1e1e1" opacity="1" stroke-width="4" stroke="#000000"></path><path d="M368.84 262.98C375.87 262.98 381.58 257.28 381.58 250.24 381.58 243.2 375.87 237.5 368.84 237.5 361.8 237.5 356.1 243.2 356.1 250.24 356.1 257.28 361.8 262.98 368.84 262.98Z" fill="#e1e1e1" opacity="1" stroke-width="4" stroke="#000000"></path><path d="M407.43 262.98C414.47 262.98 420.17 257.28 420.17 250.24 420.17 243.2 414.47 237.5 407.43 237.5 400.4 237.5 394.7 243.2 394.7 250.24 394.7 257.28 400.4 262.98 407.43 262.98Z" fill="#e1e1e1" opacity="1" stroke-width="4" stroke="#000000"></path></g><g><path d="M425.6 384.45H373.8V545.71H425.6V384.45Z" fill="#61ccff" opacity="1" stroke-width="4" stroke="#000000"></path><path d="M613.02 360.88H561.21V545.71H613.02V360.88Z" fill="#ffa0dc" opacity="1" stroke-width="4" stroke="#000000"></path><path d="M519.25 326.82H467.44V545.71H519.25V326.82Z" fill="#303179" opacity="1" stroke-width="4" stroke="#000000"></path><path d="M706.67 452.58H654.86V545.71H706.67V452.58Z" fill="#303179" opacity="1" stroke-width="4" stroke="#000000"></path><path d="M347.89 545.71H732.57" stroke="#000000" stroke-width="4" stroke-linecap="round" stroke-linejoin="round" opacity="1" fill="none"></path></g><g><path d="M324.4 381.4L259 367 278.8 322.7C279.2 321.8 278.9 320.8 278.1 320.2 277.3 319.7 276.2 319.8 275.5 320.4L240.7 355.6 207.1 314.7C206.5 313.9 205.4 313.7 204.6 314.2 203.8 314.7 203.4 315.7 203.7 316.6L221.4 365.2H170.4C169.4 365.2 168.6 365.9 168.4 366.9 168.2 367.9 168.8 368.8 169.7 369.1L221.1 386.8 201.3 434.4C200.9 435.3 201.3 436.3 202.1 436.9 202.9 437.4 204 437.3 204.7 436.6L239.4 398.4 282.6 448.7C283 449.2 283.6 449.4 284.1 449.4 284.5 449.4 284.9 449.3 285.2 449.1 286 448.6 286.3 447.5 285.9 446.6L258.7 388.6 324.1 385.3C325.1 385.3 325.9 384.5 326 383.5 326.1 382.6 325.4 381.7 324.4 381.4Z" fill="#f5cac2" opacity="1" stroke-width="4" stroke="#000000"></path></g><g><path d="M993.5 616.9H1217.6C1229.1 616.9 1238.5 626.3 1238.5 637.8V894.7C1238.5 906.2 1229.1 915.6 1217.6 915.6H993.5C982 915.6 972.6 906.2 972.6 894.7V637.8C972.6 626.2 982 616.9 993.5 616.9Z" fill="#ffa0dc" opacity="1" stroke-width="4" stroke="#000000"></path><path d="M1020.3 682.9L1029.5 692.1 1044.4 677.3" stroke="#000000" stroke-width="4" stroke-linecap="round" stroke-linejoin="round" opacity="1" fill="none"></path><path d="M1038.22 772.62C1042.85 769.41 1044 763.06 1040.8 758.43 1037.59 753.79 1031.24 752.64 1026.61 755.85 1021.97 759.05 1020.82 765.41 1024.02 770.04 1027.23 774.67 1033.59 775.83 1038.22 772.62Z" stroke="#000000" stroke-width="4" stroke-linecap="round" stroke-linejoin="round" opacity="1" fill="none"></path><path d="M1038.21 852.02C1042.84 848.81 1044 842.46 1040.79 837.83 1037.59 833.2 1031.23 832.04 1026.6 835.25 1021.97 838.45 1020.81 844.81 1024.02 849.44 1027.23 854.07 1033.58 855.23 1038.21 852.02Z" stroke="#000000" stroke-width="4" stroke-linecap="round" stroke-linejoin="round" opacity="1" fill="none"></path><path d="M1073.3 686.6H1166.3" stroke="#000000" stroke-width="4" stroke-linecap="round" stroke-linejoin="round" opacity="1" fill="none"></path><path d="M1073.3 764.3H1166.3" stroke="#000000" stroke-width="4" stroke-linecap="round" stroke-linejoin="round" opacity="1" fill="none"></path><path d="M1073.3 843H1166.3" stroke="#000000" stroke-width="4" stroke-linecap="round" stroke-linejoin="round" opacity="1" fill="none"></path></g><g><path d="M1309.2 868.6C1315.55 868.6 1320.7 863.45 1320.7 857.1 1320.7 850.75 1315.55 845.6 1309.2 845.6 1302.85 845.6 1297.7 850.75 1297.7 857.1 1297.7 863.45 1302.85 868.6 1309.2 868.6Z" fill="#303179" opacity="1" stroke-width="4" stroke="#000000"></path></g><g><path d="M1212.7 702.4C1275.99 702.4 1327.3 651.09 1327.3 587.8 1327.3 524.51 1275.99 473.2 1212.7 473.2 1149.41 473.2 1098.1 524.51 1098.1 587.8 1098.1 651.09 1149.41 702.4 1212.7 702.4Z" fill="#30317900" opacity="0" stroke-width="4" stroke="#ffffff00"></path><path d="M1241.6 629.5H1255.7" stroke="#000000" stroke-width="4" stroke-linecap="round" stroke-linejoin="round" opacity="1" fill="none"></path><path d="M1212.7 676.4C1275.99 676.4 1327.3 625.09 1327.3 561.8 1327.3 498.51 1275.99 447.2 1212.7 447.2 1149.41 447.2 1098.1 498.51 1098.1 561.8 1098.1 625.09 1149.41 676.4 1212.7 676.4Z" fill="#fef8f6" opacity="1" stroke-width="4" stroke="#000000"></path><path d="M1256.8 630.6V619.7L1192.3 619.6V631.6H1170.8C1154.5 631.6 1141.4 641.2 1135.5 646.4 1182.2 689.1 1254.6 685.8 1297.3 639.1 1297.9 638.4 1298.6 637.7 1299.2 637 1293 632.9 1285.7 630.7 1278.2 630.5L1256.8 630.6Z" fill="#61ccff" opacity="1" stroke-width="4" stroke="#000000"></path><path d="M1159.1 567.5C1161.4 555.9 1161.3 541.6 1163.3 528.7 1164.7 519.9 1167 511.8 1171.8 505.8 1183.6 491.1 1215.3 485.4 1240.7 504 1266.1 522.6 1264.8 548.8 1263.8 560.6L1256.7 600.3 1256.8 620H1192.3L1192.2 609.3C1192.2 609.3 1178.1 612.3 1169.8 606.6 1158.6 598.9 1155.2 587 1159.1 567.5Z" fill="#e5ac95" opacity="1" stroke-width="4" stroke="#000000"></path><path d="M1171.8 505.8C1183.6 491.1 1217.2 481.9 1242.6 500.5 1268 519.1 1264.8 548.8 1263.8 560.6L1256.7 600.3C1256.7 600.3 1237.6 594.3 1229.5 579.1 1229.5 579.1 1257.2 566.7 1244.6 548.9 1232.5 531.8 1211.4 552.9 1211.4 552.9 1199.3 548.9 1187.2 531.7 1187.2 531.7 1169.1 532.7 1163.3 528.6 1163.3 528.6 1164.7 519.9 1167 511.8 1171.8 505.8Z" fill="#221f1f" opacity="1" stroke-width="4" stroke="#000000"></path><path d="M1190.2 561.4C1191.91 561.4 1193.3 560.01 1193.3 558.3 1193.3 556.59 1191.91 555.2 1190.2 555.2 1188.49 555.2 1187.1 556.59 1187.1 558.3 1187.1 560.01 1188.49 561.4 1190.2 561.4Z" fill="#000000" opacity="1" stroke-width="4" stroke="#000000"></path><path d="M1168.1 559.3C1169.81 559.3 1171.2 557.91 1171.2 556.2 1171.2 554.49 1169.81 553.1 1168.1 553.1 1166.38 553.1 1165 554.49 1165 556.2 1165 557.91 1166.38 559.3 1168.1 559.3Z" fill="#000000" opacity="1" stroke-width="4" stroke="#000000"></path><path d="M1174.8 566.5C1174.3 568.2 1174 569.7 1174.3 570.3 1174.8 571.2 1175.6 572 1176.5 572.5" stroke="#000000" stroke-width="4" stroke-linecap="round" stroke-linejoin="round" opacity="1" fill="none"></path><path d="M1185.1 581.2C1183.2 583 1180.5 583.8 1177.9 583.2" stroke="#000000" stroke-width="4" stroke-linecap="round" stroke-linejoin="round" opacity="1" fill="none"></path><path d="M1204.5 606.8C1200.9 608.4 1196 608.1 1192.2 609.3" stroke="#000000" stroke-width="4" stroke-linecap="round" stroke-linejoin="round" opacity="1" fill="none"></path><path d="M1229.5 560L1222.5 565" stroke="#000000" stroke-width="4" stroke-linecap="round" stroke-linejoin="round" opacity="1" fill="none"></path></g><g><path d="M1326.57 417.39H1273.82C1254.43 417.39 1238.66 433.16 1238.66 452.56 1238.66 469.82 1251.2 484.49 1268.23 487.25V505.3L1294.01 487.72H1326.57C1345.96 487.72 1361.73 471.95 1361.73 452.56 1361.73 433.08 1345.96 417.39 1326.57 417.39Z" fill="#303179" opacity="1" stroke-width="4" stroke="#000000"></path><path d="M1280.45 456.81C1283.1 456.81 1285.26 454.66 1285.26 452 1285.26 449.35 1283.1 447.19 1280.45 447.19 1277.79 447.19 1275.64 449.35 1275.64 452 1275.64 454.66 1277.79 456.81 1280.45 456.81Z" fill="#fef8f6" opacity="1" stroke-width="4" stroke="#000000"></path><path d="M1300.16 456.81C1302.81 456.81 1304.97 454.66 1304.97 452 1304.97 449.35 1302.81 447.19 1300.16 447.19 1297.5 447.19 1295.35 449.35 1295.35 452 1295.35 454.66 1297.5 456.81 1300.16 456.81Z" fill="#fef8f6" opacity="1" stroke-width="4" stroke="#000000"></path><path d="M1319.95 456.81C1322.6 456.81 1324.76 454.66 1324.76 452 1324.76 449.35 1322.6 447.19 1319.95 447.19 1317.29 447.19 1315.14 449.35 1315.14 452 1315.14 454.66 1317.29 456.81 1319.95 456.81Z" fill="#fef8f6" opacity="1" stroke-width="4" stroke="#000000"></path></g><g><path d="M416.24 989.8H508.04C521.11 989.8 531.69 1000.38 531.69 1013.45V1062.71C531.69 1075.78 521.11 1086.36 508.04 1086.36H416.24C403.17 1086.36 392.59 1075.78 392.59 1062.71V1013.45C392.59 1000.38 403.17 989.8 416.24 989.8Z" fill="#30317900" opacity="0" stroke-width="4" stroke="#ffffff00"></path><path d="M408.08 974.99H499.88C512.95 974.99 523.53 985.57 523.53 998.64V1047.9C523.53 1060.97 512.95 1071.55 499.88 1071.55H408.08C395.01 1071.55 384.43 1060.97 384.43 1047.9V998.64C384.43 985.57 395.01 974.99 408.08 974.99Z" fill="#303179" opacity="1" stroke-width="4" stroke="#000000"></path><path d="M453.94 1044.95L516.13 981.49H391.76L453.94 1044.95Z" fill="#30317900" opacity="0" stroke-width="4" stroke="#ffffff00"></path><path d="M453.94 1031.2L516.09 981.54C511.97 977.48 506.23 974.99 499.88 974.99H408.08C401.73 974.99 395.99 977.48 391.84 981.49L453.94 1031.2Z" fill="#303179" opacity="1" stroke-width="4" stroke="#000000"></path><path d="M515.82 981.71L453.94 1031.13 391.96 981.61" stroke="#000000" stroke-width="4" stroke-linecap="round" stroke-linejoin="round" opacity="1" fill="none"></path><path d="M466.94 1022.14L517.41 1062.56" stroke="#000000" stroke-width="4" stroke-linecap="round" stroke-linejoin="round" opacity="1" fill="none"></path><path d="M390.17 1062.33L440.8 1021.91" stroke="#000000" stroke-width="4" stroke-linecap="round" stroke-linejoin="round" opacity="1" fill="none"></path></g><g><path d="M478.3 797C514.75 797 544.3 767.45 544.3 731 544.3 694.55 514.75 665 478.3 665 441.85 665 412.3 694.55 412.3 731 412.3 767.45 441.85 797 478.3 797Z" fill="#ed7966" opacity="1" stroke-width="4" stroke="#000000"></path><path d="M496.3 749C513.2 732.1 518.8 710.3 508.8 700.3 507.3 698.8 505.5 697.6 503.6 696.8 501.9 696.1 500.1 695.7 498.3 695.5 496.8 695.3 495.3 696.1 494.7 697.4L486.7 712.9C485.8 714.7 486.5 716.8 488.2 717.7 488.3 717.8 488.4 717.8 488.5 717.8L492.9 719.6C494.7 720.3 495.5 722.3 494.8 724 494.7 724.2 494.6 724.4 494.5 724.5 488.8 733.6 481.1 741.3 472 747.1 470.4 748.1 468.3 747.6 467.3 746 467.2 745.8 467.1 745.6 467 745.5L465.2 741C464.5 739.2 462.4 738.3 460.6 739L460.3 739.1 444.8 747.1C443.5 747.7 442.7 749.1 442.9 750.6 443.1 752.5 443.5 754.3 444.2 756.1 445 758.1 446.2 759.8 447.7 761.3 457.6 771.5 479.4 765.9 496.3 749Z" fill="#fef8f6" opacity="1" stroke-width="4" stroke="#000000"></path></g><g><path d="M771.9 314.05C755.1 304.75 738.9 300.75 728.1 305.05 703.1 313.95 691.8 356.05 691.4 357.75 691.4 357.75 682.2 357.65 680.9 361.35 679.4 365.95 686.1 372.75 686.1 372.75 682.5 383.15 678.5 397.25 684.4 409.45 690 420.95 704.7 426.95 723.1 423.95L722.5 430.75 794.1 441.55C795 438.55 800.3 384.35 801.3 374.05 803.3 352.25 798.8 328.85 771.9 314.05Z" fill="#e5ac95" opacity="1" stroke-width="4" stroke="#000000"></path><path d="M723.2 424.05C723.2 424.05 734.2 421.45 740.9 418.15L721.7 440.05 723.2 424.05Z" fill="#30317900" opacity="0" stroke-width="4" stroke="#ffffff00"></path><path d="M967.6 1107.05L1040.1 1074.25 1036.29 1054.02C1035.6 1049.85 1034.5 1045.85 1033.4 1042.05 1032.6 1039.35 1031.8 1036.55 1030.9 1033.75 1027.5 1022.55 1023.4 1010.05 1018.4 996.25 1013.3 982.05 1008 969.25 1002.6 957.45L904.5 992.05C918 1012.55 931 1033.45 939.1 1049.95 941.3 1054.15 943.1 1058.75 944.7 1063.25L967.6 1107.05Z" fill="#e5ac95" opacity="1" stroke-width="4" stroke="#000000"></path><path d="M1006.5 1066.75C993.3 1072.35 989.3 1094.15 980.9 1095.45 972.6 1096.75 980.3 1075.75 975.1 1063.45 970.5 1052.65 959.9 1056.55 944.4 1063.15 945.4 1065.95 946.2 1068.75 946.9 1071.55 948.4 1078.05 948.6 1083.65 947.1 1088.05 939.2 1111.05 918.5 1123.15 918 1145.05L918.1 1145.65 1045.1 1091.65V1091.55C1042.7 1079.05 1039.8 1066.25 1036.4 1053.75L1006.5 1066.75Z" fill="#ffa0dc" opacity="1" stroke-width="4" stroke="#000000"></path><path d="M962.9 1089.35L947.63 1087.92" stroke="#000000" stroke-width="4" stroke-linecap="round" stroke-linejoin="round" opacity="1" fill="none"></path><path d="M958.9 1105.55L941.91 1100.18" stroke="#000000" stroke-width="4" stroke-linecap="round" stroke-linejoin="round" opacity="1" fill="none"></path><path d="M678.6 409.05C670.3 405.35 662.4 419.75 655.1 427.45 651.7 431.05 647.6 432.85 645.9 429.45 638.7 415.15 672.5 411.05 675.6 404.95 678.7 398.85 673.6 394.75 661.3 396.75 642.9 391.65 625.8 399.95 618.3 412.05 610.1 425.35 610.8 429.55 594.8 458.05 591.9 463.25 588.9 468.85 586.1 474.45L633.4 504.35 659.3 460.15C659.2 460.15 687.8 413.15 678.6 409.05Z" fill="#e5ac95" opacity="1" stroke-width="4" stroke="#000000"></path><path d="M842.2 484.75C828.9 460.75 806.4 446.85 794.1 441.75 794.4 440.85 795 435.95 795.7 429.15L722.5 429.45 721.4 440.55C721.4 440.55 702.1 440.95 688.7 444.65 677.5 447.75 669.3 450.95 659 460.15L628.3 496.85 586.5 473.15C566.3 513.35 550.8 562.95 580.2 586.85 619.1 618.55 679.4 560.35 679.4 560.35L700.1 627.95 812.7 629.75 832.9 646.05C832.9 646.05 848.9 644.55 858.3 639.05 902.4 613.85 857.6 512.35 842.2 484.75Z" fill="#f5cac2" opacity="1" stroke-width="4" stroke="#000000"></path><path d="M888.2 483.65C880 420.25 815.6 422.25 806.4 375.25 800.9 347.15 801.6 324.75 774.7 309.85 757.9 300.55 738.9 300.75 728.1 305.05 714.6 309.85 705.4 323.05 700.1 334.45L714.7 347.35C714.7 347.35 738.33 334.26 737.9 335.25 727.7 348.55 722.9 355.25 722.9 355.25L738.7 370.45C738.7 370.45 769.3 354.05 775.6 373.65 781.9 393.25 751.1 406.95 751.1 406.95 745 464.15 770.6 483.75 770.6 483.75H793.5C793.5 483.75 786.34 453.48 788 455.15 797.2 467.45 813.1 483.75 813.1 483.75L888.2 483.65Z" fill="#221f1f" opacity="1" stroke-width="4" stroke="#000000"></path><path d="M812.6 627.85L826.8 541.95" stroke="#000000" stroke-width="4" stroke-linecap="round" stroke-linejoin="round" opacity="1" fill="none"></path><path d="M819.7 593.05L834 599.15" stroke="#000000" stroke-width="4" stroke-linecap="round" stroke-linejoin="round" opacity="1" fill="none"></path><path d="M680.2 559.65L702.1 541.45" stroke="#000000" stroke-width="4" stroke-linecap="round" stroke-linejoin="round" opacity="1" fill="none"></path><path d="M634.6 407.95C641.68 402.56 651.93 398.4 661.14 396.81" stroke="#000000" stroke-width="4" stroke-linecap="round" stroke-linejoin="round" opacity="1" fill="none"></path><path d="M695.8 381.85L704.2 381.45" stroke="#000000" stroke-width="4" stroke-linecap="round" stroke-linejoin="round" opacity="1" fill="none"></path><path d="M723.8 423.85C727.9 422.35 731.9 420.85 735.9 419.35" stroke="#000000" stroke-width="4" stroke-linecap="round" stroke-linejoin="round" opacity="1" fill="none"></path><path d="M722.5 440.65H731.6" stroke="#000000" stroke-width="4" stroke-linecap="round" stroke-linejoin="round" opacity="1" fill="none"></path><path d="M748 386.25L757 381.85" stroke="#000000" stroke-width="4" stroke-linecap="round" stroke-linejoin="round" opacity="1" fill="none"></path><path d="M706.7 364.35C708.47 364.35 709.9 362.92 709.9 361.15 709.9 359.38 708.47 357.95 706.7 357.95 704.93 357.95 703.5 359.38 703.5 361.15 703.5 362.92 704.93 364.35 706.7 364.35Z" fill="#221f1f" opacity="1" stroke-width="4" stroke="#000000"></path><path d="M803.9 325.15C819.42 325.15 832 312.57 832 297.05 832 281.53 819.42 268.95 803.9 268.95 788.38 268.95 775.8 281.53 775.8 297.05 775.8 312.57 788.38 325.15 803.9 325.15Z" fill="#221f1f" opacity="1" stroke-width="4" stroke="#000000"></path><path d="M751.1 285.25L818.7 347.65" stroke="#000000" stroke-width="4" stroke-linecap="round" stroke-linejoin="round" opacity="1" fill="none"></path><path d="M1012.5 981.05C1009.2 972.75 1005.8 964.85 1002.4 957.45L905.3 993.45 1012.5 981.05Z" fill="#e5ac9500" opacity="0" stroke-width="4" stroke="#ffffff00"></path><path d="M813.1 1090.55C814.5 1077.95 815.7 1063.45 816.6 1047.15 817.4 1033.35 817.6 1020.35 817.2 1008.35L715 1008.25C719.3 1032.25 722.5 1054.75 722.7 1072.25 722.7 1075.75 722.7 1078.95 722.5 1082.15L730 1124.35 746.2 1136.95 804.4 1130.35 810.6 1109.65C811.2 1105.35 811.8 1101.05 812.3 1096.75 812.7 1094.65 813 1092.65 813.1 1090.55Z" fill="#e5ac95" opacity="1" stroke-width="4" stroke="#000000"></path><path d="M744.9 1125.95C736.7 1123.95 752.1 1107.55 752.1 1094.25 752.1 1082.15 740.3 1081.95 722.6 1081.95H722.5C722.1 1087.65 721.2 1092.65 719.8 1096.65 718.9 1099.35 717.4 1101.95 715.5 1104.05 699.1 1122.15 675.5 1125.85 666.4 1144.95L666.5 1149.15 802.9 1147.25 804.4 1144.95C807 1133.15 809.1 1121.25 810.7 1109.45H779.7C765.5 1109.55 753.2 1128.05 744.9 1125.95Z" fill="#ffa0dc" opacity="1" stroke-width="4" stroke="#000000"></path><path d="M817.3 1008.45H715.1L817.2 1034.75C817.5 1025.55 817.5 1016.75 817.3 1008.45Z" fill="#e5ac9500" opacity="0" stroke-width="4" stroke="#ffffff00"></path><path d="M936.3 847.75C907.6 807.35 900.8 756.45 876.1 706.15 851.4 655.85 812.5 627.85 812.5 627.85H778.1C778.1 627.75 778 627.75 778 627.75H700.1C700.1 627.75 681.2 751.35 697.3 903.05 700.7 935.65 708.8 975.75 715 1010.45L834.7 1011.05C843.9 978.15 807.4 935.15 798.4 896.85 792.6 871.85 796.5 841.65 801.3 810.55 816.9 842.95 834.2 876.95 852.4 909.95 867.1 936.45 887.3 965.95 905.4 993.55L1021.3 951.05C1012 897.85 950.9 868.25 936.3 847.75Z" fill="#303179" opacity="1" stroke-width="4" stroke="#000000"></path><path d="M812.6 627.85L821.23 634.91 832.8 646.15C833.1 646.15 845 644.95 854.1 641.15 831 623.55 822.3 568.65 822.3 568.65L812.6 627.85Z" fill="#f5cac200" opacity="0" stroke-width="4" stroke="#ffffff00"></path><path d="M613.4 488.35L597.7 538.35 628.4 496.85 613.4 488.35Z" fill="#f5cac200" opacity="0" stroke-width="4" stroke="#ffffff00"></path><path d="M728.2 1112.05L714.93 1104.74" stroke="#000000" stroke-width="4" stroke-linecap="round" stroke-linejoin="round" opacity="1" fill="none"></path><path d="M717.7 1124.35L705.43 1113.84" stroke="#000000" stroke-width="4" stroke-linecap="round" stroke-linejoin="round" opacity="1" fill="none"></path><path d="M813.2 744.85C833.5 845.55 866.6 859.35 871.2 941.35 864.4 930.65 854.6 914.35 849 904.25 819.8 847.85 826 864.15 802 811.45L813.2 744.85Z" fill="#30317900" opacity="0" stroke-width="4" stroke="#ffffff00"></path><path d="M849.4 665.45H831.1L836.6 685.85C839.4 696.15 850.6 704.45 858.8 704.45 865.6 704.45 869.5 702.35 871.9 698.95" stroke="#000000" stroke-width="4" stroke-linecap="round" stroke-linejoin="round" opacity="1" fill="none"></path><path d="M801.2 810.55C804.6 782.05 812.9 754.15 814.6 726.45" stroke="#000000" stroke-width="4" stroke-linecap="round" stroke-linejoin="round" opacity="1" fill="none"></path><path d="M776.7 704.55C786.9 704.55 793 696.25 790.3 686.05L784.8 665.75H747.8L753.3 686.05C756.1 696.25 766.6 704.55 776.7 704.55Z" stroke="#000000" stroke-width="4" stroke-linecap="round" stroke-linejoin="round" opacity="1" fill="none"></path><path d="M720.8 628.95C715.1 672.95 713.1 789.15 724.6 856.95 735.8 923.45 752.2 957.15 755.7 1007.75" stroke="#000000" stroke-width="4" stroke-linecap="round" stroke-linejoin="round" opacity="1" fill="none"></path><path d="M598 538.35L627.6 497.35" stroke="#000000" stroke-width="4" stroke-linecap="round" stroke-linejoin="round" opacity="1" fill="none"></path><path d="M1047.3 1106.55L920.5 1160.05C918.7 1155.25 917.8 1149.85 917.9 1144.75L1045 1091.15C1046.9 1101.05 1047.3 1106.55 1047.3 1106.55Z" fill="#303179" opacity="1" stroke-width="4" stroke="#000000"></path><path d="M800.5 1160.05H662.9C663.2 1154.85 664.4 1149.75 666.5 1145.05H804.5C802.2 1155.15 800.5 1160.05 800.5 1160.05Z" fill="#303179" opacity="1" stroke-width="4" stroke="#000000"></path></g><g><path d="M281.33 893.54L264.03 919.45 295.54 906.59 281.33 893.54Z" fill="#fef8f6" opacity="1" stroke-width="4" stroke="#000000"></path><path d="M281.33 893.54L264.03 919.45 295.54 906.59 281.33 893.54Z" fill="#fef8f600" opacity="0" stroke-width="4" stroke="#ffffff00"></path><path d="M281.33 893.54L299.59 933.86 359.26 862.93C359.39 862.8 359.26 862.61 359.07 862.67L281.33 893.54Z" fill="#fef8f6" opacity="1" stroke-width="4" stroke="#000000"></path><path d="M246.09 868.33L281.33 893.54 359.14 862.67C359.2 862.61 359.2 862.48 359.07 862.48L246.09 868.33Z" fill="#fef8f6" opacity="1" stroke-width="4" stroke="#000000"></path><path d="M281.33 893.54L288.98 910.44" stroke="#000000" stroke-width="4" stroke-linecap="round" stroke-linejoin="round" opacity="1" fill="none"></path><path d="M359.07 862.67L281.33 893.54" stroke="#000000" stroke-width="4" stroke-linecap="round" stroke-linejoin="round" opacity="1" fill="none"></path></g></svg>