<svg xmlns="http://www.w3.org/2000/svg" height="1296" width="1546" version="1.1" xmlns:xlink="http://www.w3.org/1999/xlink" xmlns:svgjs="http://svgjs.com/svgjs"><rect fill="transparent" width="1546" height="1296"></rect><g><path d="M1286.94 956.45L1317.29 953.85 1284.33 1007.84 1353.18 1005.24 1307.13 1037.28 1348.62 1073.56" stroke="#000000" stroke-width="4" stroke-linecap="round" stroke-linejoin="round" opacity="1" fill="none"></path></g><g><path d="M1121.7 230.4C1129.6 230.4 1136 224 1136 216.1 1136 208.2 1129.6 201.8 1121.7 201.8 1113.8 201.8 1107.4 208.2 1107.4 216.1 1107.4 224 1113.8 230.4 1121.7 230.4Z" fill="#ffffff" opacity="1" stroke-width="4" stroke="#000000"></path></g><g><path d="M1174.8 802.4C1204.5 823.9 1271.5 798.6 1312.9 773.8 1358.9 746.2 1361 716.5 1342.6 716.5 1317 716.5 1253.6 795.3 1290.4 812.6 1320.8 827 1376.3 801.4 1390.6 817.7 1404.9 834 1411.1 869.9 1450.9 888.3" stroke="#000000" stroke-width="4" stroke-linecap="round" stroke-linejoin="round" opacity="1" fill="none"></path></g><g><path d="M302.7 1003.6V1010.09" stroke="#000000" stroke-width="4" stroke-linecap="round" stroke-linejoin="round" opacity="1" fill="none"></path><path d="M302.7 1028.51V1035" stroke="#000000" stroke-width="4" stroke-linecap="round" stroke-linejoin="round" opacity="1" fill="none"></path><path d="M318.4 1019.3H311.91" stroke="#000000" stroke-width="4" stroke-linecap="round" stroke-linejoin="round" opacity="1" fill="none"></path><path d="M293.49 1019.3H287" stroke="#000000" stroke-width="4" stroke-linecap="round" stroke-linejoin="round" opacity="1" fill="none"></path><path d="M291.61 1008.21L296.18 1012.78" stroke="#000000" stroke-width="4" stroke-linecap="round" stroke-linejoin="round" opacity="1" fill="none"></path><path d="M309.23 1025.83L313.8 1030.4" stroke="#000000" stroke-width="4" stroke-linecap="round" stroke-linejoin="round" opacity="1" fill="none"></path><path d="M313.8 1008.21L309.23 1012.78" stroke="#000000" stroke-width="4" stroke-linecap="round" stroke-linejoin="round" opacity="1" fill="none"></path><path d="M296.18 1025.83L291.61 1030.4" stroke="#000000" stroke-width="4" stroke-linecap="round" stroke-linejoin="round" opacity="1" fill="none"></path></g><g><path d="M1150.04 1082.4V1089.48" stroke="#000000" stroke-width="4" stroke-linecap="round" stroke-linejoin="round" opacity="1" fill="none"></path><path d="M1150.04 1109.59V1116.68" stroke="#000000" stroke-width="4" stroke-linecap="round" stroke-linejoin="round" opacity="1" fill="none"></path><path d="M1167.18 1099.54H1160.09" stroke="#000000" stroke-width="4" stroke-linecap="round" stroke-linejoin="round" opacity="1" fill="none"></path><path d="M1139.98 1099.54H1132.9" stroke="#000000" stroke-width="4" stroke-linecap="round" stroke-linejoin="round" opacity="1" fill="none"></path><path d="M1137.93 1087.43L1142.92 1092.42" stroke="#000000" stroke-width="4" stroke-linecap="round" stroke-linejoin="round" opacity="1" fill="none"></path><path d="M1157.16 1106.66L1162.15 1111.65" stroke="#000000" stroke-width="4" stroke-linecap="round" stroke-linejoin="round" opacity="1" fill="none"></path><path d="M1162.15 1087.43L1157.16 1092.42" stroke="#000000" stroke-width="4" stroke-linecap="round" stroke-linejoin="round" opacity="1" fill="none"></path><path d="M1142.92 1106.66L1137.93 1111.65" stroke="#000000" stroke-width="4" stroke-linecap="round" stroke-linejoin="round" opacity="1" fill="none"></path></g><g><path d="M162.36 513.6C172.8 513.6 181.26 505.14 181.26 494.7 181.26 484.26 172.8 475.8 162.36 475.8 151.92 475.8 143.46 484.26 143.46 494.7 143.46 505.14 151.92 513.6 162.36 513.6Z" fill="#6163ff" opacity="1" stroke-width="4" stroke="#000000"></path></g><g><path d="M232.73 598.56V608.26" stroke="#000000" stroke-width="4" stroke-linecap="round" stroke-linejoin="round" opacity="1" fill="none"></path><path d="M232.73 635.78V645.48" stroke="#000000" stroke-width="4" stroke-linecap="round" stroke-linejoin="round" opacity="1" fill="none"></path><path d="M256.19 622.02H246.49" stroke="#000000" stroke-width="4" stroke-linecap="round" stroke-linejoin="round" opacity="1" fill="none"></path><path d="M218.97 622.02H209.27" stroke="#000000" stroke-width="4" stroke-linecap="round" stroke-linejoin="round" opacity="1" fill="none"></path><path d="M216.15 605.44L222.98 612.27" stroke="#000000" stroke-width="4" stroke-linecap="round" stroke-linejoin="round" opacity="1" fill="none"></path><path d="M242.48 631.77L249.31 638.6" stroke="#000000" stroke-width="4" stroke-linecap="round" stroke-linejoin="round" opacity="1" fill="none"></path><path d="M249.31 605.44L242.48 612.27" stroke="#000000" stroke-width="4" stroke-linecap="round" stroke-linejoin="round" opacity="1" fill="none"></path><path d="M222.98 631.77L216.15 638.6" stroke="#000000" stroke-width="4" stroke-linecap="round" stroke-linejoin="round" opacity="1" fill="none"></path></g><g><path d="M107 856.3C146.5 821.5 219.7 774.5 281 814.4 281 814.4 220.7 735.6 251.4 698.8 291.5 650.6 409.5 781.6 391.8 804.1 373.6 827.1 332.9 724.2 354.2 667 371 622 451.2 689.5 464.1 729.4" stroke="#000000" stroke-width="4" stroke-linecap="round" stroke-linejoin="round" opacity="1" fill="none"></path></g><g><path d="M1183 322.4H1099.1C1099.1 322.4 1089.4 372 1118.6 398.3H1202.5C1173.3 372 1183 322.4 1183 322.4Z" fill="#a0e0ff" opacity="1" stroke-width="4" stroke="#000000"></path><path d="M1065.4 279.5H981.5C981.5 279.5 971.8 329.1 1001 355.4H1084.9C1055.6 329.1 1065.4 279.5 1065.4 279.5Z" fill="#f5cac2" opacity="1" stroke-width="4" stroke="#000000"></path></g><g><path d="M903.03 170.99L885.83 198.52 915.11 179.49 925.63 201.38 925.79 174.34 957.85 164.61 925.76 161.67 941.82 131.93 915.35 156.87 902.98 129.5 905.48 161.01 876.04 156.87 903.03 170.99Z" stroke="#000000" stroke-width="4" stroke-linecap="round" stroke-linejoin="round" opacity="1" fill="none"></path></g><g><path d="M967.38 530.24C953.7 530.24 942.57 519.12 942.57 505.44V425.43C942.57 411.75 953.7 400.62 967.38 400.62H1060.14C1073.82 400.62 1084.95 411.75 1084.95 425.43V505.44C1084.95 519.12 1073.82 530.24 1060.14 530.24H967.38Z" fill="#6163ff" opacity="1" stroke-width="4" stroke="#000000"></path><path d="M987.49 492.54C981.46 492.54 976.56 487.64 976.56 481.61V449.25C976.56 443.22 981.46 438.32 987.49 438.32H1021.97C1028 438.32 1032.9 443.22 1032.9 449.25V481.61C1032.9 487.64 1028 492.54 1021.97 492.54H987.49Z" fill="#303179" opacity="1" stroke-width="4" stroke="#000000"></path><path d="M1047.84 486.94C1046.65 486.94 1045.51 486.55 1044.58 485.8L1024.64 469.91C1024.34 469.67 1024.06 469.39 1023.81 469.08 1022.94 467.98 1022.55 466.62 1022.7 465.23 1022.86 463.84 1023.55 462.59 1024.64 461.72L1044.58 445.82C1045.5 445.09 1046.67 444.68 1047.84 444.68 1050.74 444.68 1053.08 447.03 1053.08 449.92V481.71C1053.08 482.89 1052.67 484.05 1051.93 484.97 1050.93 486.23 1049.44 486.94 1047.84 486.94Z" fill="#303179" opacity="1" stroke-width="4" stroke="#000000"></path></g><g><path d="M479.17 757.1H703.12C714.61 757.1 724.01 766.49 724.01 777.99V1034.71C724.01 1046.21 714.61 1055.6 703.12 1055.6H479.17C467.68 1055.6 458.29 1046.21 458.29 1034.71V777.99C458.29 766.39 467.68 757.1 479.17 757.1Z" fill="#6163ff" opacity="1" stroke-width="4" stroke="#000000"></path><path d="M505.95 823.06L515.15 832.25 530.04 817.46" stroke="#000000" stroke-width="4" stroke-linecap="round" stroke-linejoin="round" opacity="1" fill="none"></path><path d="M523.86 912.72C528.49 909.51 529.64 903.16 526.44 898.54 523.23 893.9 516.89 892.75 512.26 895.96 507.62 899.15 506.47 905.51 509.67 910.14 512.88 914.76 519.24 915.92 523.86 912.72Z" stroke="#000000" stroke-width="4" stroke-linecap="round" stroke-linejoin="round" opacity="1" fill="none"></path><path d="M523.85 992.06C528.48 988.85 529.64 982.51 526.43 977.88 523.23 973.26 516.88 972.1 512.25 975.3 507.62 978.5 506.46 984.86 509.67 989.48 512.88 994.11 519.23 995.27 523.85 992.06Z" stroke="#000000" stroke-width="4" stroke-linecap="round" stroke-linejoin="round" opacity="1" fill="none"></path><path d="M558.92 826.75H651.86" stroke="#000000" stroke-width="4" stroke-linecap="round" stroke-linejoin="round" opacity="1" fill="none"></path><path d="M558.92 904.4H651.86" stroke="#000000" stroke-width="4" stroke-linecap="round" stroke-linejoin="round" opacity="1" fill="none"></path><path d="M558.92 983.05H651.86" stroke="#000000" stroke-width="4" stroke-linecap="round" stroke-linejoin="round" opacity="1" fill="none"></path></g><g><path d="M328.49 599.45C319.61 599.44 311.09 595.91 304.81 589.63 298.53 583.35 295 574.83 294.99 565.96V248.49C295 239.62 298.53 231.1 304.81 224.82 311.09 218.54 319.61 215.01 328.49 215H740.36C749.24 215.01 757.75 218.54 764.03 224.82 770.31 231.1 773.84 239.62 773.86 248.49V565.96C773.84 574.83 770.31 583.35 764.03 589.63 757.75 595.91 749.24 599.44 740.36 599.45H328.49Z" fill="#cecece" opacity="1" stroke-width="4" stroke="#000000"></path><path d="M295.01 286.96H775.33" stroke="#000000" stroke-width="4" opacity="1" fill="none"></path><path d="M330.23 262.98C337.27 262.98 342.97 257.28 342.97 250.24 342.97 243.2 337.27 237.5 330.23 237.5 323.2 237.5 317.49 243.2 317.49 250.24 317.49 257.28 323.2 262.98 330.23 262.98Z" fill="#e1e1e1" opacity="1" stroke-width="4" stroke="#000000"></path><path d="M368.84 262.98C375.87 262.98 381.58 257.28 381.58 250.24 381.58 243.2 375.87 237.5 368.84 237.5 361.8 237.5 356.1 243.2 356.1 250.24 356.1 257.28 361.8 262.98 368.84 262.98Z" fill="#e1e1e1" opacity="1" stroke-width="4" stroke="#000000"></path><path d="M407.43 262.98C414.47 262.98 420.17 257.28 420.17 250.24 420.17 243.2 414.47 237.5 407.43 237.5 400.4 237.5 394.7 243.2 394.7 250.24 394.7 257.28 400.4 262.98 407.43 262.98Z" fill="#e1e1e1" opacity="1" stroke-width="4" stroke="#000000"></path></g><g><path d="M404.43 522.14V372.52C404.43 363.11 412.06 355.47 421.48 355.47H665.09C674.51 355.47 682.14 363.11 682.14 372.52V522.14H404.43Z" fill="#cecece" opacity="1" stroke-width="4" stroke="#000000"></path><path d="M442.01 440.74C436.55 440.74 432.19 436.28 432.19 430.92V336.63C432.19 331.18 436.65 326.82 442.01 326.82H537.29C542.74 326.82 547.1 331.28 547.1 336.63V430.92C547.1 436.38 542.64 440.74 537.29 440.74H442.01V440.74ZM442.01 330.78C438.83 330.78 436.16 333.36 436.16 336.63V430.92C436.16 434.1 438.73 436.77 442.01 436.77H537.29C540.46 436.77 543.14 434.19 543.14 430.92V336.63C543.14 333.46 540.56 330.78 537.29 330.78H442.01Z" fill="#303179" opacity="1" stroke-width="4" stroke="#000000"></path><path d="M593.31 550.4C587.85 550.4 583.49 545.93 583.49 540.58V446.29C583.49 440.84 587.95 436.47 593.31 436.47H688.09C693.54 436.47 697.91 440.94 697.91 446.29V540.58C697.91 546.03 693.44 550.4 688.09 550.4H593.31ZM593.31 440.44C590.13 440.44 587.46 443.02 587.46 446.29V540.58C587.46 543.75 590.03 546.43 593.31 546.43H688.09C691.26 546.43 693.94 543.85 693.94 540.58V446.29C693.94 443.12 691.36 440.44 688.09 440.44H593.31Z" fill="#303179" opacity="1" stroke-width="4" stroke="#000000"></path><path d="M391.44 539.99C385.99 539.99 381.62 535.52 381.62 530.17V469.69C381.62 464.24 386.09 459.87 391.44 459.87H445.28C450.73 459.87 455.09 464.34 455.09 469.69V530.17C455.09 535.62 450.63 539.99 445.28 539.99H391.44ZM391.44 463.84C388.27 463.84 385.59 466.42 385.59 469.69V530.17C385.59 533.34 388.17 536.02 391.44 536.02H445.28C448.45 536.02 451.13 533.44 451.13 530.17V469.69C451.13 466.52 448.55 463.84 445.28 463.84H391.44Z" fill="#303179" opacity="1" stroke-width="4" stroke="#000000"></path><path d="M446.57 400.48L446.47 340.2H532.73V400.48H446.57Z" fill="#303179" opacity="1" stroke-width="4" stroke="#000000"></path><path d="M447.76 419.92C446.07 418.13 446.07 415.46 447.76 413.67 448.65 412.68 449.84 412.18 451.13 412.18 452.32 412.18 453.41 412.58 454.3 413.37L455.29 414.36 456.28 413.37C457.17 412.48 458.36 411.99 459.55 411.99 460.74 411.99 461.93 412.48 462.83 413.37 464.61 415.16 464.61 418.13 462.83 419.92L455.29 427.45 447.76 419.92Z" fill="#303179" opacity="1" stroke-width="4" stroke="#000000"></path><path d="M501.2 496.95C488.9 496.95 478.79 486.94 478.79 474.55V402.37C478.79 390.07 488.8 379.96 501.2 379.96H584.78C597.07 379.96 607.19 389.97 607.19 402.37V474.55C607.19 486.84 597.17 496.95 584.78 496.95H501.2Z" fill="#6163ff" opacity="1" stroke-width="4" stroke="#000000"></path><path d="M573.77 457.99C572.68 457.99 571.69 457.59 570.8 457L552.85 442.62C552.56 442.42 552.36 442.13 552.06 441.83 551.27 440.84 550.97 439.65 551.07 438.36 551.17 437.07 551.86 435.98 552.85 435.19L570.8 420.81C571.59 420.12 572.68 419.82 573.77 419.82 576.35 419.82 578.53 421.9 578.53 424.58V453.23C578.53 454.32 578.14 455.31 577.54 456.21 576.55 457.3 575.26 457.99 573.77 457.99Z" fill="#a0e0ff" opacity="1" stroke-width="4" stroke="#000000"></path><path d="M519.34 463.05C513.89 463.05 509.53 458.58 509.53 453.23V423.98C509.53 418.53 513.99 414.17 519.34 414.17H550.47C555.93 414.17 560.29 418.63 560.29 423.98V453.13C560.29 458.58 555.83 462.95 550.47 462.95H519.34V463.05Z" fill="#a0e0ff" opacity="1" stroke-width="4" stroke="#000000"></path></g><g><path d="M311.74 312.3L298.01 367.19 225.51 301.74 246.74 432.33 183.89 385.75 182.42 430.27" stroke="#000000" stroke-width="4" stroke-linecap="round" stroke-linejoin="round" opacity="1" fill="none"></path></g><g><path d="M997.09 896.48C984.97 896.48 975.11 886.62 975.11 874.5V654.88C975.11 642.76 984.97 632.9 997.09 632.9H1216.71C1228.83 632.9 1238.7 642.76 1238.7 654.88V874.5C1238.7 886.62 1228.83 896.48 1216.71 896.48H997.09Z" fill="#a0e0ff" opacity="1" stroke-width="4" stroke="#000000"></path><path d="M1080.18 875.08C1084.33 875.08 1087.69 871.72 1087.69 867.57 1087.69 863.42 1084.33 860.06 1080.18 860.06 1076.04 860.06 1072.67 863.42 1072.67 867.57 1072.67 871.72 1076.04 875.08 1080.18 875.08Z" fill="#303179" opacity="1" stroke-width="4" stroke="#000000"></path><path d="M1106.85 875.08C1102.71 875.08 1099.34 871.71 1099.34 867.57 1099.34 863.43 1102.71 860.06 1106.85 860.06 1110.99 860.06 1114.36 863.43 1114.36 867.57 1114.36 871.71 1110.99 875.08 1106.85 875.08Z" fill="#ffffff" opacity="1" stroke-width="4" stroke="#000000"></path><path d="M1133.53 875.08C1137.67 875.08 1141.04 871.72 1141.04 867.57 1141.04 863.42 1137.67 860.06 1133.53 860.06 1129.38 860.06 1126.02 863.42 1126.02 867.57 1126.02 871.72 1129.38 875.08 1133.53 875.08Z" fill="#303179" opacity="1" stroke-width="4" stroke="#000000"></path><path d="M1149.03 827.54C1145.51 827.54 1141.94 826.83 1138.43 825.42L1138.23 825.33 1130.14 821.86 1130.71 820.38C1120.29 810.95 1117.62 794.38 1124.06 779.17 1130.04 764.82 1143.16 755.18 1156.73 755.18H1158.37L1158.92 753.75 1167.04 757.2 1167.24 757.3C1174.09 760.2 1179.5 765.84 1182.46 773.2 1186.22 782.45 1185.94 793.51 1181.69 803.55 1175.63 817.9 1162.5 827.54 1149.03 827.54Z" fill="#ffffff" opacity="1" stroke-width="4" stroke="#000000"></path><path d="M1140.25 823.88C1136.49 823.88 1132.91 823.17 1129.61 821.76 1121.81 818.44 1116.04 811.81 1113.36 803.09 1110.63 794.31 1111.24 784.48 1115.1 775.43 1121.2 761.08 1134.38 751.44 1147.89 751.44 1151.65 751.44 1155.23 752.16 1158.53 753.57 1166.32 756.88 1172.1 763.51 1174.78 772.24 1177.51 781.02 1176.89 790.84 1173.04 799.9 1166.84 814.25 1153.66 823.88 1140.25 823.88Z" fill="#8a8a8a" opacity="1" stroke-width="4" stroke="#000000"></path><path d="M1065.26 792.21C1061.74 792.21 1058.18 791.49 1054.66 790.09L1054.46 789.99 1046.38 786.53 1046.94 784.95C1036.52 775.52 1033.85 758.95 1040.3 743.74 1046.27 729.39 1059.4 719.75 1072.96 719.75H1074.6L1075.15 718.22 1083.28 721.67 1083.47 721.77C1099.37 728.52 1105.86 749.35 1097.93 768.22 1091.86 782.57 1078.73 792.21 1065.26 792.21Z" fill="#21132e" opacity="1" stroke-width="4" stroke="#000000"></path><path d="M1056.56 788.43C1052.78 788.43 1049.2 787.71 1045.9 786.29 1038.09 782.97 1032.3 776.33 1029.61 767.59 1026.88 758.79 1027.5 748.95 1031.36 739.88 1037.48 725.51 1050.68 715.85 1064.21 715.85 1067.98 715.85 1071.57 716.56 1074.87 717.98 1090.84 724.76 1097.36 745.58 1089.41 764.4 1083.29 778.77 1070.09 788.43 1056.56 788.43Z" fill="#ffffff" opacity="1" stroke-width="4" stroke="#000000"></path><path d="M1058.52 769.1C1056.92 769.1 1055.19 768.77 1053.5 768.13 1045.98 764.95 1042.9 755.09 1046.65 746.15 1049.53 739.34 1055.77 734.77 1062.18 734.77 1063.78 734.77 1065.52 735.1 1067.2 735.73 1070.81 737.25 1073.55 740.4 1074.92 744.61 1076.17 748.76 1075.86 753.42 1074.05 757.72 1071.13 764.53 1064.89 769.1 1058.52 769.1Z" fill="#303179" opacity="1" stroke-width="4" stroke="#000000"></path><path d="M1160.77 758.19L1169.44 737.59C1179.16 714.67 1168.38 688.19 1145.46 678.47 1122.55 668.74 1096.07 679.53 1086.35 702.44L1077.68 723.05" stroke="#000000" stroke-width="4" stroke-linecap="round" stroke-linejoin="round" opacity="1" fill="none"></path></g><g><path d="M1309.2 868.6C1315.55 868.6 1320.7 863.45 1320.7 857.1 1320.7 850.75 1315.55 845.6 1309.2 845.6 1302.85 845.6 1297.7 850.75 1297.7 857.1 1297.7 863.45 1302.85 868.6 1309.2 868.6Z" fill="#303179" opacity="1" stroke-width="4" stroke="#000000"></path></g><g><path d="M1319.9 650.99L1274.35 482.31 1171.66 510.05 1147.78 551.61 1184.48 687.56 1319.9 650.99Z" fill="#6163ff" opacity="1" stroke-width="4" stroke="#000000"></path><path d="M1175.19 550.52L1171.66 510.05 1147.78 551.61 1175.19 550.52Z" fill="#6163ff00" opacity="0" stroke-width="4" stroke="#ffffff00"></path><path d="M1180.5 542.77L1171.66 510.05 1147.78 551.61 1180.5 542.77Z" fill="#ffffff" opacity="1" stroke-width="4" stroke="#000000"></path><path d="M1186.3 563.98L1250.06 546.76" stroke="#000000" stroke-width="4" stroke-linecap="round" opacity="1" fill="none"></path><path d="M1198.94 610.79L1249.7 597.11" stroke="#000000" stroke-width="4" stroke-linecap="round" opacity="1" fill="none"></path><path d="M1192.64 587.36L1231.03 577.03" stroke="#000000" stroke-width="4" stroke-linecap="round" opacity="1" fill="none"></path></g><g><path d="M1326.57 417.39H1273.82C1254.43 417.39 1238.66 433.16 1238.66 452.56 1238.66 469.82 1251.2 484.49 1268.23 487.25V505.3L1294.01 487.72H1326.57C1345.96 487.72 1361.73 471.95 1361.73 452.56 1361.73 433.08 1345.96 417.39 1326.57 417.39Z" fill="#303179" opacity="1" stroke-width="4" stroke="#000000"></path><path d="M1280.45 456.81C1283.1 456.81 1285.26 454.66 1285.26 452 1285.26 449.35 1283.1 447.19 1280.45 447.19 1277.79 447.19 1275.64 449.35 1275.64 452 1275.64 454.66 1277.79 456.81 1280.45 456.81Z" fill="#ffffff" opacity="1" stroke-width="4" stroke="#000000"></path><path d="M1300.16 456.81C1302.81 456.81 1304.97 454.66 1304.97 452 1304.97 449.35 1302.81 447.19 1300.16 447.19 1297.5 447.19 1295.35 449.35 1295.35 452 1295.35 454.66 1297.5 456.81 1300.16 456.81Z" fill="#ffffff" opacity="1" stroke-width="4" stroke="#000000"></path><path d="M1319.95 456.81C1322.6 456.81 1324.76 454.66 1324.76 452 1324.76 449.35 1322.6 447.19 1319.95 447.19 1317.29 447.19 1315.14 449.35 1315.14 452 1315.14 454.66 1317.29 456.81 1319.95 456.81Z" fill="#ffffff" opacity="1" stroke-width="4" stroke="#000000"></path></g><g><path d="M481.41 926.56L486.63 931.23C486.72 931.23 486.72 931.32 486.72 931.41L491.13 945.18C491.13 945.27 491.13 945.36 490.95 945.36L477.19 945.27C477.19 945.27 465.67 940.32 464.77 939.87V939.78L474.49 928.81C474.49 928.81 474.58 928.72 474.67 928.72L481.41 926.56Z" fill="#828282" opacity="1" stroke-width="4" stroke="#000000"></path><path d="M456.32 951.29L448.4 939.51 442.11 938.7 435.81 940.32 429.51 953.09C429.51 953.18 429.51 953.18 429.6 953.18L442.92 955.07 456.23 951.38C456.41 951.38 456.41 951.38 456.32 951.29Z" fill="#ffffff" opacity="1" stroke-width="4" stroke="#000000"></path><path d="M435.9 1003.37L476.92 1004.09 495.63 982.33C495.71 982.24 495.63 982.15 495.54 982.15H418.54C418.45 982.15 418.45 982.24 418.45 982.33L435.9 1003.37Z" fill="#000000" opacity="1" stroke-width="4" stroke="#000000"></path><path d="M444.89 1035.66L464.77 939.78C464.77 939.69 464.86 939.69 464.86 939.69L491.04 945.09C491.13 945.09 491.13 945.18 491.13 945.18L471.34 1041.15 444.89 1035.66Z" fill="#f5cac2" opacity="1" stroke-width="4" stroke="#000000"></path><path d="M482.94 919.63L486.81 931.23C486.81 931.32 486.81 931.32 486.72 931.32L474.76 928.81C474.67 928.81 474.67 928.72 474.67 928.63L482.76 919.54C482.76 919.54 482.85 919.54 482.94 919.63Z" fill="#f5cac2" opacity="1" stroke-width="4" stroke="#000000"></path><path d="M429.6 953.18L456.32 951.38C456.41 951.38 456.41 951.38 456.41 951.47L462.79 1049.25 435.9 1050.96 429.51 953.18C429.51 953.18 429.51 953.18 429.6 953.18Z" fill="#a0e0ff" opacity="1" stroke-width="4" stroke="#000000"></path><path d="M441.3 929.17L435.9 940.32 448.4 939.51 441.48 929.08C441.48 929.08 441.39 929.08 441.3 929.17Z" fill="#a0e0ff" opacity="1" stroke-width="4" stroke="#000000"></path><path d="M457.13 995.55C471.07 995.64 484.65 990.96 495.63 982.24 495.71 982.15 495.8 982.24 495.8 982.33L490.5 1030.72 481.86 1059.77 432.75 1059.32 423.67 1030 418.45 982.33C418.45 982.24 418.54 982.24 418.63 982.24 429.6 990.96 443.19 995.64 457.13 995.55Z" fill="#303179" opacity="1" stroke-width="4" stroke="#000000"></path><path d="M423.67 1030C443.1 1013.63 471.34 1014.08 490.41 1030.72V1030.81L486.72 1064.72H427.35L423.67 1030Z" fill="#000000" opacity="1" stroke-width="4" stroke="#000000"></path></g><g><path d="M483.86 797.3C514.46 797.3 539.27 772.29 539.27 741.44 539.27 710.59 514.46 685.58 483.86 685.58 453.25 685.58 428.44 710.59 428.44 741.44 428.44 772.29 453.25 797.3 483.86 797.3Z" fill="#ff523200" opacity="0" stroke-width="4" stroke="#ffffff00"></path><path d="M476.24 783.27C508.64 783.27 534.91 756.8 534.91 724.14 534.91 691.48 508.64 665 476.24 665 443.84 665 417.58 691.48 417.58 724.14 417.58 756.8 443.84 783.27 476.24 783.27Z" fill="#ff5232" opacity="1" stroke-width="4" stroke="#000000"></path><path d="M459.23 741.15L493.2 707.12" stroke="#000000" stroke-width="4" stroke-linecap="round" stroke-linejoin="round" opacity="1" fill="none"></path><path d="M493.2 741.15L459.23 707.12" stroke="#000000" stroke-width="4" stroke-linecap="round" stroke-linejoin="round" opacity="1" fill="none"></path></g><g><path d="M1036.41 1106.59L905.72 1161.7C905.61 1161.7 905.61 1161.7 905.61 1161.59 903.77 1156.61 902.9 1151.31 903.01 1146.11L903.44 1144.7 1033.81 1089.91C1033.92 1089.91 1034.13 1090.89 1034.13 1090.89 1036.08 1100.63 1036.51 1105.83 1036.41 1106.59 1036.51 1106.59 1036.51 1106.59 1036.41 1106.59Z" fill="#f5cac2" opacity="1" stroke-width="4" stroke="#000000"></path><path d="M1034.13 1090.78C1030.99 1073.78 1026.66 1056.78 1021.9 1040.11 1021.03 1037.29 1020.06 1034.04 1019.08 1031.01L1018.97 1030.9 966.89 1031.66 924.56 1047.79C924.45 1047.79 924.45 1047.9 924.45 1047.9 928.02 1054.94 931.06 1062.74 933 1070.32 934.63 1077.03 934.84 1082.66 933.22 1087.31 924.78 1111.03 903.99 1124.13 903.01 1146 903.01 1146.11 903.01 1146 903.01 1146L1034.13 1090.78Z" fill="#a0e0ff" opacity="1" stroke-width="4" stroke="#000000"></path><path d="M781.42 1161.81H639.47C639.36 1161.81 639.36 1161.81 639.36 1161.7 639.58 1156.5 640.99 1151.2 643.26 1146.43 643.26 1146.43 643.26 1146.32 643.37 1146.32L717.65 1140.15 785.43 1146.32C785.53 1146.32 785.53 1146.43 785.53 1146.43 783.37 1156.07 781.74 1161.16 781.42 1161.81 781.53 1161.81 781.53 1161.81 781.42 1161.81Z" fill="#f5cac2" opacity="1" stroke-width="4" stroke="#000000"></path><path d="M701.63 1070.86C701.52 1070.86 701.52 1070.86 701.63 1070.86 701.63 1081.25 700.66 1089.91 698.28 1096.41 697.3 1099.23 695.79 1101.82 693.84 1104.1 676.95 1122.72 652.58 1126.51 643.27 1146.32H785.54C789.12 1129.76 792.15 1113.41 793.99 1096.73 794.21 1094.68 794.53 1092.19 794.75 1089.81 794.75 1089.81 794.75 1089.7 794.64 1089.7L750.36 1072.16 701.63 1070.86Z" fill="#a0e0ff" opacity="1" stroke-width="4" stroke="#000000"></path><path d="M668.81 346.72C666.86 351.05 673.69 356.79 674.34 357.33V357.44C670.44 369.78 668.27 384.72 673.69 393.27 680.18 403.99 693.72 407.03 709.42 404.97 709.53 404.97 709.53 404.97 709.53 405.08L708.33 412.11 767.67 422.73C767.78 422.73 767.78 422.73 767.78 422.62 768.53 419.48 777.95 414.06 778.5 410.6 779.04 407.78 779.36 404.75 779.9 401.72 782.94 384.72 782.61 365.56 784.78 352.78 788.78 328.63 792.57 310.77 764.64 292.69 748.07 281.97 727.93 280.34 709.53 285.11 709.53 285.11 684.62 289.98 683.54 319.86 683.54 319.97 678.45 340.76 678.02 342.06 678.02 342.06 678.02 342.17 677.91 342.17 677.37 342.39 670.22 343.25 668.81 346.72Z" fill="#e5ac95" opacity="1" stroke-width="4" stroke="#000000"></path><path d="M708.55 412.11C710.07 411.79 722.41 408.87 731.5 397.93 731.61 397.82 731.5 397.71 731.4 397.71 722.09 402.59 710.61 404.75 709.74 404.97 709.74 404.97 709.63 404.97 709.63 405.08L708.44 412.01C708.33 412.01 708.44 412.11 708.55 412.11Z" fill="#e5ac9500" opacity="0" stroke-width="4" stroke="#ffffff00"></path><path d="M834.91 470.91C823 441.78 801.99 423.7 777.52 418.72 777.41 418.72 777.41 418.61 777.41 418.61L778.6 410.71C778.6 410.6 778.6 410.6 778.5 410.6L708.77 410.82C708.66 410.82 708.55 410.92 708.55 411.03L707.25 417.85C707.25 417.96 707.25 417.96 707.14 417.96 705.84 418.07 691.23 418.94 672.06 423.27 642.94 429.76 603.09 482.6 571.69 520.28H571.58L523.94 498.73H523.83L500.01 529.05 490.49 572.69V572.79C514.85 589.36 546.03 606.25 572.67 605.71 617.49 604.63 657.34 560.13 660.04 557.09 660.15 556.99 660.26 557.09 660.26 557.2L670.44 612.21C670.44 612.21 670.44 612.53 670.55 612.53L794.09 614.26 821.48 637.87C821.48 637.87 821.48 637.87 821.59 637.87 822.56 637.87 839.67 637.33 849.09 614.26 855.26 597.59 847.14 501.12 834.91 470.91Z" fill="#f5cac2" opacity="1" stroke-width="4" stroke="#000000"></path><path d="M692.53 522.23L688.84 612.21C688.84 612.31 688.84 612.31 688.74 612.31H670.44C670.44 612.31 670.33 612.31 670.33 612.21L660.15 556.99V556.88L692.31 522.01C692.42 522.01 692.53 522.12 692.53 522.23Z" fill="#f5cac200" opacity="0" stroke-width="4" stroke="#ffffff00"></path><path d="M683.65 319.97C696.86 336.11 719.05 351.91 720.35 352.89H720.46C721.76 351.81 745.8 332.53 758.36 344.33 775.03 359.28 751.54 381.58 744.28 385.37 744.17 385.37 744.17 385.48 744.28 385.59 759.22 401.07 778.5 401.72 779.9 401.72 779.9 401.72 780.01 401.72 780.01 401.61 783.04 385.59 786.94 364.8 788.78 353.86 792.79 329.72 794.2 303.84 766.37 285.76 749.8 275.04 726.63 274.61 708.33 279.37H708.23C707.47 278.4 695.67 263.89 678.99 272.87 664.48 282.4 670 303.3 683.65 319.97Z" fill="#000000" opacity="1" stroke-width="4" stroke="#000000"></path><path d="M690.37 349.53C692.16 349.53 693.62 348.08 693.62 346.28 693.62 344.49 692.16 343.04 690.37 343.04 688.57 343.04 687.12 344.49 687.12 346.28 687.12 348.08 688.57 349.53 690.37 349.53Z" fill="#000000" opacity="1" stroke-width="4" stroke="#000000"></path><path d="M404.62 459.32C404.73 459.32 404.84 459.21 404.73 459.11 398.78 455.64 397.15 443.08 404.62 445.35 430.18 453.04 459.74 468.53 482.37 479.79L482.47 479.89 473.49 516.71 453.78 542.59C453.78 542.59 453.78 542.59 453.67 542.59 440.79 543.02 420.65 537.93 406.14 526.78 406.14 526.78 406.14 526.78 406.03 526.78 384.48 525.04 362.51 522.12 361.53 516.82 360.34 510.43 386.11 509.78 393.9 509.67 394.01 509.67 394.01 509.45 393.9 509.45 385.78 506.53 340.42 502.42 353.95 484.33V484.23C348 475.13 356.33 470.47 359.04 470.26 359.15 470.26 359.15 470.15 359.15 470.15 358.61 469.07 355.14 462.35 359.91 458.02 363.15 455.21 397.37 458.24 404.62 459.32Z" fill="#e5ac95" opacity="1" stroke-width="4" stroke="#000000"></path><path d="M482.37 479.89L453.78 542.59V542.69C466.02 553.63 476.73 563.48 490.38 572.58 490.49 572.58 490.49 572.58 490.49 572.58L523.83 498.73C523.83 498.63 523.83 498.63 523.83 498.63L482.58 479.79C482.37 479.79 482.37 479.79 482.37 479.89Z" fill="#ffffff" opacity="1" stroke-width="4" stroke="#000000"></path><path d="M793.98 612.21L807.95 549.3C807.95 549.19 808.16 549.19 808.16 549.3L810.44 629.85C810.44 629.96 810.33 629.96 810.22 629.96L793.98 612.21Z" fill="#f5cac200" opacity="0" stroke-width="4" stroke="#ffffff00"></path><path d="M1006.31 992.68C1001.11 978.07 995.69 964.86 990.06 952.73 966.89 902.38 942.42 872.5 927.48 851.28 897.81 809.48 885.15 745.06 859.59 693.2 834.58 641.98 795.17 613.07 793.98 612.21 793.98 612.21 793.98 612.21 793.87 612.21H758.25L670.55 612.31C670.44 612.31 670.44 612.31 670.44 612.42 670.11 616.21 658.74 742.24 675.09 896.32 678.67 929.99 687.11 969.4 693.5 1005.24 697.94 1029.93 701.19 1052.67 701.51 1070.75 701.51 1070.75 701.51 1070.86 701.62 1070.86L758.36 1082.44 794.63 1089.59C794.74 1089.59 794.74 1089.59 794.74 1089.48 796.14 1076.38 797.44 1061.87 798.42 1044.98 798.96 1030.9 799.07 1017.69 798.85 1005.24 797.44 948.18 786.18 910.07 780.34 884.08 774.81 859.29 778.06 830.81 782.29 801.36 782.5 801.36 782.29 801.36 782.5 801.36 798.53 834.6 816.28 869.36 835.02 903.25 850.07 930.64 870.85 960.96 889.8 989.43 903.77 1010.66 916.22 1030.47 924.45 1047.69L924.56 1047.79 1018.97 1030.9C1019.08 1030.9 1019.08 1030.8 1019.08 1030.8 1015.51 1019.43 1011.39 1006.98 1006.31 992.68Z" fill="#303179" opacity="1" stroke-width="4" stroke="#000000"></path><path d="M810.76 857.88C810.87 857.99 810.98 857.99 810.98 857.77L803.83 781.22C802.42 765.96 799.39 750.69 794.74 736.07L790.84 723.73C790.84 723.62 790.62 723.62 790.62 723.73 790.51 749.07 786.08 775.38 782.29 801.04 782.29 801.04 782.29 801.04 782.29 801.15 791.38 819.77 800.91 838.82 810.76 857.88Z" fill="#30317900" opacity="0" stroke-width="4" stroke="#ffffff00"></path><path d="M690.69 365.56C689.6 368.59 684.62 370.97 681.59 369.89" stroke="#000000" stroke-width="4" stroke-linecap="round" stroke-linejoin="round" opacity="1" fill="none"></path><path d="M731.4 397.71C724.79 401.07 712.88 404.43 709.53 405.08" stroke="#000000" stroke-width="4" stroke-linecap="round" stroke-linejoin="round" opacity="1" fill="none"></path><path d="M744.39 360.58L734.54 368.48" stroke="#000000" stroke-width="4" stroke-linecap="round" stroke-linejoin="round" opacity="1" fill="none"></path><path d="M660.05 557.09L692.32 522.12" stroke="#000000" stroke-width="4" stroke-linecap="round" stroke-linejoin="round" opacity="1" fill="none"></path><path d="M359.15 470.37C359.15 470.37 394.23 473.29 416.97 478.27" stroke="#000000" stroke-width="4" stroke-linecap="round" stroke-linejoin="round" opacity="1" fill="none"></path><path d="M404.62 459.11L421.95 462.03" stroke="#000000" stroke-width="4" stroke-linecap="round" stroke-linejoin="round" opacity="1" fill="none"></path><path d="M354.06 484.55C354.06 484.55 391.41 492.02 410.8 495.7" stroke="#000000" stroke-width="4" stroke-linecap="round" stroke-linejoin="round" opacity="1" fill="none"></path><path d="M782.5 801.47C786.83 772.13 790.19 752.85 790.84 723.84" stroke="#000000" stroke-width="4" stroke-linecap="round" stroke-linejoin="round" opacity="1" fill="none"></path><path d="M957.15 1074.76L933.98 1074.65" stroke="#000000" stroke-width="4" stroke-linecap="round" stroke-linejoin="round" opacity="1" fill="none"></path><path d="M954.98 1092.84L932.57 1088.83" stroke="#000000" stroke-width="4" stroke-linecap="round" stroke-linejoin="round" opacity="1" fill="none"></path><path d="M718.73 1105.29L698.26 1096.41" stroke="#000000" stroke-width="4" stroke-linecap="round" stroke-linejoin="round" opacity="1" fill="none"></path><path d="M709.53 1121.1L690.04 1108" stroke="#000000" stroke-width="4" stroke-linecap="round" stroke-linejoin="round" opacity="1" fill="none"></path><path d="M699.57 612.42C699.57 612.42 700.12 773.97 714.19 875.42 728.27 976.87 742.88 1051.91 740.07 1078.33" stroke="#000000" stroke-width="4" stroke-linecap="round" stroke-linejoin="round" opacity="1" fill="none"></path><path d="M793.98 612.21L807.95 549.3" stroke="#000000" stroke-width="4" stroke-linecap="round" stroke-linejoin="round" opacity="1" fill="none"></path></g><g><path d="M328.41 928.24L339.75 862.9 274.4 874.24 289.56 889.4 262.16 916.8 285.85 940.49 313.25 913.09 328.41 928.24Z" fill="#ffffff" opacity="1" stroke-width="4" stroke="#000000"></path></g></svg>