<svg xmlns="http://www.w3.org/2000/svg" height="1200" width="1600" version="1.1" xmlns:xlink="http://www.w3.org/1999/xlink" xmlns:svgjs="http://svgjs.com/svgjs"><rect fill="transparent" width="1600" height="1200"></rect><g><path d="M1114.27 436.85H1427.31C1449.12 436.85 1466.73 455.83 1466.73 479.15V815C1466.73 838.4 1449.05 857.29 1427.31 857.29H1114.27C1092.46 857.29 1074.84 838.32 1074.84 815V479.23C1074.77 455.83 1092.46 436.85 1114.27 436.85Z" fill="#cecece" opacity="1" stroke-width="4" stroke="#000000"></path></g><g><path d="M539.15 579.86H169.21C144.16 579.86 123.91 600.11 123.91 625.16V972.73C123.91 997.79 144.16 1018.04 169.21 1018.04H539.15C564.21 1018.04 584.46 997.79 584.46 972.73V625.16C584.46 600.19 564.12 579.86 539.15 579.86Z" fill="#cecece" opacity="1" stroke-width="4" stroke="#000000"></path><path d="M173.12 659.16C183.41 659.16 191.74 650.83 191.74 640.54 191.74 630.25 183.41 621.91 173.12 621.91 162.84 621.91 154.49 630.25 154.49 640.54 154.49 650.83 162.84 659.16 173.12 659.16Z" fill="#ffffff" opacity="1" stroke-width="4" stroke="#000000"></path><path d="M227.21 659.16C237.5 659.16 245.84 650.83 245.84 640.54 245.84 630.25 237.5 621.91 227.21 621.91 216.93 621.91 208.58 630.25 208.58 640.54 208.58 650.83 216.93 659.16 227.21 659.16Z" fill="#ffffff" opacity="1" stroke-width="4" stroke="#000000"></path><path d="M281.38 659.16C291.67 659.16 300.01 650.83 300.01 640.54 300.01 630.25 291.67 621.91 281.38 621.91 271.1 621.91 262.76 630.25 262.76 640.54 262.76 650.83 271.1 659.16 281.38 659.16Z" fill="#ffffff" opacity="1" stroke-width="4" stroke="#000000"></path></g><g><path d="M279.93 131.42H506.5C523.39 131.42 537.06 145.09 537.06 161.97V367.96C537.06 384.84 523.39 398.51 506.5 398.51H279.93C263.05 398.51 249.38 384.84 249.38 367.96V161.97C249.43 145.09 263.1 131.42 279.93 131.42Z" fill="#61ccff00" opacity="0" stroke-width="4" stroke="#ffffff00"></path><path d="M290.49 120.86H517.05C533.94 120.86 547.61 134.53 547.61 151.42V357.4C547.61 374.29 533.94 387.96 517.05 387.96H290.49C273.6 387.96 259.93 374.29 259.93 357.4V151.42C259.98 134.53 273.65 120.86 290.49 120.86Z" fill="#61ccff" opacity="1" stroke-width="4" stroke="#000000"></path><path d="M358.15 324.05H504.86C515.36 324.05 523.86 332.54 523.86 343.05 523.86 353.55 515.36 362.04 504.86 362.04H339.15V343.05C339.15 332.54 347.64 324.05 358.15 324.05Z" fill="#ffa0dc" opacity="1" stroke-width="4" stroke="#000000"></path><path d="M302.73 324.05C313.24 324.05 321.73 332.54 321.73 343.05 321.73 353.55 313.24 362.04 302.73 362.04 292.23 362.04 283.73 353.55 283.73 343.05 283.73 332.54 292.23 324.05 302.73 324.05Z" fill="#fa8975" opacity="1" stroke-width="4" stroke="#000000"></path><path d="M302.73 144.61H504.86C515.36 144.61 523.86 153.11 523.86 163.61V284.99C523.86 295.5 515.36 303.99 504.86 303.99H302.73C292.23 303.99 283.73 295.5 283.73 284.99V163.61C283.73 153.11 292.23 144.61 302.73 144.61Z" fill="#ffffff" opacity="1" stroke-width="4" stroke="#000000"></path><path d="M310.65 277.6H494.31" stroke="#000000" stroke-width="4" stroke-linecap="round" stroke-linejoin="round" opacity="1" fill="none"></path><path d="M348.91 288.69C354.89 288.69 359.73 283.84 359.73 277.87 359.73 271.89 354.89 267.05 348.91 267.05 342.94 267.05 338.09 271.89 338.09 277.87 338.09 283.84 342.94 288.69 348.91 288.69Z" fill="#303030" opacity="1" stroke-width="4" stroke="#000000"></path><path d="M421 206.41L393.08 187.94C390.92 186.51 388.02 187.09 386.59 189.26 386.06 190.05 385.8 190.95 385.8 191.84V228.73C385.8 231.32 387.91 233.43 390.5 233.43 391.4 233.43 392.35 233.17 393.08 232.64L421 214.17C423.17 212.74 423.69 209.79 422.27 207.68 421.9 207.15 421.48 206.73 421 206.41Z" fill="#fa8975" opacity="1" stroke-width="4" stroke="#000000"></path></g><g><path d="M965.03 1112.36C996.48 1100.12 1085.93 1041.9 1056.46 1005.47 1026.99 969.04 933.17 981.81 928.4 996.03 922.38 1014.09 990.35 1000.49 1002.49 964.27 1014.64 928.05 919.26 955.03 910.55 928.47 903.49 906.88 961.29 881.77 961.4 841.19" stroke="#000000" stroke-width="4" stroke-linecap="round" stroke-linejoin="round" opacity="1" fill="none"></path></g><g><path d="M1140.29 732.27V588.77C1140.29 579.74 1147.62 572.41 1156.65 572.41H1390.3C1399.34 572.41 1406.66 579.74 1406.66 588.77V732.27H1140.29Z" fill="#cecece" opacity="1" stroke-width="4" stroke="#000000"></path><path d="M1176.34 654.2C1171.11 654.2 1166.92 649.92 1166.92 644.78V554.34C1166.92 549.11 1171.2 544.93 1176.34 544.93H1267.72C1272.95 544.93 1277.14 549.21 1277.14 554.34V644.78C1277.14 650.01 1272.86 654.2 1267.72 654.2H1176.34V654.2ZM1176.34 548.73C1173.29 548.73 1170.72 551.21 1170.72 554.34V644.78C1170.72 647.82 1173.2 650.39 1176.34 650.39H1267.72C1270.77 650.39 1273.33 647.92 1273.33 644.78V554.34C1273.33 551.3 1270.86 548.73 1267.72 548.73H1176.34Z" fill="#303179" opacity="1" stroke-width="4" stroke="#000000"></path><path d="M1321.45 759.37C1316.22 759.37 1312.04 755.09 1312.04 749.96V659.52C1312.04 654.29 1316.32 650.11 1321.45 650.11H1412.37C1417.6 650.11 1421.78 654.39 1421.78 659.52V749.96C1421.78 755.19 1417.5 759.37 1412.37 759.37H1321.45ZM1321.45 653.91C1318.41 653.91 1315.84 656.38 1315.84 659.52V749.96C1315.84 753 1318.31 755.57 1321.45 755.57H1412.37C1415.41 755.57 1417.98 753.1 1417.98 749.96V659.52C1417.98 656.48 1415.5 653.91 1412.37 653.91H1321.45Z" fill="#303179" opacity="1" stroke-width="4" stroke="#000000"></path><path d="M1127.84 749.39C1122.61 749.39 1118.42 745.11 1118.42 739.97V681.96C1118.42 676.73 1122.7 672.55 1127.84 672.55H1179.47C1184.7 672.55 1188.89 676.83 1188.89 681.96V739.97C1188.89 745.2 1184.61 749.39 1179.47 749.39H1127.84ZM1127.84 676.35C1124.79 676.35 1122.23 678.83 1122.23 681.96V739.97C1122.23 743.02 1124.7 745.58 1127.84 745.58H1179.47C1182.52 745.58 1185.08 743.11 1185.08 739.97V681.96C1185.08 678.92 1182.61 676.35 1179.47 676.35H1127.84Z" fill="#303179" opacity="1" stroke-width="4" stroke="#000000"></path><path d="M1180.71 615.59L1180.61 557.77H1263.35V615.59H1180.71Z" fill="#303179" opacity="1" stroke-width="4" stroke="#000000"></path><path d="M1181.85 634.23C1180.23 632.51 1180.23 629.95 1181.85 628.23 1182.71 627.28 1183.85 626.81 1185.08 626.81 1186.23 626.81 1187.27 627.19 1188.13 627.95L1189.08 628.9 1190.03 627.95C1190.89 627.09 1192.03 626.62 1193.17 626.62 1194.31 626.62 1195.45 627.09 1196.31 627.95 1198.02 629.66 1198.02 632.51 1196.31 634.23L1189.08 641.45 1181.85 634.23Z" fill="#303179" opacity="1" stroke-width="4" stroke="#000000"></path><path d="M1233.11 708.12C1221.32 708.12 1211.62 698.51 1211.62 686.62V617.39C1211.62 605.6 1221.22 595.9 1233.11 595.9H1313.27C1325.07 595.9 1334.77 605.51 1334.77 617.39V686.62C1334.77 698.42 1325.16 708.12 1313.27 708.12H1233.11Z" fill="#ffa0dc" opacity="1" stroke-width="4" stroke="#000000"></path><path d="M1302.72 670.74C1301.67 670.74 1300.72 670.36 1299.87 669.79L1282.65 656C1282.37 655.81 1282.18 655.53 1281.89 655.24 1281.13 654.29 1280.85 653.15 1280.94 651.91 1281.04 650.68 1281.7 649.63 1282.65 648.87L1299.87 635.08C1300.63 634.42 1301.67 634.13 1302.72 634.13 1305.19 634.13 1307.28 636.13 1307.28 638.7V666.18C1307.28 667.22 1306.9 668.18 1306.33 669.03 1305.38 670.08 1304.15 670.74 1302.72 670.74Z" fill="#303030" opacity="1" stroke-width="4" stroke="#000000"></path><path d="M1250.51 675.59C1245.28 675.59 1241.1 671.31 1241.1 666.18V638.12C1241.1 632.89 1245.38 628.71 1250.51 628.71H1280.37C1285.6 628.71 1289.79 632.99 1289.79 638.12V666.08C1289.79 671.31 1285.51 675.5 1280.37 675.5H1250.51V675.59Z" fill="#303030" opacity="1" stroke-width="4" stroke="#000000"></path></g><g><path d="M418.69 746.26H399.7L396.15 735.2C393.44 726.85 385.72 721.21 377.16 721.21H335.63C326.86 721.21 319.35 726.85 316.64 735.2L313.09 746.26H294.1C271.97 746.26 254.23 764.21 254.23 786.12V862.92C254.23 885.05 272.18 902.79 294.1 902.79H418.9C441.02 902.79 458.76 884.84 458.76 862.92V786.12C458.55 764.21 440.6 746.26 418.69 746.26ZM358.38 852.7C341.05 852.7 327.07 838.71 327.07 821.39 327.07 804.07 341.05 790.09 358.38 790.09 375.7 790.09 389.68 804.07 389.68 821.39 389.68 838.71 375.7 852.7 358.38 852.7Z" fill="#fa8975" opacity="1" stroke-width="4" stroke="#000000"></path></g><g><path d="M1084.44 946.19L1079.21 915.76 1098.6 940.29 1113.65 912.5 1112.24 944.26 1137.85 942.27 1113.18 959.07 1132.48 985.87 1103.93 974.64 1093.74 1006.11 1088.13 971.29 1066.14 987 1079.4 961.43 1055.33 944.77 1084.44 946.19Z" fill="#303179" opacity="1" stroke-width="4" stroke="#000000"></path><path d="M1274.12 1023.38L1238.45 997.15 1258.4 1037.49 1220.75 1057.4 1264.21 1056.69 1258.97 1082.45 1277.32 1062.78 1290.58 1098.92 1294.64 1060.32 1340.6 1078.02 1300.73 1047.16 1343.19 1023.52 1295.35 1027.58 1300.68 989.79 1274.12 1023.38Z" fill="#303179" opacity="1" stroke-width="4" stroke="#000000"></path></g><g><path d="M640.16 249.06C628.88 249.06 619.73 239.91 619.73 228.63 619.73 217.35 628.88 208.21 640.16 208.21 651.44 208.21 660.58 217.35 660.58 228.63 660.58 239.91 651.44 249.06 640.16 249.06Z" fill="#303179" opacity="1" stroke-width="4" stroke="#000000"></path><path d="M679.84 162.1C668.56 162.1 659.42 152.96 659.42 141.67 659.42 130.39 668.56 121.25 679.84 121.25 691.12 121.25 700.27 130.39 700.27 141.67 700.27 152.96 691.12 162.1 679.84 162.1Z" fill="#fa8975" opacity="1" stroke-width="4" stroke="#000000"></path></g><g><path d="M305.51 473.98C315.13 473.98 322.91 481.77 322.91 491.38 322.91 500.99 315.13 508.78 305.51 508.78 295.9 508.78 288.11 500.99 288.11 491.38 288.11 481.77 295.9 473.98 305.51 473.98Z" fill="#303179" opacity="1" stroke-width="4" stroke="#000000"></path></g><g><path d="M1343.39 281.98C1353 281.98 1360.79 289.77 1360.79 299.38 1360.79 308.99 1353 316.78 1343.39 316.78 1333.78 316.78 1325.99 308.99 1325.99 299.38 1325.99 289.77 1333.78 281.98 1343.39 281.98Z" fill="#61ccff" opacity="1" stroke-width="4" stroke="#000000"></path></g><g><path d="M1163.98 225.23L1176.7 285.79 1135.8 246.36 1040.02 288.63 1106.26 219.55 1061.15 168.87 1127.39 184.33 1162.61 109.68 1158.41 185.8 1224.65 173.08 1163.98 225.23Z" stroke="#000000" stroke-width="4" stroke-linecap="round" stroke-linejoin="round" opacity="1" fill="none"></path></g><g><path d="M529.96 694.18L529.9 403.04C529.9 384.75 544.78 369.83 563.09 369.81H1037.05C1055.32 369.85 1070.19 384.77 1070.21 403.04V694.18H529.96Z" fill="#ffffff" opacity="1" stroke-width="4" stroke="#000000"></path><path d="M603.08 535.81C592.51 535.81 583.88 527.2 583.88 516.63V333.18C583.88 322.59 592.49 314 603.06 314H788.48C799.04 314 807.64 322.59 807.66 333.16V516.63C807.66 527.2 799.05 535.81 788.48 535.81H603.08ZM603.08 321.83C596.85 321.85 591.77 326.93 591.76 333.16V516.63C591.76 522.86 596.85 527.95 603.08 527.97H788.48C794.71 527.95 799.81 522.88 799.83 516.63V333.18C799.81 326.93 794.71 321.83 788.48 321.83H603.08Z" fill="#61ccff" opacity="1" stroke-width="4" stroke="#000000"></path><path d="M897.45 749.09C886.87 749.09 878.27 740.48 878.27 729.91V546.44C878.27 535.86 886.87 527.26 897.45 527.26H1081.9C1092.48 527.26 1101.08 535.86 1101.08 546.44V729.91C1101.08 740.48 1092.48 749.09 1081.9 749.09H897.45V749.09ZM897.45 535.09C891.2 535.09 886.1 540.19 886.1 546.44V729.91C886.1 736.16 891.2 741.23 897.45 741.25H1081.9C1088.15 741.23 1093.25 736.16 1093.25 729.91V546.44C1093.25 540.19 1088.15 535.09 1081.9 535.09H897.45Z" fill="#61ccff" opacity="1" stroke-width="4" stroke="#000000"></path><path d="M504.71 728.93C494.14 728.93 485.53 720.32 485.53 709.75V592.06C485.53 581.49 494.14 572.89 504.71 572.89H609.54C620.12 572.89 628.72 581.49 628.72 592.06V709.75C628.72 720.32 620.12 728.93 609.54 728.93H504.71ZM504.71 580.72C498.46 580.72 493.36 585.81 493.36 592.06V709.75C493.36 716 498.46 721.07 504.71 721.09H609.54C615.77 721.07 620.87 716 620.89 709.75V592.06C620.87 585.81 615.77 580.72 609.54 580.72H504.71V580.72Z" fill="#61ccff" opacity="1" stroke-width="4" stroke="#000000"></path><path d="M611.9 457.5L611.84 340.06 779.59 340.01 779.63 457.5H611.9Z" fill="#61ccff" opacity="1" stroke-width="4" stroke="#000000"></path><path d="M614.19 495.12C610.99 491.63 610.99 486.4 614.19 482.91 615.89 481.05 618.32 479.99 620.83 479.99 623.11 479.99 625.27 480.82 626.95 482.37L628.87 484.3 630.73 482.37C632.42 480.67 634.68 479.72 637.09 479.72 639.5 479.72 641.76 480.67 643.48 482.37 646.97 485.88 646.97 491.61 643.46 495.12L628.84 509.76 614.19 495.12Z" fill="#61ccff" opacity="1" stroke-width="4" stroke="#000000"></path><path d="M660.34 913.96C653.11 913.96 647.24 908.08 647.24 900.86 647.24 893.63 653.11 887.76 660.34 887.76H712.43L712.37 763C712.37 742.41 729.12 725.67 749.7 725.67H850.37C870.96 725.67 887.7 742.41 887.7 763V876.65C887.68 897.22 870.94 913.96 850.37 913.96H660.34V913.96Z" fill="#303179" opacity="1" stroke-width="4" stroke="#000000"></path><path d="M536.58 805.9C502.05 805.9 473.95 777.81 473.95 743.28V376.55C473.99 342.05 502.08 314 536.58 314H1063.56C1098.03 314.02 1126.12 342.07 1126.16 376.55V743.28C1126.16 777.81 1098.07 805.9 1063.54 805.9H536.58ZM563.13 369.93C544.87 369.93 530.02 384.78 530.02 403.04V694.12L1070.15 694.06 1070.21 403.04C1070.21 384.78 1055.34 369.93 1037.09 369.93H563.13V369.93Z" fill="#303179" opacity="1" stroke-width="4" stroke="#000000"></path><path d="M800.08 773.3C787.21 773.3 776.73 762.82 776.73 749.95 776.73 737.09 787.21 726.61 800.08 726.61 812.95 726.61 823.42 737.09 823.42 749.95 823.42 762.82 812.95 773.3 800.08 773.3Z" fill="#ffa0dc" opacity="1" stroke-width="4" stroke="#000000"></path><path d="M800.08 349.42C795.95 349.42 792.57 346.05 792.57 341.92 792.57 337.77 795.95 334.41 800.08 334.41 804.21 334.41 807.58 337.77 807.58 341.92 807.58 346.05 804.21 349.42 800.08 349.42Z" fill="#000000" opacity="1" stroke-width="4" stroke="#000000"></path><path d="M887.65 806.06H712.08" stroke="#000000" stroke-width="4" opacity="1" fill="none"></path></g></svg>