<svg xmlns="http://www.w3.org/2000/svg" height="1200" width="1600" version="1.1" xmlns:xlink="http://www.w3.org/1999/xlink" xmlns:svgjs="http://svgjs.com/svgjs"><rect fill="transparent" width="1600" height="1200"></rect><g><path d="M1255.78 891.96C1256.94 904.71 1264 926.93 1288.22 929.88 1312.35 932.83 1322.77 926.72 1345.1 939.05 1364.49 949.69 1369.54 978.97 1369.54 978.97L1317.4 1004.04C1317.4 1004.04 1312.66 983.6 1298.44 976.12 1273.27 962.96 1249.57 978.76 1224.81 958.85 1205.96 943.68 1203.64 918.09 1203.64 918.09L1255.78 891.96Z" fill="#ffffff" opacity="1" stroke-width="4" stroke="#000000"></path></g><g><path d="M316.35 213.7L423.47 291.53C423.86 291.13 424.05 290.16 423.86 289.38L387.34 166.93 318.3 199.93C317.52 200.22 315.76 213.11 316.35 213.7Z" fill="#a0e0ff" opacity="1" stroke-width="4" stroke="#000000"></path><path d="M423.17 291.62L310.39 235.48C310.1 235.28 309.9 234.99 310 234.6L317.71 200.42C317.81 199.83 318.49 199.64 318.98 200.03L423.56 291.13C423.76 291.43 423.47 291.82 423.17 291.62Z" fill="#221f1f" opacity="1" stroke-width="4" stroke="#000000"></path></g><g><path d="M598.69 251.71H1058.99C1077.71 251.71 1092.76 273.59 1092.76 300.62L1092.76 806.92C1092.76 833.94 1077.6 855.66 1058.99 855.66H598.69C579.96 855.66 564.8 833.78 564.8 806.92L564.8 300.62C564.91 273.59 579.96 251.71 598.69 251.71Z" fill="#221f1f00" opacity="0" stroke-width="4" stroke="#ffffff00"></path><path d="M581.97 227.58H1042.26C1060.99 227.58 1076.04 249.46 1076.04 276.48L1076.04 782.78C1076.04 809.81 1060.88 831.53 1042.26 831.53H581.97C563.24 831.53 548.08 809.65 548.08 782.78L548.08 276.48C548.19 249.46 563.24 227.58 581.97 227.58Z" fill="#ffffff" opacity="1" stroke-width="4" stroke="#000000"></path><path d="M622.99 290.16H768.47C777.06 290.16 784.08 300.29 784.08 312.68V313.65C784.08 326.04 777.06 336.17 768.47 336.17H622.99C614.41 336.17 607.39 326.04 607.39 313.65V312.68C607.39 300.29 614.41 290.16 622.99 290.16Z" fill="#303179" opacity="1" stroke-width="4" stroke="#000000"></path><path d="M982.18 290.16H1076.04V336.17H982.18C973.59 336.17 966.57 326.04 966.57 313.65V312.68C966.57 300.29 973.59 290.16 982.18 290.16Z" fill="#303179" opacity="1" stroke-width="4" stroke="#000000"></path><path d="M745.06 504.94H793.67C802.25 504.94 809.27 515.07 809.27 527.46V528.43C809.27 540.81 802.25 550.95 793.67 550.95H745.06C736.48 550.95 729.46 540.81 729.46 528.43V527.46C729.46 514.91 736.48 504.94 745.06 504.94Z" fill="#ff7a61" opacity="1" stroke-width="4" stroke="#000000"></path><path d="M697.13 719.72H745.73C754.32 719.72 761.34 729.85 761.34 742.24V743.21C761.34 755.59 754.32 765.73 745.73 765.73H697.13C688.54 765.73 681.52 755.59 681.52 743.21V742.24C681.52 729.69 688.54 719.72 697.13 719.72Z" fill="#303179" opacity="1" stroke-width="4" stroke="#000000"></path><path d="M803.25 719.72H897.45C906.04 719.72 913.06 729.85 913.06 742.24V743.21C913.06 755.59 906.04 765.73 897.45 765.73H803.25C794.67 765.73 787.65 755.59 787.65 743.21V742.24C787.65 729.69 794.56 719.72 803.25 719.72Z" fill="#303179" opacity="1" stroke-width="4" stroke="#000000"></path><path d="M745.06 612.25H911.05C919.64 612.25 926.66 622.38 926.66 634.77V635.74C926.66 648.12 919.64 658.26 911.05 658.26H745.06C736.48 658.26 729.46 648.12 729.46 635.74V634.77C729.46 622.38 736.48 612.25 745.06 612.25Z" fill="#a0e0ff" opacity="1" stroke-width="4" stroke="#000000"></path><path d="M622.99 397.47H768.47C777.06 397.47 784.08 407.6 784.08 419.99V420.96C784.08 433.34 777.06 443.48 768.47 443.48H622.99C614.41 443.48 607.39 433.34 607.39 420.96V419.99C607.39 407.6 614.41 397.47 622.99 397.47Z" fill="#a0e0ff" opacity="1" stroke-width="4" stroke="#000000"></path><path d="M845.39 397.15H919.08C927.66 397.15 934.69 407.28 934.69 419.67V420.64C934.69 433.02 927.66 443.16 919.08 443.16H845.39C836.81 443.16 829.79 433.02 829.79 420.64V419.67C829.79 407.12 836.81 397.15 845.39 397.15Z" fill="#a0e0ff" opacity="1" stroke-width="4" stroke="#000000"></path><path d="M581.97 227.58H645.07L645.07 831.53H581.97C563.24 831.53 548.08 809.65 548.08 782.78L548.08 276.48C548.08 249.46 563.24 227.58 581.97 227.58Z" fill="#ffffff" opacity="1" stroke-width="4" stroke="#000000"></path><path d="M581.97 227.58H645.07L645.07 831.53H581.97C563.24 831.53 548.08 809.65 548.08 782.78L548.08 276.48C548.08 249.46 563.24 227.58 581.97 227.58Z" fill="#d2d2d2" opacity="0.2" stroke-width="4" stroke="#000000"></path><path d="M1076.04 365.93H646.18" stroke="#000000" stroke-width="4" stroke-linejoin="round" opacity="1" fill="none"></path><path d="M1076.04 474.53H646.18" stroke="#000000" stroke-width="4" stroke-linejoin="round" opacity="1" fill="none"></path><path d="M1076.04 584.74H646.18" stroke="#000000" stroke-width="4" stroke-linejoin="round" opacity="1" fill="none"></path><path d="M1076.04 688.34H646.18" stroke="#000000" stroke-width="4" stroke-linejoin="round" opacity="1" fill="none"></path><path d="M645.07 227.58L645.07 831.53" stroke="#000000" stroke-width="4" stroke-linejoin="round" opacity="1" fill="none"></path><path d="M585.76 313.17H607.39" stroke="#000000" stroke-width="4" stroke-linecap="round" stroke-linejoin="round" opacity="1" fill="none"></path><path d="M585.76 420.15H607.39" stroke="#000000" stroke-width="4" stroke-linecap="round" stroke-linejoin="round" opacity="1" fill="none"></path><path d="M585.76 527.14H607.39" stroke="#000000" stroke-width="4" stroke-linecap="round" stroke-linejoin="round" opacity="1" fill="none"></path><path d="M585.76 635.74H607.39" stroke="#000000" stroke-width="4" stroke-linecap="round" stroke-linejoin="round" opacity="1" fill="none"></path><path d="M585.76 742.72H607.39" stroke="#000000" stroke-width="4" stroke-linecap="round" stroke-linejoin="round" opacity="1" fill="none"></path></g><g><path d="M269.38 364.61L258.07 450.47C258.3 451.25 259.58 452.15 260.19 451.89L400.32 397.66C400.69 397.5 400.65 396.94 400.28 396.85L271.75 362.99C271.21 362.78 269.49 363.12 269.38 364.61Z" fill="#303179" opacity="1" stroke-width="4" stroke="#000000"></path><path d="M270.5 364.02L259.12 450.35C259.06 450.91 258.27 451.05 258.07 450.47L236.41 397.1 269.73 363.64C270.03 363.33 270.57 363.55 270.5 364.02Z" fill="#221f1f" opacity="1" stroke-width="4" stroke="#000000"></path></g><g><path d="M351.71 745.4L313.65 764.16 308.31 724.86 292.33 760.13 258.37 744.15 280.34 776.1 250.35 793.44H285.68L278.32 828.05 301.66 802.76 325.59 839.4 321.61 798.07 369.58 800.74 331.58 776.81 351.71 745.4Z" fill="#ffffff" opacity="1" stroke-width="4" stroke="#000000"></path></g><g><path d="M1097 330.35C1134.81 330.35 1165.47 299.69 1165.47 261.88 1165.47 224.07 1134.81 193.41 1097 193.41 1059.19 193.41 1028.53 224.07 1028.53 261.88 1028.53 299.69 1059.19 330.35 1097 330.35Z" fill="#a0e0ff" opacity="1" stroke-width="4" stroke="#000000"></path><path d="M1125.39 241.39C1118.49 234.49 1107.4 234.49 1100.5 241.39L1096.9 244.99 1093.3 241.39C1086.3 234.69 1075.21 234.89 1068.41 241.89 1061.92 248.69 1061.92 259.38 1068.41 266.18L1072.01 269.78 1094.7 292.47C1095.9 293.67 1097.9 293.67 1099.1 292.47L1121.79 269.78 1125.39 266.18C1132.18 259.38 1132.28 248.29 1125.39 241.39Z" fill="#ffffff" opacity="1" stroke-width="4" stroke="#000000"></path></g><g><path d="M577.53 527.8L573.48 555.11H482.72L477.47 527.88 475.82 519.85 578.21 523.9 577.53 527.8Z" fill="#e5ac95" opacity="1" stroke-width="4" stroke="#000000"></path><path d="M444.47 512.88C447.99 485.2 456.09 450.25 467.34 432.24 477.47 415.97 502.97 407.11 502.97 407.11 502.97 407.11 502.15 403.14 500.95 397.36H555.18L557.36 405.99C590.36 405.24 609.86 426.99 609.86 426.99L637.99 454.37 648.49 428.87 698.37 444.02C693.05 479.12 678.65 520.98 649.99 525.63 622.24 530.13 582.86 495.25 582.86 495.25L578.06 524.88 477.47 524.88 483.62 556.68 472.22 571.39C460.22 563.13 439.97 548.13 444.47 512.88Z" fill="#ff7a61" opacity="1" stroke-width="4" stroke="#000000"></path><path d="M645.12 437.04L650.14 466.67 637.99 454.37 645.12 437.04Z" fill="#ff7a6100" opacity="0" stroke-width="4" stroke="#ffffff00"></path><path d="M472.82 500.43L483.62 556.68 472.59 571.61C468.47 568.76 463.52 565.31 458.72 560.43 465.17 550.83 471.47 542.88 472.82 500.43Z" fill="#ff7a6100" opacity="0" stroke-width="4" stroke="#ffffff00"></path><path d="M582.71 496L579.63 515.05 567.11 481.52 582.71 496Z" fill="#ff7a6100" opacity="0" stroke-width="4" stroke="#ffffff00"></path><path d="M658.77 402.76C655.77 378.76 657.27 357.01 658.77 353.26 659.67 351.08 663.27 352.51 665.52 355.51 668.52 333.01 676.02 322.5 681.27 323.25 684.27 318.75 688.77 318.75 691.02 324 695.52 324 696.72 327.68 697.02 331.51 697.77 342.01 695.52 353.26 696.27 365.26 698.52 359.26 704.52 339.23 709.02 339.76 715.78 340.51 707.3 360.76 708.27 380.26 709.77 411.02 700.77 417.77 700.77 417.77 700.55 427.14 699.57 436.44 698.15 445.67L647.82 430.44 658.77 402.76Z" fill="#e5ac95" opacity="1" stroke-width="4" stroke="#000000"></path><path d="M472.22 494.88L477.47 524.88" stroke="#000000" stroke-width="4" stroke-linecap="round" stroke-linejoin="round" opacity="1" fill="none"></path><path d="M582.86 495.25L572.66 486.62" stroke="#000000" stroke-width="4" stroke-linecap="round" stroke-linejoin="round" opacity="1" fill="none"></path><path d="M637.99 454.37L649.24 465.62" stroke="#000000" stroke-width="4" stroke-linecap="round" stroke-linejoin="round" opacity="1" fill="none"></path><path d="M690.87 324C690.87 324 685.62 342.01 684.12 369.76" stroke="#000000" stroke-width="4" stroke-linecap="round" stroke-linejoin="round" opacity="1" fill="none"></path><path d="M681.27 323.25C681.27 323.25 674.3 338.26 672.04 367.51" stroke="#000000" stroke-width="4" stroke-linecap="round" stroke-linejoin="round" opacity="1" fill="none"></path><path d="M696.27 365.26L695.37 372.76" stroke="#000000" stroke-width="4" stroke-linecap="round" stroke-linejoin="round" opacity="1" fill="none"></path><path d="M665.52 355.51C666.04 355.51 663.19 369.01 662.29 378.76" stroke="#000000" stroke-width="4" stroke-linecap="round" stroke-linejoin="round" opacity="1" fill="none"></path><path d="M506.87 959.93C509.27 963.76 511.07 968.19 511.22 972.69H402.46C401.34 968.49 400.21 964.21 399.54 959.93H506.87Z" fill="#302a29" opacity="1" stroke-width="4" stroke="#000000"></path><path d="M397.96 867.67C398.11 865.8 398.34 864 398.56 862.2L402.31 846.9 480.77 847.42C480.77 847.42 477.4 862.87 477.77 862.8 467.34 894.45 462.47 918.6 471.47 928.43 473.42 930.61 475.6 932.63 477.77 934.51L467.87 960.68H418.96L396.39 929.26C395.33 908.7 395.86 888.15 397.96 867.67Z" fill="#e5ac95" opacity="1" stroke-width="4" stroke="#000000"></path><path d="M477.77 934.51C488.65 943.88 501.17 950.63 507.32 960.68H462.47C463.14 950.03 468.77 940.28 477.77 934.51Z" fill="#ff7a61" opacity="1" stroke-width="4" stroke="#000000"></path><path d="M396.31 929.26C413.34 930.16 426.99 943.73 427.89 960.68H399.69C397.96 950.26 396.84 939.76 396.31 929.26Z" fill="#ff7a61" opacity="1" stroke-width="4" stroke="#000000"></path><path d="M422.71 943.43L469.22 920.18" stroke="#000000" stroke-width="4" stroke-linecap="round" stroke-linejoin="round" opacity="1" fill="none"></path><path d="M409.36 815.17H494.72C492.7 820.64 490.67 826.04 488.8 831.44 484.75 842.47 481 853.05 477.77 862.87 476.95 862.95 476.12 863.02 475.3 863.02 467.04 863.02 459.84 857.62 457.44 849.75 454.44 859.57 444.09 865.2 434.19 862.2 428.19 860.4 423.54 855.75 421.74 849.75 418.74 859.57 408.39 865.12 398.56 862.27 399.99 849.97 402.46 837.74 405.91 825.89 407.04 822.07 408.16 818.54 409.36 815.17Z" fill="#ffffff" opacity="1" stroke-width="4" stroke="#000000"></path><path d="M440.72 710.9C441.47 626.89 452.72 589.61 482.72 552.86H496.9 524.73 573.48C573.48 552.86 608.74 663.65 602.74 757.41 601.39 778.56 599.74 797.84 598.16 815.17L598.09 815.24H517C520.98 784.56 527.5 760.56 521.43 729.06 519.4 741.36 516.78 752.76 513.47 762.66 507.4 780.66 500.87 798.36 494.72 815.17L494.2 815.92 409.36 816.59V815.17C422.26 778.64 440.27 757.63 440.72 710.9Z" fill="#f5cac2" opacity="1" stroke-width="4" stroke="#000000"></path><path d="M493.6 684.27C481.75 627.42 494.72 614.82 494.72 614.82 494.5 657.2 522.18 733.11 522.18 733.11 519.55 740.83 508.3 778.04 505.6 785.61 505.52 785.61 507.25 749.91 493.6 684.27Z" fill="#f5cac200" opacity="0" stroke-width="4" stroke="#ffffff00"></path><path d="M459.92 618.64C456.47 618.64 453.17 617.67 450.24 615.94 453.17 604.39 457.29 593.29 462.84 582.64L481.22 582.64 478.22 602.81C476.87 611.89 469.14 618.64 459.92 618.64Z" fill="#ffffff" opacity="1" stroke-width="4" stroke="#000000"></path><path d="M644.74 972.69H535.98C535.98 972.69 534.03 968.34 531.33 959.93H640.17C642.72 963.76 644.59 968.11 644.74 972.69Z" fill="#302a29" opacity="1" stroke-width="4" stroke="#000000"></path><path d="M523.23 929.63C518.88 908.48 516.1 886.95 514.98 865.42 514.9 864.52 514.98 863.7 514.9 862.8 515.2 862.87 517.38 847.8 517.38 847.8L593.06 846.97 594.11 862.42C591.86 894.75 592.53 915.98 601.91 926.18 604.76 929.18 607.91 932.11 611.14 934.66L605.29 960.76H545.5L523.23 929.63Z" fill="#e5ac95" opacity="1" stroke-width="4" stroke="#000000"></path><path d="M611.14 934.58C622.01 943.36 634.39 950.71 640.69 960.68H596.06C596.66 950.11 602.21 940.43 611.14 934.58Z" fill="#ff7a61" opacity="1" stroke-width="4" stroke="#000000"></path><path d="M523.23 929.63C525.1 929.33 526.98 929.18 528.85 929.18 546.55 929.18 561.18 942.98 562.16 960.68H531.33C528.1 950.48 525.4 940.13 523.23 929.63Z" fill="#ff7a61" opacity="1" stroke-width="4" stroke="#000000"></path><path d="M482.72 552.86H573.48" stroke="#000000" stroke-width="4" stroke-linecap="round" stroke-linejoin="round" opacity="1" fill="none"></path><path d="M522.18 733.11C520.6 723.73 518.2 714.58 514.98 705.65 501.1 666.95 495.25 637.09 493.45 613.09" stroke="#000000" stroke-width="4" stroke-linecap="round" stroke-linejoin="round" opacity="1" fill="none"></path><path d="M546.48 582.64H507.47L510.4 602.81C511.75 611.89 519.55 618.64 528.7 618.64 538.9 618.64 547.15 610.39 547.15 600.11 547.15 599.89 547.15 599.59 547.15 599.36L546.48 582.64Z" fill="#ffffff" opacity="1" stroke-width="4" stroke="#000000"></path><path d="M554.73 941.18L598.99 917.93" stroke="#000000" stroke-width="4" stroke-linecap="round" stroke-linejoin="round" opacity="1" fill="none"></path><path d="M597.11 826.57C595.99 839.39 594.94 851.1 594.18 861.6 584.43 864.15 574.46 858.6 571.53 849 568.53 858.82 558.18 864.45 548.28 861.45 542.28 859.65 537.63 855 535.83 849 533.43 856.87 526.15 862.27 517.98 862.27 517 862.27 515.95 862.2 514.98 862.05 514.45 849.75 514.75 837.37 516.03 825.07 516.4 821.47 516.63 817.94 517.08 814.42H598.24C597.86 818.62 597.49 822.67 597.11 826.57Z" fill="#ffffff" opacity="1" stroke-width="4" stroke="#000000"></path><path d="M505.45 356.78C503.2 344.78 495.47 329.18 508.6 318.3 521.73 307.43 534.48 293.85 551.73 300.6 568.01 306.98 571.31 319.73 577.98 339.61 577.98 339.61 585.48 340.36 586.23 343.36 587.06 346.58 582.48 352.36 582.48 352.36 587.73 368.86 588.41 377.64 582.78 385.51 575.96 395.11 560.58 394.81 553.9 392.19L555.41 398.11H500.95C498.25 385.21 507.02 365.03 505.45 356.78Z" fill="#e5ac95" opacity="1" stroke-width="4" stroke="#000000"></path><path d="M553.9 392.19L556.16 401.26 541.6 386.56 553.9 392.19Z" fill="#e5ac9500" opacity="0" stroke-width="4" stroke="#ffffff00"></path><path d="M490.67 346.81C489.55 338.71 488.87 328.88 491.27 320.48 481.82 322.88 470.49 320.1 461.57 312.38 448.22 300.68 445.37 282.15 455.19 270.9 465.02 259.65 483.85 259.95 497.2 271.65 506.8 280.05 511 291.98 508.9 302.25 521.73 296.4 538.15 295.05 551.43 300.3 558.56 302.93 564.78 308.33 568.38 315 568.38 315 564.33 320.18 547.83 313.43 572.58 339.68 538.08 333.68 538.08 333.68 538.08 333.68 541.83 337.43 541.83 347.18 541.83 347.18 518.88 340.28 514.82 351.68 510.32 364.43 520.83 372.69 530.58 375.69 530.58 375.69 548.58 417.69 534.33 455.95H515.73C515.73 455.95 514.15 431.94 510.4 422.94L491.65 455.95H426.39C427.89 368.11 496.9 393.61 490.67 346.81Z" fill="#231f20" opacity="1" stroke-width="4" stroke="#000000"></path><path d="M497.57 317.33L500.72 317.55C496.97 325.5 489.62 333.01 489.62 333.01 489.77 323.63 490.15 318.68 497.57 317.33Z" fill="#231f2000" opacity="0" stroke-width="4" stroke="#ffffff00"></path><path d="M529.98 387.61C524.59 387.61 520.23 383.25 520.23 377.86 520.23 372.48 524.59 368.11 529.98 368.11 535.36 368.11 539.73 372.48 539.73 377.86 539.73 383.25 535.36 387.61 529.98 387.61Z" fill="#ffffff" opacity="1" stroke-width="4" stroke="#000000"></path><path d="M553.9 392.19L546.33 388.74" stroke="#000000" stroke-width="4" stroke-linecap="round" stroke-linejoin="round" opacity="1" fill="none"></path><path d="M532.98 360.61L524.73 357.61" stroke="#000000" stroke-width="4" stroke-linecap="round" stroke-linejoin="round" opacity="1" fill="none"></path><path d="M574.98 360.61C570.48 362.11 566.73 358.36 566.73 358.36" stroke="#000000" stroke-width="4" stroke-linecap="round" stroke-linejoin="round" opacity="1" fill="none"></path><path d="M491.12 320.55C495.92 319.43 500.27 316.8 503.57 313.13 506.35 309.9 508.22 306 508.97 301.8" stroke="#000000" stroke-width="4" stroke-linecap="round" stroke-linejoin="round" opacity="1" fill="none"></path><path d="M573.63 325.58C577.23 324.75 581.28 329.25 582.71 335.56 583.83 340.81 582.78 345.68 580.31 347.63" stroke="#000000" stroke-width="4" stroke-linecap="round" stroke-linejoin="round" opacity="1" fill="none"></path><path d="M582.56 334.96L541.98 345.61" stroke="#000000" stroke-width="4" stroke-linecap="round" stroke-linejoin="round" opacity="1" fill="none"></path></g><g><path d="M985.13 590.95H1174C1199.11 590.95 1219.49 611.33 1219.49 636.59V881.57H939.49V636.45C939.49 611.33 960.02 590.95 985.13 590.95Z" fill="#f5cac2" opacity="1" stroke-width="4" stroke="#000000"></path><path d="M985.13 583.06H1174C1199.11 583.06 1219.49 603.44 1219.49 628.7V645.2H939.49V628.7C939.49 603.44 960.02 583.06 985.13 583.06Z" fill="#ea9787" opacity="1" stroke-width="4" stroke="#000000"></path><path d="M939.49 724.42H1218.2" stroke="#000000" stroke-width="4" stroke-linecap="round" stroke-linejoin="round" opacity="1" fill="none"></path><path d="M939.49 802.35H1218.2" stroke="#000000" stroke-width="4" stroke-linecap="round" stroke-linejoin="round" opacity="1" fill="none"></path><path d="M1029.33 880.13V645.2" stroke="#000000" stroke-width="4" stroke-linecap="round" stroke-linejoin="round" opacity="1" fill="none"></path><path d="M1129.65 880.13V645.2" stroke="#000000" stroke-width="4" stroke-linecap="round" stroke-linejoin="round" opacity="1" fill="none"></path><path d="M1029.33 600.28V567.27" stroke="#000000" stroke-width="4" stroke-linecap="round" stroke-linejoin="round" opacity="1" fill="none"></path><path d="M1129.65 600.28V567.27" stroke="#000000" stroke-width="4" stroke-linecap="round" stroke-linejoin="round" opacity="1" fill="none"></path><path d="M1176.58 700.6C1185.69 700.6 1193.08 693.21 1193.08 684.09 1193.08 674.98 1185.69 667.59 1176.58 667.59 1167.47 667.59 1160.07 674.98 1160.07 684.09 1160.07 693.21 1167.47 700.6 1176.58 700.6Z" fill="#ffffff" opacity="1" stroke-width="4" stroke="#000000"></path><path d="M1176.58 781.11C1185.69 781.11 1193.08 773.72 1193.08 764.6 1193.08 755.49 1185.69 748.1 1176.58 748.1 1167.47 748.1 1160.07 755.49 1160.07 764.6 1160.07 773.72 1167.47 781.11 1176.58 781.11Z" fill="#6a615f" opacity="1" stroke-width="4" stroke="#000000"></path><path d="M982.55 781.11C991.66 781.11 999.05 773.72 999.05 764.6 999.05 755.49 991.66 748.1 982.55 748.1 973.43 748.1 966.04 755.49 966.04 764.6 966.04 773.72 973.43 781.11 982.55 781.11Z" fill="#ffffff" opacity="1" stroke-width="4" stroke="#000000"></path><path d="M1077.55 859.04C1086.67 859.04 1094.06 851.64 1094.06 842.53 1094.06 833.42 1086.67 826.03 1077.55 826.03 1068.44 826.03 1061.05 833.42 1061.05 842.53 1061.05 851.64 1068.44 859.04 1077.55 859.04Z" fill="#6a615f" opacity="1" stroke-width="4" stroke="#000000"></path></g><g><path d="M1131.79 489.48C1241.92 475.32 1333.71 354.44 1290.88 347.79 1249.68 341.39 1166.51 458.43 1228.27 472.84 1267.68 482.06 1337.03 438.89 1337.03 438.89" stroke="#000000" stroke-width="4" stroke-linecap="round" stroke-linejoin="round" opacity="1" fill="none"></path><path d="M1371.5 427.38L1275.7 445.29 1317.84 463.72 1319.2 509.61 1371.5 427.38Z" fill="#a0e0ff00" opacity="0" stroke-width="4" stroke="#ffffff00"></path><path d="M1366.97 415.18L1271.18 433.09 1313.32 451.52 1314.68 497.41 1366.97 415.18Z" fill="#a0e0ff" opacity="1" stroke-width="4" stroke="#000000"></path></g></svg>