<svg width="295" height="232" viewBox="0 0 295 232" fill="none" xmlns="http://www.w3.org/2000/svg">
<path d="M285 125.4H166.9C162 125.4 158 121.4 158 116.4V40.7C158 35.8 162 31.8 166.9 31.8H285C289.9 31.8 293.9 35.8 293.9 40.7V116.4C293.9 121.4 289.9 125.4 285 125.4V125.4Z" fill="#CCD0DF"/>
<path d="M293.9 40.7V48.7H158V40.7C158 35.8 162 31.8 166.9 31.8H285C289.9 31.8 293.9 35.8 293.9 40.7Z" fill="#FEF8F6"/>
<path fill-rule="evenodd" clip-rule="evenodd" d="M285 126.3H166.9C161.5 126.3 157.1 121.9 157.1 116.5V40.7001C157.1 35.3001 161.5 30.9001 166.9 30.9001H285C290.4 30.9001 294.8 35.3001 294.8 40.7001V116.5C294.8 121.9 290.4 126.3 285 126.3ZM166.9 32.7001C162.5 32.7001 158.9 36.3001 158.9 40.7001V116.5C158.9 120.9 162.5 124.5 166.9 124.5H285C289.4 124.5 293 120.9 293 116.5V40.7001C293 36.3001 289.4 32.7001 285 32.7001H166.9Z" fill="#CCD0DF"/>
<path d="M176.8 40.6002C176.8 42.4002 175.4 43.8002 173.6 43.8002C171.8 43.8002 170.4 42.4002 170.4 40.6002C170.4 38.8002 171.8 37.4001 173.6 37.4001C175.4 37.4001 176.8 38.8002 176.8 40.6002Z" fill="#CCD0DF"/>
<path d="M188.5 40.6002C188.5 42.4002 187 43.8002 185.2 43.8002C183.5 43.8002 182 42.4002 182 40.6002C182 38.8002 183.5 37.4001 185.2 37.4001C187 37.4001 188.5 38.8002 188.5 40.6002Z" fill="#CCD0DF"/>
<path d="M200.1 40.6002C200.1 42.4002 198.7 43.8002 196.9 43.8002C195.1 43.8002 193.7 42.4002 193.7 40.6002C193.7 38.8002 195.1 37.4001 196.9 37.4001C198.7 37.4001 200.1 38.8002 200.1 40.6002Z" fill="#CCD0DF"/>
<path d="M293.9 99.6002V116.4C293.9 121.4 289.9 125.4 285 125.4H216.5H166.6C159.533 124.733 155.7 121.4 155.1 115.4C154.1 106.3 161.6 107.3 159.8 102.9C156 93.8001 156.1 85.4002 163.3 82.8002L184.3 80.4001C191.5 80.4001 195.333 86.5668 195.8 98.9001C195.8 100 196.2 101 196.8 102C198.9 97.9002 200.8 94.6001 202.1 93.2001C214.1 80.1001 227.8 77.8002 244.1 77.1002C257.6 76.6002 274.2 76.4001 284.8 86.9001C287.9 89.9001 291 94.6002 293.9 99.6002V99.6002Z" fill="#05082E"/>
<path d="M265.1 111.4C265.1 115.2 262 118.3 258.2 118.3C254.4 118.3 251.4 115.2 251.4 111.4C251.4 107.6 254.4 104.5 258.2 104.5C262 104.5 265.1 107.6 265.1 111.4Z" fill="#FEF8F6"/>
<path d="M294.7 92.4002C294.7 96.2002 291.6 99.3002 287.8 99.3002C284 99.3002 280.9 96.2002 280.9 92.4002C280.9 88.6002 284 85.5002 287.8 85.5002C291.6 85.5002 294.7 88.6002 294.7 92.4002Z" fill="#FEF8F6"/>
<path d="M214.1 93.7001C214.1 97.5001 211 100.6 207.2 100.6C203.4 100.6 200.4 97.5001 200.4 93.7001C200.4 89.9001 203.4 86.9001 207.2 86.9001C211 86.9001 214.1 89.9001 214.1 93.7001Z" fill="#FEF8F6"/>
<path d="M233.1 124C233.1 127.8 230 130.9 226.2 130.9C222.4 130.9 219.3 127.8 219.3 124C219.3 120.2 222.4 117.1 226.2 117.1C230 117.1 233.1 120.2 233.1 124Z" fill="#FEF8F6"/>
<path d="M190.1 122.5C190.1 126.3 187 129.4 183.2 129.4C179.4 129.4 176.3 126.3 176.3 122.5C176.3 118.7 179.4 115.6 183.2 115.6C187 115.6 190.1 118.7 190.1 122.5Z" fill="#FEF8F6"/>
<path d="M164.9 101.2C164.9 105 161.8 108 158 108C154.2 108 151.1 105 151.1 101.2C151.1 97.4003 154.2 94.3003 158 94.3003C161.8 94.3003 164.9 97.4003 164.9 101.2Z" fill="#FEF8F6"/>
<path d="M157.3 190.3H128.6H69.6999H40.1999C36.0999 190.3 31.8999 190.3 27.9999 190.3C27.7332 190.3 27.4665 190.3 27.1999 190.3C14.9999 190.1 6.70001 177.7 11.1 166.3C12.7667 161.967 14.4333 157.867 16.1 154C20.9 137.067 26.9332 124.934 34.1999 117.6C41.6999 110 59.2 106.9 68.1 105.7C75.5 104.8 90.4 104.2 97.8 105.1C106.2 106.1 128.6 108.8 137.4 117.8C140.2 120.7 147 128.9 149 132.5C157.733 148.434 160.5 167.7 157.3 190.3V190.3Z" fill="#FEF8F6"/>
<path d="M22.6001 231.1C21.2001 231.1 20.1001 230 20.1001 228.6V50.5002C20.1001 49.1002 21.2001 47.9001 22.6001 47.9001C24.0001 47.9001 25.1001 49.1002 25.1001 50.5002V228.6C25.1001 230 24.0001 231.1 22.6001 231.1Z" fill="#05082E"/>
<path d="M57.2 231.1C55.9 231.1 54.7 230 54.7 228.6V50.5002C54.7 49.1002 55.9 47.9001 57.2 47.9001C58.6 47.9001 59.8 49.1002 59.8 50.5002V228.6C59.8 230 58.6 231.1 57.2 231.1Z" fill="#05082E"/>
<path d="M92.3999 231.1C90.9999 231.1 89.8 230 89.8 228.6V50.5002C89.8 49.1002 90.9999 47.9001 92.3999 47.9001C93.6999 47.9001 94.8999 49.1002 94.8999 50.5002V228.6C94.8999 230 93.6999 231.1 92.3999 231.1Z" fill="#05082E"/>
<path d="M127 231.1C125.6 231.1 124.5 230 124.5 228.6V50.5002C124.5 49.1002 125.6 47.9001 127 47.9001C128.4 47.9001 129.5 49.1002 129.5 50.5002V228.6C129.5 230 128.4 231.1 127 231.1Z" fill="#05082E"/>
<path d="M161.4 231.1C160 231.1 158.9 230 158.9 228.6V50.5002C158.9 49.1002 160 47.9001 161.4 47.9001C162.8 47.9001 163.9 49.1002 163.9 50.5002V228.6C163.9 230 162.8 231.1 161.4 231.1Z" fill="#05082E"/>
<path d="M181.1 72.6001H2.8999C1.4999 72.6001 0.399902 71.5001 0.399902 70.1001C0.399902 68.7001 1.4999 67.6001 2.8999 67.6001H181.1C182.4 67.6001 183.6 68.7001 183.6 70.1001C183.6 71.5001 182.4 72.6001 181.1 72.6001Z" fill="#05082E"/>
<path d="M181.1 107.3H2.8999C1.4999 107.3 0.399902 106.2 0.399902 104.8C0.399902 103.4 1.4999 102.3 2.8999 102.3H181.1C182.4 102.3 183.6 103.4 183.6 104.8C183.6 106.2 182.4 107.3 181.1 107.3Z" fill="#05082E"/>
<path d="M181.1 142.4H2.8999C1.4999 142.4 0.399902 141.3 0.399902 139.9C0.399902 138.5 1.4999 137.4 2.8999 137.4H181.1C182.4 137.4 183.6 138.5 183.6 139.9C183.6 141.3 182.4 142.4 181.1 142.4Z" fill="#05082E"/>
<path d="M181.1 177.1H2.8999C1.4999 177.1 0.399902 176 0.399902 174.6C0.399902 173.2 1.4999 172.1 2.8999 172.1H181.1C182.4 172.1 183.6 173.2 183.6 174.6C183.6 176 182.4 177.1 181.1 177.1Z" fill="#05082E"/>
<path d="M181.1 211.5H2.8999C1.4999 211.5 0.399902 210.3 0.399902 208.9C0.399902 207.6 1.4999 206.4 2.8999 206.4H181.1C182.4 206.4 183.6 207.6 183.6 208.9C183.6 210.3 182.4 211.5 181.1 211.5Z" fill="#05082E"/>
<path fill-rule="evenodd" clip-rule="evenodd" d="M157.3 191.2H28C27.7333 191.2 27.4666 191.2 27.1999 191.2C21.0999 191.1 15.6999 188.1 12.1999 183.1C8.7999 178 8.1 171.6 10.3 165.9C12.6 159.8 15 154.3 15.3 153.7C15.8 152 22.8 127.9 33.6 117C41.1 109.4 58.4 106.1 68 104.8C75.6 103.8 90.5999 103.3 97.8999 104.2L98.1001 104.3C106.6 105.3 129.1 108 138 117.2C140.8 120.1 147.7 128.3 149.7 132C162.9 155.9 158.3 190.1 158.2 190.4C158.2 190.9 157.8 191.2 157.3 191.2V191.2ZM87.6001 105.6C80.8001 105.6 72.9999 106 68.1999 106.6C58.7999 107.8 41.9999 111 34.8999 118.2C24.2999 129 17.1 154 17 154.3C16.9 154.4 14.3999 160.2 11.8999 166.6C9.99985 171.8 10.5999 177.4 13.6999 182.1C16.7999 186.6 21.6999 189.3 27.1999 189.4C27.4666 189.4 27.7333 189.4 28 189.4H156.5C157.1 184.3 160 154.3 148.2 132.9C146.2 129.4 139.4 121.2 136.8 118.4C128.3 109.7 106.2 107 97.8999 106H97.6999C95.0999 105.7 91.5001 105.6 87.6001 105.6V105.6Z" fill="#05082E"/>
<path d="M69.6001 105.4C70.2668 105.334 70.9666 105.267 71.7 105.2C72.2333 89.4669 72.4666 81.0335 72.3999 79.9002C72.1999 75.0335 72.9334 68.1335 74.6001 59.2002L108.6 59.8002L109.1 72.7002C109.8 96.2002 110.4 98.6002 99.5 99.7002L99.3 105.3C100.8 105.5 102.6 106 104.5 106.5C102.5 111.5 103.9 121.7 92.3999 122.5C80.7999 123.2 67.6 111.8 65 106C66.7 105.7 68.3001 105.5 69.6001 105.4V105.4Z" fill="#FEF8F6"/>
<path fill-rule="evenodd" clip-rule="evenodd" d="M91.3001 123.4C79.7001 123.4 66.9002 112.6 64.1002 106.4C64.0002 106.1 64 105.8 64.2 105.6C64.3 105.3 64.5001 105.2 64.8001 105.1C66.5334 104.833 68.1001 104.633 69.5001 104.5C69.9001 104.433 70.3334 104.367 70.8001 104.3C71.1001 96 71.6001 81.2 71.5001 79.9C71.3001 72.6 73.6 59.6 73.7 59C73.8 58.6 74.2002 58.3 74.6002 58.3L108.6 58.9C109.1 58.9 109.5 59.3 109.5 59.8L110 72.7L110.1 75.7C110.7 95.8 110.8 99.3 100.3 100.5L100.2 104.6C101.6 104.8 103 105.2 104.7 105.6C104.9 105.7 105.1 105.8 105.2 106.1C105.4 106.3 105.4 106.5 105.3 106.8C104.9 107.8 104.6 109.2 104.4 110.7C103.4 115.8 102.1 122.8 92.4 123.4C92 123.4 91.6334 123.4 91.3001 123.4V123.4ZM66.3001 106.7C69.9001 112.7 82.0001 122.3 92.3001 121.6C100.6 121.1 101.7 115.4 102.6 110.3C102.8 109.2 103 108.1 103.3 107.1C101.8 106.7 100.4 106.4 99.2 106.2C98.7 106.1 98.4 105.8 98.4 105.3L98.6002 99.7C98.6002 99.2 98.9 98.9 99.4 98.8C109 97.8 109 96.6 108.3 75.8L108.2 72.7L107.8 60.7L75.3001 60.1001C74.8001 63.0001 73.1001 73.7 73.3001 79.9C73.4001 81.6 72.6002 104.2 72.6002 105.2C72.6002 105.6 72.2 106 71.7 106.1C71.0334 106.1 70.3667 106.133 69.7 106.2C68.6334 106.333 67.5001 106.5 66.3001 106.7V106.7Z" fill="#05082E"/>
<path d="M97.6998 100.7C89.7998 100.7 85.6999 97.8001 85.4999 97.7001C85.0999 97.4001 84.9999 96.8001 85.2999 96.4001C85.5999 96.0001 86.0999 95.9001 86.4999 96.2001C86.5999 96.3001 90.9998 99.3001 99.3998 98.8001C99.8998 98.8001 100.3 99.2001 100.4 99.7001C100.4 100.2 99.9999 100.6 99.4999 100.6C98.8999 100.667 98.2998 100.7 97.6998 100.7Z" fill="#05082E"/>
<path d="M86 65.2002C85.1 65.0002 84.2 65.7002 84.2 66.6002C84 71.0002 83.2001 81.9002 81.6001 84.5002C80.6001 86.2335 77.4667 88.6002 72.2 91.6002C66.8 86.4002 63.3334 79.5002 61.8001 70.9002C59.7001 59.4002 67.4001 49.6002 76.8001 49.5002C76.9001 49.5002 86 48.5002 95.2 47.4002C104.4 46.4002 111.7 55.2002 108.9 64.0002C100.8 67.5002 90.1 66.0002 86 65.2002V65.2002Z" fill="#05082E"/>
<path d="M78.6001 75.7002C82.0001 75.7002 84.7 78.4002 84.7 81.8002C84.7 85.1002 82.0001 87.8002 78.6001 87.8002C75.3001 87.8002 72.6001 85.1002 72.6001 81.8002C72.6001 78.4002 75.3001 75.7002 78.6001 75.7002Z" fill="#FEF8F6"/>
<path d="M81.7999 81.6002C81.3999 81.6002 81.0999 81.4002 80.9999 81.0002C80.3999 79.5002 78.7 78.6002 77.1 79.2002C76.7 79.3002 76.1999 79.1002 75.9999 78.6002C75.7999 78.2002 76.1 77.7002 76.6 77.5002C79 76.6002 81.7998 77.9002 82.6998 80.4002C82.7998 80.9002 82.6 81.4002 82.1 81.6002C82.0333 81.6002 81.9333 81.6002 81.7999 81.6002V81.6002Z" fill="#05082E"/>
<path d="M88.3999 73.7001C88.0999 73.7001 87.8999 73.5001 87.6999 73.3001C87.3999 72.9001 87.5 72.4001 87.8 72.1001C89.5 70.7001 93.6999 69.1001 97.4999 72.1001C97.8999 72.4001 97.9999 72.9001 97.6999 73.3001C97.3999 73.7001 96.7999 73.8001 96.3999 73.5001C92.6999 70.6001 88.9999 73.4001 88.8999 73.5001C88.7665 73.6334 88.5999 73.7001 88.3999 73.7001V73.7001Z" fill="#05082E"/>
<path d="M102.7 79.7002C102.567 79.7002 102.467 79.7002 102.4 79.7002C101.9 79.5002 101.7 79.0002 101.8 78.5002C102.4 77.0002 103.9 75.6002 105.6 75.4002C106.9 75.1002 108 75.6002 108.9 76.7002C109.3 77.2002 109.6 77.5002 109.6 77.5002C109.9 77.9002 109.8 78.4002 109.5 78.8002C109.1 79.1002 108.5 79.1002 108.2 78.7002C108.2 78.7002 107.9 78.3002 107.4 77.7002C107 77.2335 106.5 77.0335 105.9 77.1002C104.9 77.3002 103.8 78.2002 103.5 79.1002C103.4 79.5002 103.1 79.7002 102.7 79.7002V79.7002Z" fill="#05082E"/>
<path d="M108.2 78.1003C108.2 79.2003 107.6 80.2002 106.8 80.2002C106 80.2002 105.3 79.2003 105.3 78.1003C105.3 77.0003 106 76.0002 106.8 76.0002C107.6 76.0002 108.2 77.0003 108.2 78.1003Z" fill="#05082E"/>
<path d="M94.8999 78.1003C94.8999 79.2003 94.1999 80.2002 93.3999 80.2002C92.5999 80.2002 92 79.2003 92 78.1003C92 77.0003 92.5999 76.0002 93.3999 76.0002C94.1999 76.0002 94.8999 77.0003 94.8999 78.1003Z" fill="#05082E"/>
<path d="M87.9999 79.7001C87.8666 79.7001 87.6999 79.6668 87.4999 79.6002C87.0999 79.3002 86.9999 78.7002 87.2999 78.3002C87.6999 77.7002 88.1999 77.0001 88.7999 76.4001C90.2999 75.0001 92.6999 74.3002 94.4999 75.8002C95.3999 76.6002 95.8998 77.6001 96.1998 78.4001C96.3998 78.8001 96.1 79.4001 95.6 79.5001C95.2 79.7001 94.6999 79.4001 94.4999 79.0001C94.1999 78.2001 93.7998 77.6001 93.3998 77.2001C92.3998 76.4001 90.8999 76.8001 89.9999 77.7001C89.5999 78.2001 89.1999 78.8002 88.7999 79.3002C88.5999 79.6002 88.2999 79.7001 87.9999 79.7001V79.7001Z" fill="#05082E"/>
<path d="M102 90.4001C100.4 90.4001 98.0999 88.2001 97.3999 87.5001C96.9999 87.2001 96.9999 86.6001 97.3999 86.2001C97.6999 85.9001 98.3 85.9001 98.6 86.2001C99.9 87.5001 101.5 88.6001 102 88.6001C102.3 88.5001 103.5 87.4001 104.4 86.3001C104.7 85.9001 105.3 85.9001 105.7 86.2001C106.1 86.5001 106.1 87.0001 105.8 87.4001C104.9 88.5001 103.2 90.4001 102 90.4001V90.4001Z" fill="#05082E"/>
<path d="M103.9 74.1001C103.633 74.1001 103.4 74.0001 103.2 73.8001C102.9 73.4001 102.9 72.9001 103.3 72.5001C104.6 71.3001 107.7 69.7001 110.4 72.1001C110.8 72.4001 110.8 73.0001 110.5 73.3001C110.2 73.7001 109.6 73.8001 109.2 73.4001C107.1 71.5001 104.6 73.8001 104.5 73.9001C104.3 74.0334 104.1 74.1001 103.9 74.1001V74.1001Z" fill="#05082E"/>
<path fill-rule="evenodd" clip-rule="evenodd" d="M109.8 87C105.6 87 102.2 83.6 102.2 79.4C102.2 75.2 105.6 71.8 109.8 71.8C114 71.8 117.4 75.2 117.4 79.4C117.4 83.6 114 87 109.8 87ZM109.8 73.6001C106.6 73.6001 104 76.2 104 79.4C104 82.6 106.6 85.3 109.8 85.3C113 85.3 115.6 82.6 115.6 79.4C115.6 76.2 113 73.6001 109.8 73.6001Z" fill="#ED7966"/>
<path fill-rule="evenodd" clip-rule="evenodd" d="M92 87C87.8 87 84.3999 83.6 84.3999 79.4C84.3999 75.2 87.8 71.8 92 71.8C96.2 71.8 99.6001 75.2 99.6001 79.4C99.6001 83.6 96.2 87 92 87ZM92 73.6001C88.8 73.6001 86.1001 76.2 86.1001 79.4C86.1001 82.6 88.8 85.3 92 85.3C95.2 85.3 97.8 82.6 97.8 79.4C97.8 76.2 95.2 73.6001 92 73.6001Z" fill="#ED7966"/>
<path d="M102.1 86.6001C101.8 86.6001 101.6 86.4001 101.4 86.2001C101.1 85.8001 101.2 85.2001 101.6 84.9001C102.867 83.9668 103.067 82.8668 102.2 81.6001C100.9 79.8001 100.5 76.7001 100.4 76.6001C100.4 76.1001 100.7 75.7001 101.2 75.6001C101.7 75.5001 102.2 75.9001 102.2 76.4001C102.2 76.4001 102.6 79.1001 103.7 80.6001C105.1 82.6001 104.7 84.8001 102.6 86.4001C102.467 86.5335 102.3 86.6001 102.1 86.6001V86.6001Z" fill="#05082E"/>
<path d="M103.1 79.8002H98.7C98.2 79.8002 97.8 79.4002 97.8 78.9002C97.8 78.4002 98.2 78.0002 98.7 78.0002H103.1C103.6 78.0002 104 78.4002 104 78.9002C104 79.4002 103.6 79.8002 103.1 79.8002Z" fill="#ED7966"/>
<path d="M236.2 46.9001V47.8002V86.6002C236.2 88.1002 235 89.4001 233.4 89.4001H222C220.4 89.4001 219.2 88.1002 219.2 86.6002V47.8002L236.2 46.9001Z" fill="#05082E"/>
<path d="M269.3 47.6001C269.3 61.5001 258.1 72.7001 244.3 72.7001C230.4 72.7001 219.2 61.5001 219.2 47.6001C219.2 33.8001 230.4 22.6001 244.3 22.6001C258.1 22.6001 269.3 33.8001 269.3 47.6001Z" fill="#05082E"/>
<path d="M274.6 80.3002C268.4 86.6002 257.7 94.6002 243.5 94.2002C227.8 93.8002 220.8 86.5002 217.9 81.8002C222.4 79.9002 227.2 78.8003 232.2 78.1003V71.5002C219.3 68.5002 220.6 56.4002 223.1 44.2002H244.1C245.3 44.2002 246.3 43.2002 246.3 42.0002L246.6 36.5002C248.2 37.9002 245.5 48.8003 250.9 52.1003C251.3 52.3003 251.7 53.8003 252.1 56.6003C252.167 63.4669 252.4 68.2336 252.8 70.9002C253.1 72.9002 255.1 74.6002 257 75.8002C258.5 76.7002 260.2 77.2002 261.9 77.4002C266.3 77.9002 270.6 78.8002 274.6 80.3002V80.3002Z" fill="#FEF8F6"/>
<path d="M235.6 46.1002C235.3 46.1002 235 46.0002 234.9 45.8002C234.6 45.4002 234.6 44.8001 235 44.5001C238.9 41.5001 243 43.2001 244.7 44.5001C245.1 44.8001 245.2 45.4002 244.9 45.8002C244.6 46.2002 244 46.3001 243.6 45.9001C243.4 45.8001 239.8 43.1001 236.1 45.9001C235.967 46.0335 235.8 46.1002 235.6 46.1002V46.1002Z" fill="#05082E"/>
<path d="M229.2 51.2002C228.8 51.2002 228.5 51.0002 228.3 50.6002C228 49.7002 227.1 48.8002 226.3 48.7002C226.1 48.7002 225.6 48.6002 225.2 49.4002C225 49.7002 224.5 50.2002 224.3 50.5002C224 50.8002 223.5 50.9002 223.1 50.6002L221.9 49.7002C221.5 49.4002 221.4 48.8002 221.7 48.4002C222 48.0002 222.6 47.9002 223 48.2002L223.5 48.6002C223.567 48.6002 223.6 48.5669 223.6 48.5002C224.3 47.4002 225.3 46.8002 226.5 46.9002C228 47.1002 229.5 48.4002 230 50.0002C230.2 50.5002 229.9 51.0002 229.5 51.2002C229.367 51.2002 229.267 51.2002 229.2 51.2002V51.2002Z" fill="#05082E"/>
<path d="M226.2 48.5002C227 48.5002 227.7 49.4003 227.7 50.6003C227.7 51.7003 227 52.6003 226.2 52.6003C225.4 52.6003 224.7 51.7003 224.7 50.6003C224.7 49.4003 225.4 48.5002 226.2 48.5002Z" fill="#05082E"/>
<path d="M239.6 48.5002C240.4 48.5002 241 49.4003 241 50.6003C241 51.7003 240.4 52.6003 239.6 52.6003C238.7 52.6003 238.1 51.7003 238.1 50.6003C238.1 49.4003 238.7 48.5002 239.6 48.5002Z" fill="#05082E"/>
<path d="M244.5 51.5001C244.3 51.5001 244.1 51.4001 243.9 51.2001C243.9 51.2001 243.3 50.6001 242.9 49.9001C242.6 49.2001 241.8 48.7001 241 48.5001C240.6 48.4001 239.8 48.4001 239.2 49.0001C238.7 49.4001 238.3 50.0001 238 50.7001C237.9 51.2001 237.4 51.4001 236.9 51.3001C236.4 51.1001 236.2 50.6002 236.4 50.1002C236.6 49.4002 237.1 48.4002 238 47.6002C238.9 46.8002 240.2 46.5001 241.4 46.8001C242.7 47.0001 243.9 47.9002 244.5 49.1002C244.567 49.1668 244.633 49.2668 244.7 49.4001L245.5 48.8001C245.9 48.5001 246.5 48.6001 246.8 49.0001C247 49.4001 247 49.9001 246.6 50.2001L245.1 51.3001C244.9 51.4335 244.7 51.5001 244.5 51.5001V51.5001Z" fill="#05082E"/>
<path d="M228.7 46.6001C228.433 46.6001 228.233 46.5335 228.1 46.4001C228 46.3001 225.2 44.0001 223 45.9001C222.7 46.2001 222.1 46.2001 221.8 45.8001C221.4 45.4001 221.5 44.9001 221.8 44.5001C224.5 42.2001 227.9 43.8001 229.2 45.0001C229.6 45.3001 229.7 45.9001 229.3 46.3001C229.2 46.5001 228.9 46.6001 228.7 46.6001V46.6001Z" fill="#05082E"/>
<path fill-rule="evenodd" clip-rule="evenodd" d="M230 64.1002C228.7 64.1002 227.5 63.6002 226.5 62.6002C225.9 61.9002 224.3 59.9002 225.2 58.6002C225.6 57.8002 226.8 57.8002 228.7 57.9002C228.967 57.9002 229.233 57.9002 229.5 57.9002C229.9 57.9002 230.3 57.8669 230.7 57.8002C232.7 57.8002 234.8 57.7002 235.4 59.2002C235.6 59.6002 235.7 60.2002 235.2 61.1002C234.3 62.5002 232.1 63.9002 230.4 64.1002C230.267 64.1002 230.133 64.1002 230 64.1002V64.1002ZM226.7 59.7002C226.9 60.1002 227.3 60.8002 227.8 61.3002C228.2 61.7002 229.1 62.4002 230.2 62.3002C231.2 62.2002 232.7 61.3002 233.5 60.4002C233.7 60.1002 233.8 59.9002 233.8 59.9002C233.4 59.6002 231.6 59.6002 230.7 59.6002C230.3 59.6669 229.9 59.7002 229.5 59.7002C229.233 59.7002 228.967 59.6669 228.7 59.6002C228.1 59.6002 227.2 59.6002 226.7 59.7002V59.7002Z" fill="#05082E"/>
<path d="M229.9 57.3003C229.767 57.3003 229.633 57.2669 229.5 57.2002C228.233 56.6002 227.434 55.8336 227.1 54.9002C226.7 53.6002 227.3 52.5003 227.7 51.8003C227.767 51.7336 227.8 51.6336 227.8 51.5003C228.2 50.7003 229.6 48.1002 229.7 47.9002C229.9 47.5002 230.5 47.3003 230.9 47.6003C231.3 47.8003 231.5 48.3003 231.3 48.8003C231.3 48.8003 229.9 51.5003 229.5 52.3003C229.433 52.4336 229.367 52.5669 229.3 52.7002C229 53.1002 228.7 53.8003 228.8 54.3003C229 54.9003 229.7 55.3003 230.2 55.6003C230.7 55.8003 230.9 56.3003 230.7 56.8003C230.5 57.1003 230.2 57.3003 229.9 57.3003V57.3003Z" fill="#05082E"/>
<path d="M232.2 79.5001C231.7 79.5001 231.3 79.1001 231.3 78.6001V72.5001C231.3 72.2001 231.4 72.0001 231.6 71.8001C231.8 71.6001 232.033 71.5334 232.3 71.6001C238.8 72.1001 242.6 71.0001 242.6 71.0001C243.1 70.9001 243.6 71.1001 243.7 71.6001C243.9 72.1001 243.6 72.6001 243.1 72.7001C243 72.8001 239.4 73.8001 233.1 73.4001V78.6001C233.1 79.1001 232.7 79.5001 232.2 79.5001Z" fill="#05082E"/>
<path d="M269.3 46.7002V47.6003V82.4002C269.3 84.0002 268.1 85.2002 266.5 85.2002H255.1C253.5 85.2002 252.3 84.0002 252.3 82.4002V38.5002L269.3 46.7002Z" fill="#05082E"/>
<path d="M258.1 53.7002C258.1 57.0002 255.4 59.7002 252.1 59.7002C248.7 59.7002 246 57.0002 246 53.7002C246 50.4002 248.7 47.7002 252.1 47.7002C255.4 47.7002 258.1 50.4002 258.1 53.7002Z" fill="#FEF8F6"/>
<path d="M248.9 53.5001C248.767 53.5001 248.667 53.5001 248.6 53.5001C248.1 53.3001 247.9 52.8001 248 52.4001C248.4 51.1001 249.3 50.2001 250.5 49.6001C251.6 49.1001 252.9 49.0001 254.1 49.4001C254.6 49.6001 254.8 50.1001 254.7 50.6001C254.5 51.0001 254 51.3001 253.5 51.1001C252.8 50.8001 252 50.9001 251.2 51.2001C250.5 51.6001 250 52.2001 249.7 52.9001C249.6 53.3001 249.2 53.5001 248.9 53.5001V53.5001Z" fill="#05082E"/>
<path d="M255.6 59.7002C255.6 61.7002 254 63.2002 252.1 63.2002C250.1 63.2002 248.5 61.7002 248.5 59.7002C248.5 57.8002 250.1 56.2002 252.1 56.2002C254 56.2002 255.6 57.8002 255.6 59.7002Z" fill="#ED7966"/>
<path d="M261.6 18.5002C259.4 29.8002 245.6 34.0002 237.1 26.6002C232.7 22.9002 230.6 16.3002 232.7 10.8002C235.4 3.60019 244.9 1.50019 251.8 3.00019C253.067 3.26686 254.233 3.70019 255.3 4.30019C260.3 6.90019 262.8 12.6002 261.6 18.5002Z" fill="#05082E"/>
<path fill-rule="evenodd" clip-rule="evenodd" d="M244.2 30.3002C240.4 30.3002 236.7 29.0002 233.7 26.4002C228.9 22.3002 227 15.2002 229.1 9.60015C231.9 2.20015 241.5 -0.399851 249.3 1.20015C250.567 1.53348 251.767 2.00015 252.9 2.60015C258.2 5.40015 261 11.5002 259.7 17.8002C258.7 23.3002 254.9 27.6002 249.6 29.4002C247.8 30.0002 246 30.3002 244.2 30.3002ZM244.6 2.50015C238.7 2.50015 232.7 5.00015 230.8 10.2001C228.9 15.2001 230.7 21.4002 234.9 25.0002C238.8 28.4002 244.1 29.4001 249 27.7001C253.7 26.1001 257 22.3002 258 17.5002C259.1 11.9002 256.8 6.70015 252.1 4.20015C251.1 3.66682 250.033 3.26682 248.9 3.00015C247.5 2.66682 246.067 2.50015 244.6 2.50015V2.50015Z" fill="#05082E"/>
<path d="M285 126.3H166.6C166.4 126.2 155.2 125.2 154.2 115.5C153.6 109.9 156 107.8 157.7 106.2C159.1 105 159.5 104.5 159 103.2C156.2 96.7002 155.7 90.9002 157.4 87.0002C158.5 84.6002 160.4 82.9002 163 82.0002C163.067 81.9336 163.133 81.9002 163.2 81.9002L184.2 79.5002C184.4 79.5002 187.4 79.5002 190.4 82.0002C194.2 85.3002 196.4 90.9002 196.7 98.9002C196.7 99.2336 196.767 99.6002 196.9 100C198.9 96.2002 200.4 93.8002 201.5 92.6002C206.1 87.5002 214 81.6002 219.5 79.1002C219.9 78.9002 220.5 79.1002 220.7 79.6002C220.9 80.0002 220.7 80.5002 220.2 80.7002C215.1 83.1002 207.2 89.0002 202.8 93.8002C201.7 95.0002 199.9 97.9002 197.6 102.4C197.5 102.7 197.2 102.9 196.9 102.9C196.5 102.9 196.2 102.7 196.1 102.5C195.3 101.3 194.9 100.2 194.9 99.0002C194.2 82.0002 185.2 81.3002 184.4 81.3002L163.5 83.7002C161.433 84.5002 159.967 85.8669 159.1 87.8002C157.5 91.2002 158.1 96.5002 160.6 102.5C161.7 105.1 160.2 106.4 158.9 107.5C157.3 109 155.5 110.6 156 115.3C156.8 123.3 165.8 124.4 166.6 124.5H285C289.4 124.5 293 120.9 293 116.5V99.8002C289.8 94.3002 286.8 90.2002 284.1 87.5002C279.8 83.2002 274.1 80.4002 266.7 79.0002C266.2 78.9002 265.9 78.4002 266 78.0002C266.1 77.5002 266.5 77.1002 267 77.2002C274.8 78.7002 280.8 81.7002 285.4 86.2002C288.2 89.0002 291.4 93.4002 294.7 99.2002C294.767 99.3336 294.8 99.4669 294.8 99.6003V116.5C294.8 121.9 290.4 126.3 285 126.3V126.3Z" fill="#05082E"/>
<path d="M187 66.7003C186.933 70.1003 186.167 73.8669 184.7 78.0003L184.9 79.5003C186 85.9003 181.4 91.9003 174.9 92.4003C169.2 92.8003 164 88.8003 163.1 83.1003L162.6 80.2003C159.5 75.2003 160.6 70.8003 159.4 68.7003C158.3 66.6003 152.3 58.5003 155 56.7003C156.8 55.4336 159.267 57.0669 162.4 61.6003C161.7 59.9003 156.1 47.6003 159.5 46.5003C162.5 45.5003 164.3 49.9003 164.7 51.3003C164.2 49.5003 162.4 42.6003 166 42.3003C168.733 42.1003 170.767 44.8336 172.1 50.5003C171.7 48.3003 170.9 42.6003 173.9 42.3003C175.9 42.1669 177.167 43.9336 177.7 47.6003L181.1 61.7003C181.1 61.7003 181.433 60.9003 182.1 59.3003C183 56.9003 187.8 49.8003 190.9 53.3003C194.1 56.8003 187.1 61.6003 187 66.7003V66.7003Z" fill="#FEF8F6"/>
<path d="M168.5 73.6002C167.9 73.5002 167.5 73.0002 167.6 72.6002C169.1 61.1002 180.8 61.7002 180.9 61.7002C181.4 61.7002 181.8 62.1002 181.7 62.6002C181.7 63.1002 181.3 63.5002 180.8 63.5002C180.4 63.5002 170.7 63.0002 169.4 72.8002C169.3 73.2002 168.9 73.6002 168.5 73.6002V73.6002Z" fill="#05082E"/>
<path fill-rule="evenodd" clip-rule="evenodd" d="M174 93.3001C168.2 93.3001 163.2 89.1001 162.2 83.3001L161.8 80.5001C159.8 77.3001 159.5 74.3001 159.2 72.1001C159.1 70.8001 159 69.8001 158.6 69.2001C158.4 68.8001 158.1 68.3001 157.7 67.6001C155.2 63.8001 151.5 58.0001 154.5 55.9001C156.1 54.8001 157.9 55.7001 159.6 57.1001C157.7 52.1001 157.1 48.7001 157.8 46.9001C158.1 46.3001 158.6 45.8001 159.3 45.6001C160.5 45.2001 161.8 45.5001 162.9 46.5001C162.8 45.1001 163 43.7001 163.7 42.7001C164.2 41.9001 165 41.5001 166 41.4001C168.1 41.2001 169.8 42.9001 170.9 44.9001C171.033 43.9001 171.333 43.1334 171.8 42.6001C172.3 41.9001 173 41.5001 173.8 41.4001C176.9 41.2001 178.2 45.1001 178.6 47.4001L181.3 58.8001C182.2 56.7001 185.3 52.1001 188.4 51.5001C189.6 51.3001 190.7 51.7001 191.6 52.7001C193.8 55.2001 192.1 58.0001 190.4 60.8001C189.2 62.7001 187.9 64.7001 187.9 66.7001C187.8 71.4001 186 76.9001 185.6 78.1001L185.8 79.3001C186.4 82.6001 185.5 86.0001 183.5 88.7001C181.4 91.3001 178.3 93.0001 175 93.2001C174.667 93.2667 174.333 93.3001 174 93.3001V93.3001ZM156.1 57.2001C155.833 57.2001 155.633 57.2667 155.5 57.4001C154.5 58.1001 155.7 61.2001 159.2 66.7001C159.667 67.3667 160 67.9001 160.2 68.3001C160.7 69.2001 160.9 70.5001 161 71.9001C161.2 74.1001 161.5 76.8001 163.4 79.7001C163.466 79.8334 163.5 79.9334 163.5 80.0001L164 83.0001C164.9 88.2001 169.5 91.9001 174.8 91.5001C177.7 91.2001 180.3 89.8001 182.1 87.6001C183.8 85.3001 184.5 82.4001 184.1 79.6001L183.8 78.2001C183.8 78.0667 183.833 77.9001 183.9 77.7001C183.9 77.7001 186 71.6001 186.1 66.7001C186.1 64.2001 187.6 61.9001 188.8 59.9001C190.6 57.1001 191.5 55.3001 190.3 53.9001C189.8 53.4001 189.3 53.2001 188.7 53.3001C186.4 53.7001 183.6 57.9001 182.9 59.6001L182 62.0001C181.8 62.4001 181.5 62.6001 181.1 62.6001C180.7 62.6001 180.4 62.3001 180.3 61.9001L176.8 47.8001C176.6 46.5001 175.7 43.1001 174 43.2001C173.6 43.2001 173.4 43.4001 173.2 43.6001C172.8 44.2001 172.2 45.8001 173 50.3001C173 50.8001 172.7 51.3001 172.3 51.4001C171.8 51.5001 171.3 51.2001 171.2 50.7001C170.7 48.7001 168.8 43.0001 166.1 43.2001C165.7 43.2001 165.4 43.4001 165.1 43.7001C164.3 45.0001 164.8 48.3001 165.6 51.1001C165.7 51.5001 165.5 52.0001 165 52.2001C164.6 52.4001 164.1 52.1001 163.9 51.6001C163.6 50.8001 162 46.6001 159.8 47.3001C159.7 47.4001 159.6 47.4001 159.5 47.7001C159.2 48.3001 158.7 51.1001 163.2 61.1001C163.4 61.7001 163.3 62.2001 162.9 62.4001C162.5 62.6001 162 62.5001 161.7 62.1001C160.2 60.0001 157.6 57.2001 156.1 57.2001V57.2001Z" fill="#05082E"/>
<path d="M175.3 64.1002C174.9 64.1002 174.5 63.9002 174.4 63.5002L171.2 50.7002C171.1 50.2002 171.4 49.7002 171.9 49.6002C172.3 49.5002 172.8 49.8002 172.9 50.3002L176.1 63.0002C176.3 63.5002 176 64.0002 175.5 64.1002C175.433 64.1002 175.367 64.1002 175.3 64.1002V64.1002Z" fill="#05082E"/>
<path d="M168.5 64.1002C168.1 64.1002 167.7 63.9001 167.6 63.5001L163.9 51.6002C163.7 51.1002 164 50.6001 164.5 50.5001C165 50.3001 165.5 50.6002 165.6 51.1002L169.3 63.0001C169.5 63.4001 169.2 63.9002 168.7 64.1002C168.633 64.1002 168.567 64.1002 168.5 64.1002Z" fill="#05082E"/>
<path d="M163.2 65.1002C162.8 65.1002 162.5 64.8002 162.4 64.5002L161.6 61.9002C161.4 61.4002 161.7 60.9002 162.2 60.8002C162.7 60.6002 163.2 60.9002 163.3 61.4002L164.1 63.9002C164.2 64.4002 163.9 64.9002 163.5 65.0002C163.367 65.0669 163.267 65.1002 163.2 65.1002V65.1002Z" fill="#05082E"/>
<path fill-rule="evenodd" clip-rule="evenodd" d="M239.8 191.2H216.4C214.5 191.2 213 189.7 213 187.8V161.9C213 160 214.5 158.5 216.4 158.5H239.8C241.7 158.5 243.2 160 243.2 161.9V187.8C243.2 189.7 241.7 191.2 239.8 191.2ZM216.4 160.3C215.5 160.3 214.8 161 214.8 161.9V187.8C214.8 188.7 215.5 189.4 216.4 189.4H239.8C240.7 189.4 241.4 188.7 241.4 187.8V161.9C241.4 161 240.7 160.3 239.8 160.3H216.4Z" fill="#ED7966"/>
<path d="M242.3 184.5C241.8 184.5 241.4 184.1 241.4 183.6C241.4 183.1 241.8 182.7 242.3 182.7C246.7 182.7 250.2 179.2 250.2 174.9C250.2 170.5 246.7 167 242.3 167C241.8 167 241.4 166.6 241.4 166.1C241.4 165.6 241.8 165.2 242.3 165.2C247.6 165.2 252 169.6 252 174.9C252 180.2 247.6 184.5 242.3 184.5V184.5Z" fill="#ED7966"/>
<path d="M109.8 59.3001C109.2 64.3001 103.5 64.5001 100.1 61.8001C98.2 60.3001 97 57.9001 95.6 55.9001C94.2 53.8001 92.0999 51.4001 92.2999 48.6001C91.5999 47.6001 90.7998 46.8001 89.8998 46.0001C89.2998 45.6001 89.6999 44.8001 90.2999 44.6001C95.1999 43.0001 101.3 44.6001 105.4 47.6001C108.9 50.1001 110.3 55.1001 109.8 59.3001V59.3001Z" fill="#05082E"/>
<path d="M261.9 191.9H194.6C194.1 191.9 193.7 191.5 193.7 191C193.7 190.5 194.1 190.1 194.6 190.1H261.9C262.4 190.1 262.8 190.5 262.8 191C262.8 191.5 262.4 191.9 261.9 191.9Z" fill="#ED7966"/>
<path d="M116 184.9C114.2 185.9 112.1 184.5 110.6 182.7C110.4 184.3 109.8 185.6 108.2 186.3C105.8 187.4 103.7 186.2 102.1 184.6C101.9 186.6 101 188.4 98.6 188.1C97.4 187.9 96.3999 187.2 95.4999 186.2C95.1999 187.2 94.4998 188.1 93.1998 188.8C91.7998 189.5 90.2999 189.1 88.9999 188.1C86.9999 186.6 85.1999 184.8 83.2999 183.1C82.2999 182.2 81.1999 180.9 79.9999 180.3C79.0999 179.8 78.4998 179.9 77.8998 180.3C76.9998 181.9 71.1998 183.1 65.3998 183.9C58.8998 184.9 53.0998 180.1 52.6998 173.6C52.3998 167.4 57.2999 162.1 63.4999 161.9C74.5999 161.6 91 161.1 98.1 160.6C102.2 160.4 105.4 161.7 108.3 164.6C111.4 167.7 113.6 171.7 115.7 175.6C117 178 119.5 183 116 184.9V184.9Z" fill="#FEF8F6"/>
<path fill-rule="evenodd" clip-rule="evenodd" d="M91.6999 190C90.5999 190 89.4999 189.6 88.4999 188.8C86.9999 187.8 85.6998 186.5 84.3998 185.3C83.8665 184.767 83.2999 184.267 82.6999 183.8C82.3665 183.467 82.0332 183.133 81.6999 182.8C80.9999 182.1 80.3 181.4 79.6 181C79.1 180.8 78.7999 180.8 78.4999 181C77.6999 182.1 75.1999 183.4 65.4999 184.8C62.1999 185.3 58.7999 184.4 56.1999 182.2C53.5999 180.1 52 177 51.8 173.6C51.7 170.4 52.7999 167.3 54.9999 164.9C57.1999 162.5 60.1998 161.1 63.3998 161C75.3998 160.7 91.1 160.2 98.1 159.7C102.4 159.5 105.8 160.8 108.9 164C112.2 167.2 114.5 171.4 116.5 175.1C117.5 177.2 120.9 183.3 116.4 185.7C114.8 186.6 113 186.1 111.1 184.5C110.633 185.7 109.767 186.567 108.5 187.1C106.567 187.967 104.633 187.7 102.7 186.3C102.433 187.167 102 187.833 101.4 188.3C100.6 188.9 99.6332 189.133 98.4999 189C97.5666 188.867 96.6666 188.433 95.8 187.7C95.2666 188.5 94.5333 189.133 93.6 189.6C93 189.867 92.3665 190 91.6999 190V190ZM78.9999 179C79.4666 179 79.9666 179.167 80.4999 179.5C81.3999 180 82.1999 180.8 82.9999 181.6C83.3332 181.933 83.6331 182.2 83.8998 182.4C84.4998 182.933 85.0667 183.467 85.6 184C86.9 185.2 88.1999 186.4 89.4999 187.4C90.6999 188.267 91.8 188.467 92.8 188C93.7333 187.533 94.3665 186.833 94.6999 185.9C94.7999 185.6 95 185.4 95.3 185.3C95.6 185.3 95.9999 185.4 96.1999 185.6C96.9999 186.533 97.8332 187.067 98.6999 187.2C99.3665 187.267 99.9 187.167 100.3 186.9C100.8 186.5 101.1 185.6 101.2 184.5C101.2 184.2 101.5 183.9 101.8 183.8C102.1 183.6 102.5 183.7 102.7 184C104.5 185.7 106.2 186.2 107.8 185.5C108.9 185 109.5 184.1 109.7 182.6C109.7 182.3 110 182 110.3 181.9C110.6 181.8 111 181.9 111.2 182.1C112 183 114 185 115.6 184.1C117.5 183.1 117.3 180.5 114.9 176C112.9 172.4 110.7 168.3 107.7 165.2C104.9 162.5 101.9 161.3 98.1999 161.5C91.1999 161.9 75.3999 162.5 63.4999 162.8C60.6999 162.9 58.2 164.1 56.3 166.1C54.4 168.1 53.5 170.8 53.6 173.5C53.8 176.4 55.1 179 57.3 180.8C59.5 182.7 62.4 183.5 65.3 183.1C75.7 181.6 76.9 180.1 77.1 179.9C77.1667 179.7 77.2665 179.567 77.3998 179.5C77.9331 179.167 78.4666 179 78.9999 179V179Z" fill="#05082E"/>
<path d="M95.5 187.1C95.2 187.1 94.9 187 94.8 186.7L85.1001 170.5C84.8001 170.1 84.9999 169.5 85.3999 169.3C85.7999 169 86.4001 169.2 86.6001 169.6L96.3 185.8C96.5 186.2 96.4 186.7 96 187C95.8666 187.067 95.7 187.1 95.5 187.1V187.1Z" fill="#05082E"/>
<path d="M102.1 185.5C101.8 185.5 101.4 185.3 101.3 184.9L93.6002 166.9C93.4002 166.4 93.6001 165.9 94.0001 165.7C94.5001 165.5 95.0001 165.7 95.2001 166.2L102.9 184.2C103.1 184.7 102.9 185.2 102.5 185.4C102.367 185.467 102.234 185.5 102.1 185.5V185.5Z" fill="#05082E"/>
<path d="M110.6 183.6C110.2 183.6 109.9 183.4 109.8 183.1L101.3 165.3C101.1 164.8 101.3 164.3 101.7 164.1C102.2 163.9 102.7 164 102.9 164.5L111.4 182.4C111.6 182.8 111.4 183.3 111 183.5C110.867 183.567 110.734 183.6 110.6 183.6V183.6Z" fill="#05082E"/>
<path d="M176.4 191.7H100.7L125.5 139.6C126 138.7 126.9 138.1 128 138.1H197.6C199.6 138.1 200.9 140.1 200.1 141.9L176.4 191.7Z" fill="#303179"/>
<path d="M73.3 184.6H176.2C178.2 184.6 179.8 186.2 179.8 188.2C179.8 190.1 178.2 191.7 176.2 191.7H73.3C71.3 191.7 69.7 190.1 69.7 188.2C69.7 186.2 71.3 184.6 73.3 184.6Z" fill="#303179"/>
<path d="M179.8 185.7H114.5C114 185.7 113.6 185.3 113.6 184.8C113.6 184.3 114 183.9 114.5 183.9H179.8C180.3 183.9 180.7 184.3 180.7 184.8C180.7 185.3 180.3 185.7 179.8 185.7Z" fill="#05082E"/>
<path d="M160 166.5C158.8 169.3 156.1 170.9 154.1 170C152 169 151.4 166 152.7 163.2C153.9 160.4 156.6 158.9 158.6 159.8C160.7 160.7 161.3 163.7 160 166.5Z" fill="#FEF8F6"/>
<path d="M142.3 48.9C142.233 48.9 138.133 48.2 130 46.8C129.5 46.7 129.2 46.2 129.2 45.8C129.3 45.3 129.8 44.9 130.3 45L142.5 47.1001C142.9 47.2001 143.3 47.6001 143.2 48.1001C143.1 48.6001 142.7 48.9 142.3 48.9V48.9Z" fill="#303179"/>
<path d="M148.7 29.1001C148.5 29.1001 148.2 29.0001 148.1 28.8001L138.4 17.0001C138.1 16.6001 138.1 16.1001 138.5 15.7001C138.9 15.4001 139.5 15.5001 139.8 15.9001L149.4 27.6001C149.8 28.0001 149.7 28.6001 149.3 28.9001C149.167 29.0334 148.967 29.1001 148.7 29.1001V29.1001Z" fill="#303179"/>
<path d="M172.1 23.5001C171.6 23.5001 171.2 23.1001 171.2 22.6001V15.5001C171.2 15.0001 171.6 14.6001 172.1 14.6001C172.6 14.6001 173 15.0001 173 15.5001V22.6001C173 23.1001 172.6 23.5001 172.1 23.5001Z" fill="#303179"/>
<path d="M251.4 129.4C252.1 132.8 251.3 136.2 249.5 139.1C248.5 140.6 247.3 141.9 246 143.1C244.5 144.4 242.8 145.3 241.3 146.5C239.6 147.8 239 149.7 237.8 151.4C235.2 155.1 230.1 155.9 226.3 153.7C222.3 151.5 221.2 146.1 224.5 142.7C226.1 141 227.5 140 227.8 137.5C228.2 134.5 227.4 131.3 228.9 128.4C230.5 125.5 233.6 123.4 236.6 122.2C239.5 121.1 242.9 120.7 245.9 122.1C248.8 123.4 250.8 126.3 251.4 129.4V129.4Z" fill="#FEF8F6"/>
<path fill-rule="evenodd" clip-rule="evenodd" d="M230.8 155.8C229.1 155.8 227.4 155.4 225.9 154.5C223.6 153.3 222.1 151 221.7 148.5C221.4 146.2 222.1 143.8 223.8 142.1C224.067 141.834 224.334 141.567 224.6 141.3C225.9 140.1 226.7 139.2 226.9 137.4C227 136.5 227 135.5 227 134.5C227 132.3 227 130.1 228.1 128C229.6 125.3 232.6 122.9 236.2 121.4C239.8 120 243.3 119.9 246.2 121.3C249.3 122.6 251.5 125.6 252.3 129.2C253 132.7 252.3 136.3 250.2 139.6C249.267 141.067 248.067 142.433 246.6 143.7C245.7 144.5 244.8 145.1 243.9 145.7C243.2 146.2 242.5 146.7 241.9 147.2C240.8 148 240.2 149 239.6 150.2C239.267 150.733 238.9 151.3 238.5 151.9C236.7 154.4 233.8 155.8 230.8 155.8V155.8ZM241.7 122.1C239.7 122.1 238 122.6 236.9 123.1C233.6 124.4 231 126.5 229.7 128.8C228.8 130.6 228.8 132.5 228.8 134.5C228.8 135.5 228.8 136.6 228.7 137.6C228.4 140.1 227.2 141.3 225.8 142.6C225.6 142.8 225.367 143.034 225.1 143.3C223.8 144.7 223.2 146.4 223.5 148.3C223.8 150.2 225 152 226.7 153C230.3 154.9 234.8 154 237 150.9C237.4 150.367 237.733 149.834 238 149.3C238.7 148.1 239.5 146.8 240.7 145.8C241.4 145.2 242.2 144.7 242.9 144.2C243.8 143.6 244.6 143.1 245.4 142.4C246.733 141.2 247.833 139.934 248.7 138.6C250.5 135.8 251.2 132.6 250.6 129.6C249.9 126.5 248 124 245.5 122.9C244.2 122.3 242.9 122.1 241.7 122.1V122.1Z" fill="#05082E"/>
</svg>
