<svg width="947" height="886" viewBox="0 0 947 886" fill="none" xmlns="http://www.w3.org/2000/svg">
<path d="M773.4 231.4C774.533 231.4 797.1 318.5 841.1 492.7C753.033 699.233 703.133 814.833 691.4 839.5C673.7 876.5 658.9 879.9 650.9 883.3C643 886.7 430.6 802.5 413.5 791.1C396.4 779.7 34.3 642.5 17.3 628.8C0.200013 615.1 5.90001 587.8 13.3 572.4C20.7 557.1 135.1 297.4 136.3 295.7C137.4 294 176.1 201.2 188.1 174.5C200 147.7 247.8 41.7996 260.9 37.1996C274 32.6996 600.3 177.3 603.7 176.7C605.967 176.366 629.867 181.5 675.4 192.1C739.533 218.3 772.2 231.4 773.4 231.4Z" fill="#FEF8F6"/>
<path d="M757.9 135.2C746.033 158.6 734.166 182 722.3 205.4C721.2 207.7 718.8 209 716.3 208C714.1 207.2 712.5 204.2 713.6 202C723.466 182.6 733.3 163.2 743.1 143.8C730.966 149.6 718.633 155.033 706.1 160.1C702.9 161.4 699.2 158.8 699.6 155.3C702.666 129.5 705.7 103.7 708.7 77.8998C695.2 105.8 680 132.9 663.2 159C660.8 162.8 655.7 160.4 654.8 156.9C651.9 145.7 650.3 134.4 649.9 122.9C645.366 126.966 640.833 131.033 636.3 135.1C634 137.1 630.2 135.9 629.1 133.2C615.4 98.8998 605 63.1998 598.1 26.7998C588.4 64.6998 580.9 103.1 575.6 141.9C575 146 570 147.2 567.4 144.2C554.3 129.3 542.6 113.3 532.2 96.4998C534.933 111.7 537.633 126.9 540.3 142.1C541.3 147.9 532.3 149.1 531.3 143.4C526.966 119.533 522.666 95.6332 518.4 71.6998C517.5 66.2998 525 64.8998 527.3 69.2998C538.6 91.0998 552.3 111.6 567.9 130.6C574.2 87.6998 583.2 45.2998 594.7 3.49983C596 -1.20017 602.9 0.299828 603.6 4.49983C609.8 45.1998 620.6 84.9998 635.4 123.4C640.8 118.533 646.233 113.666 651.7 108.8C655 105.9 659.4 109.4 659.3 113.1C658.9 123.5 659.7 133.8 661.6 144.1C680.9 113.1 697.9 80.7998 712.5 47.3998C714.6 42.5998 722.1 44.2998 721.5 49.6998C717.633 82.5665 713.766 115.466 709.9 148.4C724 142.5 738 136.1 751.7 129.2C755.2 127.4 759.7 131.6 757.9 135.2Z" fill="#303179"/>
<path d="M599.7 528.2C599.7 528.267 599.733 528.334 599.8 528.4C599.1 528.7 598.3 529 598.7 528.4C599.033 528.334 599.366 528.267 599.7 528.2Z" fill="#05082E"/>
<path d="M655.5 220.4C650.6 219.8 645.7 219.5 640.7 219.7C620.7 220.4 601.1 226.8 583.3 235.6C566.8 243.8 552.7 255.2 542.9 270.9C532.8 287.3 527.2 306.4 522 324.8C516.2 344.9 511.9 365.4 508.9 386.1C505.9 406.4 503.1 427.7 506.1 448.1C508.5 464.2 515.4 478.7 526.4 490.7C536.5 501.8 549.7 510.1 564 514.7C571 517 578.3 518.3 585.7 518.6C589.433 518.733 593.167 518.567 596.9 518.1C599.1 517.9 601.2 517.4 603.4 518.3C605.3 519.1 606.9 520.5 608 522.2C610.6 526.3 611.5 531.5 612.9 536C614.5 541.333 616.133 546.7 617.8 552.1C620.933 562.367 624.067 572.667 627.2 583C628.8 588.333 630.433 593.667 632.1 599L634.5 607C635.3 609.4 636.3 611.7 635.3 614.1C633.4 618.9 626.2 619.8 623.9 614.9C622.9 612.6 623.4 610 624.9 608.1C624.6 607.2 624.2 606.3 624 605.5C623.267 603.167 622.533 600.833 621.8 598.5C615.6 578.3 609.2 558.1 602.9 537.9C602.1 535.3 601.3 532.6 600.4 530.1C600.3 529.5 599.9 529 599.8 528.4C600.5 528.1 601.2 527.6 600.3 528C600.1 528.1 599.9 528.1 599.7 528.2C599.6 528.1 599.3 527.6 599.3 527.6C598.967 527.933 598.767 528.2 598.7 528.4C597.3 528.6 595.7 528.6 594.4 528.6C592.533 528.733 590.667 528.8 588.8 528.8C581.2 528.9 573.7 527.8 566.3 526C537.1 518.6 511.1 496.4 500.8 467.9C494.1 449.4 494.4 429.4 496.1 410C498 389.7 501.2 369.5 505.6 349.5C509.9 330.1 515.2 310.7 522.1 292C528.6 274.8 537.3 258.4 550.8 245.8C564.1 233.3 581.1 224.8 598.2 218.7C616.8 212 636.8 208.4 656.6 211.1C662.6 211.8 661.5 221.2 655.5 220.4Z" fill="#05082E"/>
<path d="M535.8 378.5C539.8 380.8 544 382.6 548.5 384.1C554.3 386.1 550.8 394.6 545 392.9C537.7 390.7 530.8 387.1 524.6 382.8C522 381 522.1 377 524.5 375.2C533.6 368.5 542.3 361.1 549.6 352.5C562.5 337.5 571.7 318.1 569.6 297.8C568.6 289 565.6 279.2 558 273.8C552.3 269.8 543.7 270.2 539.7 276.3C538.3 278.4 535.2 278.6 533.2 277.2C531.1 275.6 531.1 272.9 532.3 270.8C538.3 260.5 552.9 259.7 562.2 265.3C571.9 271.1 576.7 282.5 578.5 293.2C580.5 305.1 578.8 317.5 574.7 328.9C567.5 349.2 552.5 365.3 535.8 378.5Z" fill="#05082E"/>
<path d="M685.1 313.6C682.9 315.3 680.4 314.6 678.6 312.8C669.8 304 661.1 294.6 650.3 288.4C645.1 285.4 639.4 283.8 633.4 284.2C627 284.7 620.8 286.6 614.7 288.6C609.1 290.4 605.3 281.9 611.1 280C625.1 275.3 639.4 271.8 653.2 279.1C659.5 282.5 665.1 286.9 670.4 291.5C675.9 296.3 681.3 301.4 685.9 307.1C687.5 309.1 687.1 312.1 685.1 313.6Z" fill="#05082E"/>
<path d="M641.3 351.5C639.3 353.3 635 352.4 634.3 349.6C633.6 347.4 633.3 345.3 633.3 343C633.3 341.1 633.7 339.2 634.1 337.3C634.5 335.9 635.1 334.6 635.8 333.3C635.3 331.9 635.4 330.1 636.4 328.9C638.1 326.7 640.8 325.1 643.6 324.9C646.3 324.7 648.3 326.2 648.8 328.8C650.7 337.1 647.5 345.8 641.3 351.5Z" fill="#05082E"/>
<path d="M554.2 338.1C552.7 339.1 550.9 339.4 549.2 338.5C547.5 337.5 546.8 335.9 546.9 334C547 330.7 547.7 327.4 548.9 324.2C548.633 323.533 548.533 322.8 548.6 322C548.6 319.3 550.3 316.7 552.4 315.2C555 313.4 558 313 560.9 314C562.4 314.4 563.6 316 563.8 317.6C564.5 325.5 560.9 333.7 554.2 338.1Z" fill="#05082E"/>
<path fill-rule="evenodd" clip-rule="evenodd" d="M611.5 404.9C608.3 420.9 596.2 433.8 580.1 437.1C565.1 440.2 544.3 434 539.5 417.8C538.8 415.4 539.5 412.8 542 411.7C542.9 411.3 543.9 411.3 544.8 411.4C545.4 410.8 546.2 410.3 547.2 410.1C566.7 405.6 586.4 402.2 606.2 399.7C609 399.4 612.1 401.9 611.5 404.9ZM600.2 410.1C583.5 412.3 566.9 415.3 550.5 419C556.3 427.4 569.2 429.8 578.7 427.8C588.3 425.8 596.3 418.9 600.2 410.1Z" fill="#05082E"/>
<path d="M710.7 365.7C700.7 357.5 691.7 348.1 684 337.8C657 301.7 644.5 254 652.7 209.5C653.8 203.7 662.8 204.7 661.8 210.5C659.8 222.4 659.1 234.6 659.9 246.7C662.9 289.4 683.2 330.8 716.4 358.1C721.2 362 715.5 369.6 710.7 365.7Z" fill="#05082E"/>
<path d="M708 560.7C709 563.1 707.8 565.6 705.6 566.8C686.4 577 661.2 571.6 647.3 555.2C644.9 552.4 647 548.3 650.3 547.7C664.4 545.1 674.1 531.2 674.9 517.4C675.3 510.5 672.9 504.4 669.1 498.9C664.2 491.9 659.1 485.5 656.1 477.5C650.7 463.2 650.5 447.2 655.1 432.7C657.3 425.6 660.8 418.7 665.4 412.9C670.3 406.4 676.7 401.4 683.2 396.6C689.4 391.9 695.9 387.2 700.4 380.8C705.4 373.6 706.9 364.7 706.4 356.1C706.1 350.3 714.9 348.9 715.4 354.8C716.3 365.5 714.3 376.5 708.3 385.6C703 393.6 695 399.3 687.5 405C681.1 409.8 675.1 414.9 670.6 421.6C666.5 427.8 663.7 434.9 662.3 442.2C659.5 457 662 472.7 670.7 485.2C675.8 492.5 681.4 499.1 683.4 508C685 515 684.3 522.4 682.1 529.2C678.5 540.3 670.3 549.8 659.7 554.4C671.5 563.7 688.6 565.3 702 558.2C704.2 557.1 707.1 558.6 708 560.7Z" fill="#05082E"/>
<path d="M300 609.8C300.1 615.1 294.9 619 290.2 619.7C285.1 620.6 279.8 619 274.9 617.8C264.8 615.3 254.9 611.9 245.4 607.5C243.4 606.6 242.4 604.8 242.5 602.6C242.9 590.8 245 579.1 248.6 567.9C249.4 565.5 252.4 564.3 254.7 565.2C257.2 566.2 258.1 568.9 257.3 571.3C254.5 580.7 252.7 590.3 252.1 600.1C258.6 602.9 265.3 605.3 272.1 607.3C275.9 608.4 279.8 609.3 283.8 610.1C285.6 610.4 290.3 611.5 290.8 608.8C292.1 602.9 300 603.9 300 609.8Z" fill="#05082E"/>
<path d="M297 599.2C295.2 600.3 292.3 600 291.2 598.1C289.2 595 287.2 592.9 284.2 590.9C281.5 589.2 277.2 588.7 274.7 586C271.7 582.8 272.3 577.5 272.2 573.4C272.1 568.9 271.9 564.5 271.8 560C271.7 557.5 273 555.1 275.7 554.7C278 554.4 280.9 556.2 281 558.7C281.1 563 281.3 567.4 281.4 571.7C281.466 573.833 281.533 575.966 281.6 578.1C281.6 578.5 281.6 579.3 281.7 579.8C281.9 579.8 282.1 579.9 282.2 579.9C289.4 582.4 295 587 298.9 593.6C300 595.6 298.7 598.2 297 599.2Z" fill="#05082E"/>
<path d="M287.4 620.2C287.2 631.5 275.9 636.5 266.3 638.1C255.6 639.8 244.5 639.3 234 636.7C228.7 635.4 223.5 634 221 628.6C218.7 623.7 218.5 617.9 218.5 612.5C218.6 601.5 219.6 590.4 220.1 579.3C220.4 573.4 229.6 574.5 229.3 580.4C228.833 589.6 228.4 598.8 228 608C227.8 612.2 227.6 616.3 228.3 620.5C228.6 621.9 228.9 624.4 230 625.6C231.1 626.7 233.8 627.1 235.3 627.5C243.7 629.8 252.7 630.4 261.4 629.4C267.6 628.7 278 627.3 278.2 619.2C278.4 613.2 287.6 614.3 287.4 620.2Z" fill="#05082E"/>
<path d="M248.3 656.4C239.4 659.2 229.1 657.9 220.4 654.7C211.9 651.6 204.4 645.8 200.4 637.6C191.9 620 203.2 600.9 199.8 582.7C198.8 577 207.7 575.7 208.8 581.4C210.5 590.3 209.2 599.3 207.8 608.1C206.8 615.3 205.4 623.2 207.6 630.4C209.6 637.1 214.8 642 221.1 644.9C227.7 647.8 235.6 649.4 242.8 648.2C248.5 647.2 255.7 642.3 253.7 635.4C253 633 253.6 630.5 256.1 629.4C258.3 628.5 261.2 629.6 262.1 631.9C266.2 642.4 258.3 653.2 248.3 656.4Z" fill="#05082E"/>
<path d="M816.5 562.7C813 570.5 809.5 578.3 806 586C777.7 648.8 750.2 711.9 722.3 774.9C715.367 790.5 708.466 806.066 701.6 821.6C695.4 835.6 690 850.3 682.2 863.5C675.5 874.9 665.5 884.3 651.7 885.3C635.9 886.5 620.6 878.4 606.4 872.7C575.467 860.233 544.533 847.766 513.6 835.3C509.2 833.5 504.8 831.7 500.4 829.9C479.067 821.3 457.767 812.7 436.5 804.1C432.233 802.366 427.967 800.633 423.7 798.9C420.7 797.7 417.7 796.5 414.8 795.3L323.5 758.5C319.767 756.966 316.033 755.466 312.3 754C282.3 741.866 252.333 729.766 222.4 717.7C178.5 699.9 134.5 682.2 90.5999 664.5C69.4999 655.9 48.2999 646.2 26.7999 639.2C10.7999 634 1.89987 624.5 0.599871 606.3C-0.600129 587.4 8.39988 569.7 15.7999 553C23.4665 535.6 31.1332 518.166 38.7999 500.7C39.2666 499.566 39.7666 498.4 40.2999 497.2L44.1999 488.3C45.9999 491.766 47.8999 495.2 49.8999 498.6C48.2999 502.2 46.6999 505.8 45.0999 509.4C44.9999 509.8 44.7999 510.1 44.6999 510.5C36.7666 528.5 28.8333 546.533 20.8999 564.6C13.9999 580.2 5.59991 598.6 12.1999 615.7C12.2999 616 12.3999 616.3 12.4999 616.6C12.4999 616.7 12.5999 616.8 12.5999 616.9C13.9332 619.5 15.2665 622.1 16.5999 624.7C26.0999 628.5 49.5999 637.8 56.6999 640.7C119.7 666 182.6 691.4 245.5 716.8C266.633 725.333 287.767 733.833 308.9 742.3C312.567 743.833 316.233 745.333 319.9 746.8C352.5 759.933 385.067 773.066 417.6 786.2C421.867 787.933 426.133 789.667 430.4 791.4C431.7 791.9 433 792.5 434.3 793C454.5 801.133 474.7 809.3 494.9 817.5C498.967 819.166 503.033 820.8 507.1 822.4C545.7 838 584.4 853.7 623.1 869.2C636.4 874.6 652.3 880.4 664.8 870.2C674.8 862 679.4 848.4 684.4 837C698.067 806.133 711.733 775.233 725.4 744.3C752.8 682.5 780.3 620.8 807.2 558.8C809.8 552.8 819.2 556.8 816.5 562.7Z" fill="#05082E"/>
<path d="M144 263.2C143.733 263.267 143.467 263.333 143.2 263.4C144.867 259.6 146.533 255.767 148.2 251.9C161.2 222.4 174.2 192.9 187.2 163.4C203.5 126.3 219.9 89.0999 236.3 51.9999C236.5 51.4999 236.8 51.0999 237.1 50.7999C237.2 50.5999 237.2 50.3999 237.2 50.2999C240.4 43.2999 246.5 37.8999 253.8 35.3999C260.5 33.0999 268.4 32.8999 274.9 36.0999C275.1 36.1665 275.333 36.2332 275.6 36.2999C301.733 46.9666 327.9 57.6665 354.1 68.3999C400.7 87.5332 447.333 106.667 494 125.8C531.7 141.3 569.5 156.8 607.3 172.3C613 174.6 618.7 177 624.4 179.4C618.6 180.2 612.7 181.2 607 182.6C602 180.533 597 178.467 592 176.4C578.467 170.867 564.967 165.333 551.5 159.8C504.9 140.6 458.3 121.433 411.7 102.3C365.567 83.3666 319.467 64.3666 273.4 45.2999C273 45.1999 272.6 45.1999 272.2 44.9999C270.9 44.3999 269.6 43.8999 268.2 43.4999C267.9 43.3999 267.5 43.2999 267.5 43.2999C267.233 43.2332 266.967 43.1999 266.7 43.1999C265.9 43.0665 265.133 42.9665 264.4 42.8999C264.133 42.8999 263.9 42.8999 263.7 42.8999C263.6 42.8999 262.9 42.8999 262.9 42.8999C262.167 42.9665 261.467 43.0665 260.8 43.1999C260 43.2665 259.233 43.3999 258.5 43.5999C258.4 43.5999 258.2 43.6999 258.1 43.6999C257.767 43.8332 257.467 43.9332 257.2 43.9999C255.8 44.4999 254.5 45.0999 253.2 45.7999C253.1 45.7999 253 45.7999 253 45.8999C252.933 45.8999 252.867 45.9332 252.8 45.9999C252.467 46.1999 252.167 46.3999 251.9 46.5999C251.3 47.0665 250.7 47.5332 250.1 47.9999C249.833 48.1999 249.567 48.4332 249.3 48.6999L249 48.9999C248.533 49.4665 248.1 49.9332 247.7 50.3999C247.233 50.9999 246.8 51.6332 246.4 52.2999C246.3 52.3999 246.2 52.5999 246.2 52.6999C246 52.9665 245.833 53.2665 245.7 53.5999C245.5 53.9999 245.267 54.3665 245 54.6999C244.9 54.8999 244.9 55.0999 244.8 55.2999L238.7 69.2999C222.6 105.9 206.5 142.6 190.4 179.2C180.067 202.733 169.733 226.233 159.4 249.7C157.8 253.367 156.167 257.033 154.5 260.7C150.967 261.367 147.467 262.2 144 263.2Z" fill="#05082E"/>
<path d="M395.3 485.7C385.7 485.633 376.1 485.8 366.5 486.2C358.1 486.6 349.6 487.6 341.1 488C341.3 488.8 341.2 489.7 340.8 490.5C337.4 497.5 333.6 504.3 329.2 510.8C325.933 515.8 322.366 520.6 318.5 525.2C316.5 527.667 314.4 530.033 312.2 532.3C309.8 529.4 307.8 526.2 306.1 522.9C307.7 521.2 309.2 519.5 310.6 517.7C308.6 511.8 306.3 506.1 303.5 500.5C302.6 498.8 301.3 499.7 299.1 499.6C296.6 499.4 294 496.9 292.4 498.5C283.7 507 280.3 519.8 277.1 531.2C277.033 531.333 277 531.466 277 531.6C277.8 536.2 279.5 540.6 282 544.6C284.1 543.1 286.1 541.6 288 540C289 543.7 290.5 547.3 292.1 550.8C289.7 552.733 287.233 554.566 284.7 556.3C276.7 562 268.3 566.9 259.5 571.1C230.3 585.1 197.1 590.2 165 585.8C132.2 581.3 100.3 567.6 75.1997 545.7C63.4997 535.5 53.1997 523.6 44.6997 510.5C42.6331 507.3 40.6664 504.033 38.7997 500.7C32.1997 489 26.9997 476.6 23.2997 463.7C13.6997 430.4 14.2997 395.3 25.2997 362.5C35.6997 331.4 55.0997 303.8 81.0997 283.7C100.8 268.5 123.9 257.5 148.2 251.9C151.933 251.033 155.666 250.3 159.4 249.7C160.733 249.5 162.1 249.3 163.5 249.1C194.3 245 225.9 250 253.9 263.8C283.4 278.5 308.1 301.8 324 330.7C340.6 361 347 396.7 342 430.8C342.2 430.933 342.4 431.066 342.6 431.2C360.4 447.5 379.1 462.9 398.6 477.3C402.6 480.3 399.6 485.7 395.3 485.7Z" fill="#303179"/>
<path d="M436.5 804.1C432.233 802.367 427.967 800.633 423.7 798.9C421.633 794.7 419.6 790.467 417.6 786.2C403.8 757.3 390.5 728.1 379.3 698C366.1 662.8 355.7 626.3 351.2 589C350.1 580.5 350.2 571.7 348.2 563.4C347.5 560.1 346.1 556.8 343.7 554.5C340.8 551.7 336.8 550.3 333.3 548.7C325.1 545 317.8 539.4 312.2 532.3C309.8 529.4 307.8 526.2 306.1 522.9C304.833 520.233 303.767 517.467 302.9 514.6C302.1 511.7 301.5 508.1 299.6 505.7C297.8 503.5 295.2 506.1 293.7 507.7C288.6 513 286.6 520.3 286.3 527.5C286.2 531.7 286.9 535.9 288 540C289 543.7 290.5 547.3 292.1 550.8C292.233 551.067 292.367 551.3 292.5 551.5C294.5 555.7 296.8 559.8 299.2 563.7C301.6 567.5 304.3 571.2 305.6 575.6C307.1 580.4 305.7 584.7 303.9 589.4C302.7 592.7 301.6 596.1 301 599.6C299.6 606.8 299.5 614.2 300.6 621.5C302.8 635.9 309.7 649.7 320.6 659.5C324.9 663.4 319.5 670.8 315.1 666.8C312 664.1 309.2 661.2 306.6 658C296.7 645.6 291.1 629.7 290.7 613.9C290.4 605.7 291.5 597.6 293.9 589.8C295.1 586.3 297.9 582.1 296.8 578.2C295.6 573.9 292.1 569.8 289.9 566C288 562.8 286.2 559.6 284.7 556.3C283 552.9 281.5 549.4 280.3 545.8C276.9 535.7 275.7 525 279.3 514.3C281.7 507 287.2 498.3 294.9 496C303.9 493.2 308.8 501.6 310.9 508.8C311.5 510.933 312.2 512.967 313 514.9C314.4 518.6 316.2 522 318.5 525.2C319.5 526.733 320.633 528.167 321.9 529.5C324.5 532.3 327.5 534.7 330.6 536.8C334.1 539 337.9 540.5 341.6 542.2C345.7 544.2 349.5 546.5 352.3 550.2C354.9 553.5 356.4 557.5 357.4 561.6C359.5 570.4 359.4 579.7 360.5 588.6C365.4 627.7 376.7 665.5 390.8 702.1C402.6 732.5 416.4 762 430.4 791.4C432.4 795.667 434.433 799.9 436.5 804.1Z" fill="#05082E"/>
<path d="M323.5 758.5C319.766 756.967 316.033 755.467 312.3 754C312.033 753.2 311.8 752.4 311.6 751.6C310.666 748.533 309.766 745.433 308.9 742.3C307.566 737.7 306.3 733.033 305.1 728.3C304.3 725.1 303.5 721.3 300.6 719.4C297.9 717.6 294.6 716.9 291.7 715.8C266.7 705.8 247.3 683.5 240.8 657.3C240.2 654.9 242.4 652.5 244.7 652.2C247.3 651.8 249.2 653.7 249.8 656.1C253.5 669.8 261.3 682.6 271.8 692.2C276.4 696.4 281.4 700.1 286.9 703.1C290.033 704.833 293.3 706.333 296.7 707.6C299.9 708.8 303.3 709.8 306.2 711.8C312.5 716.2 313.7 724.1 315.5 731C316.833 736.267 318.3 741.533 319.9 746.8C320.7 749.533 321.533 752.267 322.4 755C322.733 756.133 323.1 757.3 323.5 758.5Z" fill="#05082E"/>
<path d="M814.8 219.1C813.4 221 810 221.8 808.2 220C804.2 216.2 799.9 212.6 795.4 209.4C758.8 182.8 710.7 177.4 666.8 176.9C652.7 176.8 638.4 177.4 624.4 179.4C618.6 180.2 612.7 181.2 607 182.6C601.2 183.933 595.5 185.6 589.9 187.6C576.9 192.1 564.6 198.2 553 205.7C549.866 207.7 546.8 209.833 543.8 212.1C539.667 215.1 535.667 218.3 531.8 221.7C496.2 253.2 475.2 299.3 474 346.7C473.3 371.7 478.4 396.5 476.1 421.5C475 433.9 471.9 446.1 466 457.1C460.1 468.2 452.7 478.2 448.7 490.2C445 501.3 443.8 513.2 445.1 524.8C446.4 536.8 450.4 547.7 456.2 558.2C461.7 568.2 467.6 578.9 466.1 590.7C465.6 594.6 464.4 598.3 462.5 601.6C473.7 599.3 484 592.9 490.9 583.5C492.7 581 496.7 580.8 498.6 583.4C511.7 601.8 533.5 613.5 556.1 613.8C557.1 602.9 560 592.3 564.8 582.4C566.3 579.2 570.8 577.9 573.1 581.2C579 589.3 584.9 597.5 590.8 605.7C598.6 594.766 606.4 583.833 614.2 572.9C617.9 567.9 625.5 573.7 622 578.7C612.9 591.4 603.8 604.2 594.7 616.9C592.9 619.4 588.8 619.5 587 617C581.466 609.333 575.966 601.7 570.5 594.1C567.566 602.166 565.933 610.533 565.6 619.2C565.5 621.2 563.4 623.4 561.4 623.5C536 624.5 511 613.6 494.7 594.1C482.8 607.2 464.8 614.2 447.1 612.3C441.1 611.7 441.7 603.6 447 602.3C450.5 601.5 453.1 598.5 454.5 595.3C458.8 585.3 454 575.3 449.2 566.4C446.3 561.1 443.3 555.8 441 550.2C438.8 544.6 437.1 538.7 436 532.7C433.8 520.8 434 508.3 436.6 496.4C439.4 483.9 444.8 473.1 451.4 462.2C458 451.4 463.1 440.6 465.1 428C467.1 415.8 466.8 403.4 466.1 391.1C465.3 378.4 464.1 365.6 463.9 352.9C463.8 340.5 464.9 328.3 467.3 316.2C475.7 273.6 498.9 234.9 532.7 207.9C535.566 205.633 538.467 203.466 541.4 201.4C542.333 200.8 543.233 200.166 544.1 199.5C558.9 189.6 575 181.8 592 176.4C597 174.8 602.1 173.433 607.3 172.3C607.633 172.233 607.967 172.166 608.3 172.1C634.5 166.4 661.8 166.2 688.4 167.7C733 170.3 780.6 180.5 813.8 212.5C815.6 214.3 816.4 216.9 814.8 219.1Z" fill="#05082E"/>
<path d="M781.2 551.2C777 558.1 772 564.4 766.2 570.2C746.1 590.3 717.2 601.2 688.8 599.3C684.4 599 683.7 593.6 686.4 591C694.7 583.2 699.2 572.4 699.7 561.1C700 555.2 709 556.3 708.8 562.1C708.5 572.3 705.1 582 699.3 590.1C729.5 588.7 758.2 571.6 773.7 545.6C775 543.4 778.4 543.3 780.2 544.6C782.4 546.3 782.5 549 781.2 551.2Z" fill="#05082E"/>
<path d="M942 558.7C940.8 562.3 935.8 562.7 933.7 559.9C926.3 550.4 917.3 542.3 907.1 536C904.6 542.6 901.2 548.9 897.2 554.7C877.7 582.9 845.6 597.8 814.5 609.7C810.3 611.2 807.1 607.4 808.1 603.5C811.6 589.6 810.9 575.1 806.7 561.6C797.7 578.6 778.9 589.2 761.9 597.9C756.7 600.5 753.4 593.1 757.1 589.7C768.2 579.3 774 563.7 772.6 548.6C772 542.5 781.5 541.1 782.1 547.2C783.1 558.3 781 569.2 776.3 579C788.3 571.4 799 561.5 801.8 547.6C802.7 542.8 808.8 541.8 811 546.2C818.9 562.2 821.4 580.1 818.9 597.6C853 583.9 888.7 564.5 899.9 527.2C900.6 524.9 904 523.3 906.2 524.5C917.1 530.3 926.8 537.8 935.2 546.8C939.8 524.5 934.5 500.3 920.8 482.1C913.2 472.1 903 464.5 897.2 453.1C891.3 441.3 890.4 427.5 889.5 414.6C887.4 385.9 887.6 357 883.5 328.5C880.2 305.1 873.6 282 860.6 261.9C848.9 243.7 832.5 228.7 811.7 221.8C806 219.9 809.4 211.5 815 213.2C840 221.1 859.1 240.3 872.1 262.5C900.3 311.1 894.8 368.8 900 422.7C901.3 435.8 903.7 448 912.5 458.3C916.7 463.3 921.6 467.7 925.8 472.7C929.6 477.3 932.9 482.3 935.7 487.5C947.4 509.1 949.7 535.4 942 558.7Z" fill="#05082E"/>
<path d="M514.9 613.1C506.833 623.1 498.833 633.1 490.9 643.1C463.2 678.1 436.4 713.7 410.1 749.8C406.6 754.6 399.4 749.1 402.8 744.3C410.267 733.9 417.8 723.566 425.4 713.3C452 677.433 479.333 642.2 507.4 607.6C511.2 602.9 518.7 608.5 514.9 613.1Z" fill="#05082E"/>
<path d="M749.2 387.8C746.8 404.5 739.5 422.7 726.4 434C722.5 437.4 716.5 431.5 719.9 427.6C725.1 421.7 729.9 415.9 733.3 408.7C736.7 401.6 738.9 394 740 386.3C742.6 368.3 739.3 350 733.4 333C731.5 327.4 739.9 323.8 741.9 329.4C748.5 348 752.2 368.1 749.2 387.8Z" fill="#05082E"/>
<path d="M781.4 390.3C777.1 398.8 770.7 406.3 762.9 411.7C755.3 416.8 745.7 421 736.4 421.2C730.6 421.3 729 413 735.1 412C743.8 410.7 751.6 408.3 758.8 403C771.2 393.8 779.4 378.1 776.3 362.4C774.9 355.3 770.7 348.8 764.1 345.7C757.6 342.6 751.1 342.7 744.9 346.3C740.4 348.9 736.3 341.5 740.4 338.5C749 332.4 760.8 333.1 769.7 338.1C788 348.3 789.9 373 781.4 390.3Z" fill="#05082E"/>
<path d="M766.5 371.2C766 372.5 765.1 373.2 764 373.8C758.6 376.733 753.233 379.7 747.9 382.7C745.7 383.9 742.9 382.3 741.9 380.2C741.4 379.2 741.5 377.8 741.9 376.8C742.4 375.6 743.2 374.9 744.3 374.3C749.7 371.3 755.067 368.3 760.4 365.3C762.6 364 765.5 365.7 766.4 367.8C766.9 368.8 766.9 370.2 766.5 371.2Z" fill="#05082E"/>
<path d="M829 201.1C827 207.8 822.7 213.8 817.1 217.9C815.3 219.2 813.1 219.1 811.4 217.8C810.4 219.3 808.6 220.1 806.9 220C804.2 219.8 802.8 217.3 802.8 214.9C802.933 208.166 803.066 201.4 803.2 194.6C803.2 192.5 805.2 190.9 807.1 190.5C809.1 190.2 811.4 191.5 812.1 193.3C813.033 196.033 813.733 198.8 814.2 201.6C816.6 199.5 819.1 197.5 821.7 195.7C823.5 194.5 825.6 194.4 827.4 195.6C829.2 196.9 829.5 199.2 829 201.1Z" fill="#05082E"/>
<path d="M783.7 629.7C769.6 643 751.8 652.1 733.5 658C716.9 663.4 699.6 666.4 682.3 667.9C664.4 669.5 645.9 670.7 628 668.6C610.9 666.5 593.5 660.2 583.1 645.8C573.8 633.1 570.7 616.2 579.1 602.3C580.4 600.2 583.7 600 585.5 601.4C587.6 602.9 587.7 605.6 586.4 607.7C578.6 620.7 586.1 638 596.6 647C609.2 657.8 626.9 659.9 642.9 660.3C659.1 660.6 675.6 659.6 691.7 657.6C707.5 655.6 723.3 652.3 738.2 646.6C752.9 640.9 766.3 633 778.1 622.4C782.5 618.4 787.9 625.7 783.7 629.7Z" fill="#05082E"/>
<path d="M813.9 565.5C808.233 579.167 802.533 592.833 796.8 606.5C794.5 611.9 786 608.6 788.3 603.2L805.4 562.2C807.7 556.7 816.2 560.1 813.9 565.5Z" fill="#05082E"/>
<path d="M553 205.7C549.867 207.7 546.8 209.833 543.8 212.1C540.067 210.7 536.366 209.3 532.7 207.9C491.1 192.433 449.833 176.133 408.9 159C348.9 133.9 289.6 107 231.1 78.4997C225.9 75.8997 229.2 67.4997 234.4 70.0997C267.2 86.033 300.233 101.433 333.5 116.3C392.9 142.9 453 167.9 513.8 191.1C523 194.566 532.2 198 541.4 201.4C545.267 202.866 549.133 204.3 553 205.7Z" fill="#05082E"/>
<path d="M539.7 688.7C535.5 674.5 531.7 660.2 527.8 645.9C527.1 643.6 527.7 641.1 530.2 640C532.2 639.1 535.5 640.1 536.1 642.4C540.2 657 544.6 671.6 548.4 686.2C549.8 691.2 541.2 693.6 539.7 688.7Z" fill="#05082E"/>
<path d="M546.8 694.1C537 699.8 528.2 707.2 520.8 715.8C507.6 731.4 499.3 750.7 497.6 771C496.1 788.7 499.5 806.4 507.1 822.4C508.8 826 510.7 829.6 512.8 833C513.267 833.733 513.533 834.466 513.6 835.2C509.2 833.466 504.8 831.7 500.4 829.9C498.3 825.9 496.4 821.7 494.9 817.5C492.9 812.3 491.4 806.9 490.3 801.5C485.5 778.8 488.2 754.7 498.3 733.7C507.8 713.8 523.1 697.4 542.3 686.3C546.7 683.7 551.2 691.5 546.8 694.1Z" fill="#05082E"/>
<path fill-rule="evenodd" clip-rule="evenodd" d="M282.3 65.5999C282.3 67.9 281.6 70.1999 280.3 72.1999C277.9 76.1999 272.6 78.0999 268.1 77.1999C265.8 76.6999 263.5 75.7999 261.7 74.1999C260.8 73.4999 260 72.6999 259.4 71.6999C258.5 70.2999 258 69.0999 257.6 67.4999C257.5 67.0999 257.5 66.6999 257.6 66.2999C257.467 65.7666 257.4 65.2 257.4 64.5999C257.4 62 258.6 59.1999 260.3 57.1999C262.4 54.8999 264.9 53.3999 268 52.6999C270.2 52.0999 273 52.3999 275.1 53.3999C277.7 54.5999 279.5 56.3999 280.8 58.7999C282 60.8999 282.3 63.1999 282.3 65.5999ZM273.1 66.1999C273.167 65.7999 273.233 65.4333 273.3 65.0999C273.233 64.7 273.167 64.2666 273.1 63.7999C272.967 63.5333 272.833 63.2333 272.7 62.8999C272.5 62.6333 272.3 62.3999 272.1 62.1999C271.967 62.0666 271.8 61.9333 271.6 61.7999C271.467 61.7333 271.3 61.6666 271.1 61.5999C270.833 61.5333 270.567 61.4999 270.3 61.4999C270.033 61.5666 269.8 61.5999 269.6 61.5999C269.267 61.7333 268.933 61.8666 268.6 61.9999C268.2 62.2666 267.833 62.5666 267.5 62.8999C267.233 63.1666 267 63.4666 266.8 63.7999C266.733 63.9999 266.633 64.1999 266.5 64.3999C266.5 64.7333 266.467 65.0666 266.4 65.3999C266.5 65.6999 266.7 65.9999 266.9 66.3999C267.033 66.5999 267.2 66.8333 267.4 67.0999C267.667 67.2999 267.933 67.4666 268.2 67.5999C268.6 67.7999 269 67.9666 269.4 68.0999C269.733 68.1666 270.067 68.1999 270.4 68.1999C270.733 68.1999 271.067 68.1666 271.4 68.0999C271.6 68.0333 271.767 67.9666 271.9 67.8999C272.1 67.7666 272.3 67.6333 272.5 67.4999C272.633 67.2999 272.767 67.0999 272.9 66.8999C272.967 66.6999 273.033 66.4666 273.1 66.1999Z" fill="#05082E"/>
<path d="M305 76C305.067 76 305.133 76.0333 305.2 76.1C305.267 76.1 305.3 76.1 305.3 76.1C305.3 76.1 305.1 76.1 305 76Z" fill="#05082E"/>
<path fill-rule="evenodd" clip-rule="evenodd" d="M314.6 88.7998C311.5 92.1998 306.6 94.4998 301.8 93.5998C297.2 92.6998 293.4 89.4998 291.9 84.9998C290.4 80.5998 290.7 75.5998 293.7 71.7998C294.9 70.2998 296.8 69.7998 298.5 70.1998C299 68.4998 300.5 67.0998 302.3 66.7998C308.4 65.8998 314.3 69.7998 316.7 75.1998C318.7 79.6998 318 85.0998 314.6 88.7998ZM308.6 80.8998C308.667 80.7665 308.7 80.6332 308.7 80.4998C308.7 80.5665 308.7 80.6332 308.7 80.6998C308.7 80.5665 308.7 80.4665 308.7 80.3998C308.7 80.1998 308.7 79.9998 308.6 79.8998C308.5 79.3998 308.3 78.7998 308.7 79.8998C308.6 79.4998 308.5 79.1998 308.3 78.7998C308.233 78.6665 308.167 78.5665 308.1 78.4998C307.9 78.1665 307.7 77.8665 307.5 77.5998C307.367 77.4665 307.267 77.3665 307.2 77.2998C307 77.0998 306.8 76.9332 306.6 76.7998C306.467 76.6665 306.333 76.5665 306.2 76.4998C306.267 76.4998 306.333 76.5332 306.4 76.5998C306.333 76.5332 306.233 76.4998 306.1 76.4998C306.1 76.4332 306.067 76.3998 306 76.3998C305.8 76.1998 305.6 76.1998 305.7 76.2998C305.567 76.2332 305.433 76.1665 305.3 76.0998C305.4 76.0998 305.3 75.9998 305.1 75.9998C305.033 75.9998 305 75.9998 305 75.9998C304.867 75.9332 304.733 75.8998 304.6 75.8998C304.7 75.8998 304.8 75.8998 304.8 75.9998C304.533 75.9332 304.233 75.8998 303.9 75.8998C303.833 75.8998 303.733 75.8998 303.6 75.8998C302.933 75.9665 302.3 75.8998 301.7 75.6998C301.567 76.2998 301.333 76.8332 301 77.2998C300.6 77.6998 300.1 78.8998 300.8 77.3998C300.6 77.7998 300.4 78.0998 300.3 78.4998C300.3 78.4998 300.267 78.5665 300.2 78.6998C300.133 79.0332 300.1 79.3665 300.1 79.6998C300.1 79.7665 300.067 79.8332 300 79.8998C300.067 80.2998 300.133 80.6998 300.2 81.0998C300.2 81.1665 300.2 81.2332 300.2 81.2998C300.333 81.6332 300.467 81.9665 300.6 82.2998C300.6 82.3665 300.633 82.4665 300.7 82.5998C300.9 82.8665 301.067 83.1332 301.2 83.3998C301.3 83.3998 301.4 83.4998 301.5 83.6998C301.6 83.7998 301.8 83.8998 301.8 83.8998C301.933 84.0332 302.067 84.1332 302.2 84.1998C302.4 84.2665 302.6 84.3332 302.8 84.3998C302.8 84.4665 302.833 84.4998 302.9 84.4998C303.233 84.5665 303.533 84.5998 303.8 84.5998C303.733 84.5998 303.667 84.5998 303.6 84.5998C303.733 84.5998 303.833 84.5998 303.9 84.5998C304.2 84.5998 304.4 84.5998 304.4 84.5998C304.533 84.5332 304.667 84.4998 304.8 84.4998C304.7 84.4998 304.9 84.4998 305.1 84.3998C305.233 84.3998 305.367 84.3665 305.5 84.2998C305.433 84.3665 305.333 84.3998 305.2 84.3998C305.533 84.2665 305.833 84.1332 306.1 83.9998C306.167 83.9998 306.267 83.9665 306.4 83.8998C306.667 83.6998 306.933 83.4998 307.2 83.2998C307.3 83.1998 307.4 83.0998 307.6 82.9998C307.7 82.8998 307.8 82.6998 307.9 82.5998C308.033 82.4665 308.133 82.2998 308.2 82.0998C308.2 82.2332 308.167 82.3332 308.1 82.3998C308.167 82.3332 308.233 82.2332 308.3 82.0998C308.4 81.8998 308.5 81.6998 308.5 81.6998C308.5 81.5665 308.533 81.4332 308.6 81.2998C308.6 81.3665 308.6 81.4665 308.6 81.5998C308.6 81.4665 308.6 81.3665 308.6 81.2998C308.6 81.2332 308.633 81.1665 308.7 81.0998C308.8 80.7998 308.7 80.5998 308.6 80.8998Z" fill="#05082E"/>
<path d="M308.2 82.0997C308.333 81.9664 308.433 81.833 308.5 81.6997C308.4 81.6997 308.4 81.7997 308.2 82.0997Z" fill="#05082E"/>
<path d="M304.4 84.5999C304.266 84.5999 304.166 84.5999 304.1 84.5999C304 84.5999 304 84.5999 303.8 84.5999C304.3 84.4999 304.4 84.4999 304.4 84.5999Z" fill="#05082E"/>
<path d="M304.8 84.4999C304.8 84.4999 304.933 84.4666 305.2 84.3999C305.133 84.3999 305.066 84.4332 305 84.4999C304.933 84.4999 304.866 84.4999 304.8 84.4999Z" fill="#05082E"/>
<path d="M308.6 79.8999C308.667 80.0332 308.7 80.1332 308.7 80.1999C308.7 80.2999 308.7 80.2999 308.7 80.4999C308.6 80.0999 308.6 79.8999 308.6 79.8999Z" fill="#05082E"/>
<path d="M306.2 76.4998C305.933 76.4331 305.766 76.3665 305.7 76.2998C305.833 76.3665 305.966 76.4331 306.1 76.4998C306.166 76.4998 306.2 76.4998 306.2 76.4998Z" fill="#05082E"/>
<path fill-rule="evenodd" clip-rule="evenodd" d="M274.7 445.9C269.1 449.5 263.1 452.9 256.6 454.8C250.3 456.6 243.5 456.8 237.6 453.6C232.3 450.8 228.9 445.9 227.3 440.2C225.767 441 224.233 441.733 222.7 442.4C210.6 448.1 197 453.5 183.6 454.8C171.3 456.1 157.8 452.6 152.5 440.2C151.6 437.9 151 435.6 150.7 433.3C138.9 439.5 126.3 445 112.8 445C100.6 445.1 88 439.4 84.4 427.9C77 429.6 69.5 430.5 61.9 430.4C60 430.4 57.8999 428.3 57.7999 426.5C57.7999 424.1 57.7666 421.733 57.7 419.4C57.7 416.9 58.8999 414.6 61.5999 414.2C63.7999 413.9 66.6999 415.6 66.7999 418.1C66.7999 419.1 66.7999 420.133 66.7999 421.2C70.7999 421 74.6999 420.5 78.5999 419.8C80.1999 419.533 81.8 419.2 83.4 418.8C84.4 406.5 92.3999 395 101.1 386.8C105.8 382.3 111.3 378.7 117.1 375.8C122.5 373.2 129.1 370.5 135.3 370.6C143.3 370.7 146.8 378.1 144.3 385.1C142.3 390.9 137.3 396.1 133.1 400.5C122 411.9 108.3 420.4 93.4999 425.4C94.3999 428.5 96.4999 431.3 100.3 433.1C111.3 438.4 124.4 435 135 430.5C140.5 428.1 146 425.5 151.3 422.6C152.6 416.1 155.5 409.7 158.6 404.2C165.1 392.8 173.4 382 182.8 372.9C192.2 363.8 203.7 356.7 216.6 354.3C223.1 353 230.6 354.6 232.2 362C233.6 368.1 229.7 374.4 225.8 378.7C216 389.2 205 398.7 193.4 407.2C182.8 414.9 171.6 421.8 160.1 428.2C159.8 433.6 161.1 438.8 165.9 442.4C173.5 448 184.9 445.7 193.3 443.3C204.7 440.1 215.8 435.7 226.3 430.2C226.9 420.7 231.7 411.4 237.8 404.5C242.133 399.433 247.233 395.3 253.1 392.1C258.2 389.4 264.2 387.3 269.9 389.2C277.3 391.7 278.4 400 274.5 405.8C270.9 411.5 264.5 415.9 259.3 420C251.9 425.8 244.1 431.1 235.9 435.7C236.3 438.9 237.6 441.8 240.2 444C248.5 451 261.5 443.1 268.9 438.4C274 435.1 279.9 442.6 274.7 445.9ZM93.4999 415.7C108.6 410 122.3 400.2 132.2 387.4C133.6 385.6 135.2 383.6 135.8 381.3C135.9 380.9 135.9 379.9 136.1 380C135.6 379.6 134.4 379.9 133.8 380C128.7 380.7 123.7 382.8 119.2 385.2C110.2 389.9 102.6 397.3 97.4999 406.1C95.7999 408.9 94.2999 412.3 93.4999 415.7ZM163.5 415.6C165.033 414.666 166.6 413.733 168.2 412.8C178.4 406.5 188.4 399.6 197.7 392C202.5 388.133 207.133 384.066 211.6 379.8C215.3 376.2 219.9 372.4 222.2 367.7C222.5 367 223.6 364.6 223.1 363.8C222.2 362.3 218.8 363.4 217.5 363.6C212.5 364.6 207.7 366.6 203.2 369.1C194 374.2 186.3 382 179.7 390.2C173.5 398 167.4 406.4 163.5 415.6ZM237.2 423.9C243.7 419.9 249.9 415.6 255.8 410.8C258.267 408.8 260.667 406.733 263 404.6C264.3 403.4 267.5 401 267.5 399C267.5 396.7 262.1 398.3 260.7 398.9C251 403 242.8 411.1 238.5 420.6C238.033 421.666 237.6 422.766 237.2 423.9Z" fill="#FAE5DF"/>
<path fill-rule="evenodd" clip-rule="evenodd" d="M938.5 558.2C937.9 560.5 934.5 551.9 927.6 544C923.066 538.667 915.1 533.533 903.7 528.6C901.833 535.4 895 546.8 883.2 562.8C871.466 578.733 847.766 592.567 812.1 604.3C813.566 595.567 814.3 586.467 814.3 577C814.3 567.533 811.866 558.6 807 550.2C804.333 558.933 800.533 566.533 795.6 573C790.666 579.467 780.4 585.167 764.8 590.1C768.2 585.567 770.866 579.867 772.8 573C774.666 566.2 776.166 559.167 777.3 551.9C760.633 567.833 743.566 580 726.1 588.4C708.633 596.733 696.866 597.867 690.8 591.8C693.066 589.533 695.533 586.1 698.2 581.5C700.866 576.967 702.366 570.9 702.7 563.3C692.5 564.833 682.066 565.4 671.4 565C660.8 564.667 653.966 559.567 650.9 549.7C657.033 549.3 662.366 547.4 666.9 544C673.7 538.8 674.9 533.2 677.7 513.2C680.5 493.3 661.8 493.3 655.5 458C649.2 422.7 682.3 399.4 697.1 388.5C706.966 381.3 711.133 372 709.6 360.6C703.533 355.667 691.566 340.3 673.7 314.5C655.9 288.7 649.633 255.867 654.9 216C649.633 215.267 644.533 214.7 639.6 214.3C632.2 213.7 605.4 218.3 567.8 238.8C530.3 259.3 515.4 324.2 513.2 337.9C510.9 351.5 486.4 431.8 511.5 481.9C528.166 515.3 559.466 530.5 605.4 527.5L619.6 573C602.133 596.533 592.833 608.867 591.7 610C590.566 611.133 583 602.233 569 583.3L559.8 618.6C555.666 619.333 547.533 618.167 535.4 615.1C523.266 612.1 509.4 603.2 493.8 588.4C487.733 594.867 481.666 600.167 475.6 604.3C469.533 608.5 461.366 609.267 451.1 606.6C455.3 599.4 457.966 593.133 459.1 587.8C460.8 579.8 454.5 571.9 443.1 541.1C431.7 510.4 447.1 480.2 459.6 460.3C472.2 440.4 471 426.7 470.5 399.4C469.9 372 465.3 320.8 481.8 284.4C518.1 204.4 576.9 177.9 660.6 168.8C716.4 162.733 765.366 178.3 807.5 215.5C812.433 207.9 828 216.8 854.2 242.2C893.5 280.4 892.3 372.6 894.1 415.3C895.8 458 914 466 931.1 487C948.2 508.1 939 555.9 938.5 558.2ZM782.5 364.6C779.433 341.867 765.366 333.2 740.3 338.6C747.566 351.8 750.033 365.233 747.7 378.9C745.433 392.567 741.633 405.467 736.3 417.6C771.7 417.133 787.1 399.467 782.5 364.6Z" fill="#05082E"/>
<path d="M417.8 210.1C405.5 206.4 393.1 202.7 381 198.2C359.5 190.1 340.2 177.5 319.3 168C298.5 158.5 276.7 151 255.1 143.4C249.6 141.5 252.9 133.1 258.4 135C270.6 139 282.8 143.2 294.9 147.7C305.6 151.8 316.2 156.1 326.6 161C336.9 165.9 346.8 171.5 356.9 176.9C377.2 187.9 399.2 194.7 421.2 201.3C427.1 203.1 423.6 211.8 417.8 210.1Z" fill="#05082E"/>
<path d="M289.5 185.3C275.3 179.1 261.1 172.7 246.9 166.4C241.5 164 244.8 155.6 250.2 157.9C264.4 164.2 278.7 170.5 292.9 176.8C298.3 179.2 295 187.7 289.5 185.3Z" fill="#05082E"/>
<path d="M405.7 238.3C374.3 224.8 342.9 211.4 311.5 197.9C306.2 195.5 309.4 187.2 314.8 189.4C346.2 202.8 377.7 216.2 409.1 229.7C414.5 232 411.2 240.6 405.7 238.3Z" fill="#05082E"/>
</svg>
