<svg width="1107" height="280" viewBox="0 0 1107 280" fill="none" xmlns="http://www.w3.org/2000/svg">
<path d="M1 95C1 42.533 43.533 0 96 0H226C278.467 0 321 42.533 321 95V170C321 230.751 271.751 280 211 280H111C50.2487 280 1 230.751 1 170V95Z" fill="#303179"/>
<path d="M37.5764 90C37.5764 62.3858 59.9622 40 87.5764 40H227.576C255.191 40 277.576 62.3858 277.576 90V150C277.576 188.66 246.236 220 207.576 220H107.576C68.9165 220 37.5764 188.66 37.5764 150V90Z" fill="#FAE5DF"/>
<path d="M0.596866 94.4387C0.267226 93.3845 0.854626 92.2626 1.90886 91.933L66.8638 71.6227C82.6773 66.6781 99.5726 75.7047 104.517 91.5182C109.462 107.332 100.718 124.375 84.9047 129.32L19.9497 149.63C18.8954 149.96 17.7736 149.372 17.444 148.318L0.596866 94.4387Z" fill="#303179"/>
<path d="M314.941 94.4387C315.27 93.3845 314.683 92.2626 313.629 91.933L248.674 71.6227C232.86 66.6781 215.965 75.7047 211.02 91.5182C206.076 107.332 214.819 124.375 230.633 129.32L295.588 149.63C296.642 149.96 297.764 149.372 298.094 148.318L314.941 94.4387Z" fill="#303179"/>
<path d="M97.5764 99C97.5764 110.046 88.6221 119 77.5764 119C66.5307 119 57.5764 110.046 57.5764 99C57.5764 87.9543 66.5307 79 77.5764 79C88.6221 79 97.5764 87.9543 97.5764 99Z" fill="#111111"/>
<path d="M258.576 99C258.576 110.046 249.622 119 238.576 119C227.531 119 218.576 110.046 218.576 99C218.576 87.9543 227.531 79 238.576 79C249.622 79 258.576 87.9543 258.576 99Z" fill="#111111"/>
<path d="M90.5764 92.5C90.5764 96.0899 87.6663 99 84.0764 99C80.4866 99 77.5764 96.0899 77.5764 92.5C77.5764 88.9101 80.4866 86 84.0764 86C87.6663 86 90.5764 88.9101 90.5764 92.5Z" fill="white"/>
<path d="M251.576 92.5C251.576 96.0899 248.666 99 245.076 99C241.487 99 238.576 96.0899 238.576 92.5C238.576 88.9101 241.487 86 245.076 86C248.666 86 251.576 88.9101 251.576 92.5Z" fill="white"/>
<path d="M140.576 119.5C140.576 114.806 144.382 111 149.076 111H167.076C171.771 111 175.576 114.806 175.576 119.5C175.576 124.194 171.771 128 167.076 128H149.076C144.382 128 140.576 124.194 140.576 119.5Z" fill="#111111"/>
<path fill-rule="evenodd" clip-rule="evenodd" d="M124.163 148.218C125.147 146.885 127.026 146.602 128.359 147.587C131.013 149.547 135.294 151.184 140.671 152.314C145.983 153.431 152.099 154 158.202 154C164.308 154 170.31 153.431 175.398 152.319C180.574 151.188 184.452 149.57 186.632 147.715C187.894 146.641 189.788 146.794 190.861 148.056C191.935 149.318 191.782 151.211 190.521 152.285C187.216 155.097 182.182 156.979 176.679 158.181C171.089 159.402 164.646 160 158.202 160C151.756 160 145.219 159.402 139.436 158.186C133.716 156.983 128.459 155.12 124.794 152.413C123.461 151.429 123.179 149.551 124.163 148.218Z" fill="#111111"/>
<path d="M554.74 55.6V55.1H554.24H423.04H422.54V55.6V83.12V83.62H423.04H505.2L420.09 190.008L419.98 190.145V190.32V206V206.5H420.48H554.24H554.74V206V178.16V177.66H554.24H471.124L554.63 73.8334L554.74 73.6961V73.52V55.6ZM807.449 156.307L807.372 155.904L806.963 155.9L776.243 155.58L775.686 155.574L775.74 156.128C777.673 176.104 786.304 189.684 798.957 198.254C811.59 206.81 828.181 210.34 845.998 210.34C864.94 210.34 881.451 206.248 893.241 198.132C905.052 190.002 912.098 177.85 912.098 161.84C912.098 147.129 906.429 137.223 897.867 130.487C889.331 123.772 877.956 120.233 866.568 118.148L866.556 118.146L838.398 113.667C829.652 112.235 823.915 109.621 820.372 106.429C816.844 103.249 815.458 99.4669 815.458 95.6C815.458 90.5167 817.987 86.2682 822.898 83.2666C827.831 80.2523 835.168 78.5 844.717 78.5C854.273 78.5 862.572 80.0945 868.664 83.6712C874.73 87.2324 878.636 92.7724 879.42 100.769L879.464 101.22H879.918H910.638H911.18L911.136 100.679C909.523 80.8362 900.231 68.3721 887.653 60.8903C875.104 53.4255 859.322 50.94 844.717 50.94C825.925 50.94 810.13 55.4367 799.021 63.6377C787.896 71.8495 781.497 83.7572 781.497 98.48C781.497 112.232 786.927 122.053 795.28 128.907C803.614 135.743 814.829 139.605 826.394 141.533C826.394 141.533 826.395 141.533 826.395 141.533L859.671 147.293C859.672 147.293 859.672 147.293 859.672 147.293C866.015 148.403 870.959 150.536 874.309 153.457C877.647 156.368 879.418 160.073 879.418 164.4C879.418 170.088 876.205 174.501 870.523 177.518C864.823 180.545 856.674 182.14 846.958 182.14C835.644 182.14 826.632 180.226 820.024 176.057C813.437 171.901 809.187 165.47 807.449 156.307ZM664.368 51.26C617.377 51.26 583.868 84.4385 583.868 130.8C583.868 177.161 617.377 210.34 664.368 210.34C711.358 210.34 744.868 177.161 744.868 130.8C744.868 84.4385 711.358 51.26 664.368 51.26ZM664.368 179.26C637.468 179.26 618.148 158.709 618.148 130.8C618.148 102.574 637.466 82.34 664.368 82.34C691.269 82.34 710.588 102.574 710.588 130.8C710.588 158.709 691.267 179.26 664.368 179.26ZM1025.43 51.26C978.439 51.26 944.93 84.4385 944.93 130.8C944.93 177.161 978.439 210.34 1025.43 210.34C1072.42 210.34 1105.93 177.161 1105.93 130.8C1105.93 84.4385 1072.42 51.26 1025.43 51.26ZM1025.43 179.26C998.53 179.26 979.21 158.709 979.21 130.8C979.21 102.574 998.528 82.34 1025.43 82.34C1052.33 82.34 1071.65 102.574 1071.65 130.8C1071.65 158.709 1052.33 179.26 1025.43 179.26Z" fill="#303179" stroke="black"/>
</svg>
